<svg width="20" height="14" viewBox="0 0 20 14" fill="none" xmlns="http://www.w3.org/2000/svg">
<path d="M19.0714 6.23V2.8C19.0714 1.26 17.7857 0 16.2143 0H11.4286C10.9 0 10.4 0.168 10 0.448C9.6 0.168 9.1 0 8.57143 0H3.78571C2.21429 0 0.928572 1.26 0.928572 2.8V6.23C0.357143 6.874 0 7.714 0 8.638V14L1.5 14V11.9L18.5 11.9V14L20 14V8.638C20 7.714 19.6429 6.874 19.0714 6.23ZM17.5 4.9L11.0714 4.9V1.47L17.5 1.47V4.9ZM2.5 1.47H8.92857V4.9L2.5 4.9V1.47ZM18.5 10.29L1.5 10.29V8.33C1.5 7.56 2.21429 6.37 3 6.37L17 6.37C17.7857 6.37 18.5 7.63 18.5 8.4V10.29Z" fill="black"/>
</svg>
