<svg width="21" height="18" viewBox="0 0 21 18" fill="none" xmlns="http://www.w3.org/2000/svg">
<path d="M5 5V16C5.00019 16.2107 5.06691 16.4159 5.19063 16.5864C5.31436 16.7569 5.48877 16.884 5.68899 16.9495C5.8892 17.015 6.105 17.0156 6.30558 16.9513C6.50617 16.8869 6.6813 16.7608 6.806 16.591L10.5 11.5V11.555M14 14.5C14 15.163 14.2634 15.7989 14.7322 16.2678C15.2011 16.7366 15.837 17 16.5 17C17.163 17 17.7989 16.7366 18.2678 16.2678C18.7366 15.7989 19 15.163 19 14.5C19 13.837 18.7366 13.2011 18.2678 12.7322C17.7989 12.2634 17.163 12 16.5 12C15.837 12 15.2011 12.2634 14.7322 12.7322C14.2634 13.2011 14 13.837 14 14.5Z" stroke="black" stroke-width="1.5" stroke-linecap="round" stroke-linejoin="round"/>
<path d="M5 5H20L16.5 12L9.4 11.253C8.67571 11.1769 7.98595 10.9045 7.40511 10.4651C6.82427 10.0258 6.37439 9.43622 6.104 8.76L3.251 1.63C3.17702 1.44425 3.04906 1.28494 2.88364 1.17264C2.71822 1.06034 2.52294 1.00021 2.323 1H1" stroke="black" stroke-width="1.5" stroke-linecap="round" stroke-linejoin="round"/>
</svg>
