<svg width="24" height="24" viewBox="0 0 24 24" fill="none" xmlns="http://www.w3.org/2000/svg">
<g id="Filled" clip-path="url(#clip0_85_2011)">
<path id="Vector" d="M5.60484 16.9601C5.8035 16.3555 6.13399 15.983 7.01484 15.3954C7.01506 15.3952 7.01527 15.3951 7.01549 15.3949L7.56402 15.0309L7.56407 15.031L7.5731 15.0248C8.18986 14.6024 8.62558 14.2039 8.94464 13.6269L8.94509 13.6261C8.99046 13.5439 9.03606 13.4617 9.0819 13.3797L9.46936 12.7048L9.70517 12.3201C10.1622 11.5962 10.4942 11.2288 10.8041 11.0265C11.0888 10.8408 11.4237 10.75 11.9993 10.75C12.647 10.75 12.9822 10.8417 13.2616 11.0327C13.5743 11.2465 13.909 11.6462 14.4063 12.48L14.6527 12.9024L14.918 13.379C14.9182 13.3793 14.9184 13.3797 14.9186 13.38C15.2459 13.9713 15.7082 14.4042 16.3843 14.8992L16.3843 14.8992L16.3892 14.9027L16.9133 15.28L17.1632 15.4647C17.907 16.0274 18.2113 16.4111 18.3792 16.9264C18.3819 16.9348 18.3848 16.943 18.3878 16.9512C18.4845 17.2159 18.5493 17.6368 18.5493 18C18.5493 19.329 17.6401 20.2454 16.5079 20.25L16.286 20.2445C16.1965 20.2397 16.1101 20.2315 16.0194 20.2189L15.7926 20.1796C15.7273 20.1665 15.6549 20.1498 15.5697 20.1288L15.2758 20.0496L14.7225 19.8833L13.9638 19.643L13.9638 19.6429L13.9521 19.6394L13.4971 19.5034L13.4971 19.5033L13.4853 19.5C12.9283 19.3434 12.4432 19.25 11.9993 19.25C11.5571 19.25 11.0714 19.342 10.5121 19.5003L10.512 19.5003L10.5015 19.5034L10.0465 19.6394L10.0465 19.6393L10.0337 19.6434L9.2773 19.8843L8.72075 20.0503L8.57468 20.0908L8.30619 20.1582L8.20137 20.1804L7.97919 20.2189C7.88853 20.2315 7.80212 20.2397 7.71264 20.2445L7.49073 20.25C6.35759 20.2454 5.44931 19.328 5.44933 18.006L5.44929 18.0007C5.44673 17.6356 5.51175 17.2151 5.59642 16.9843C5.59936 16.9763 5.60217 16.9682 5.60484 16.9601Z" stroke="black" stroke-width="1.5" stroke-linecap="round" stroke-linejoin="round"/>
<path id="Vector_2" d="M19.7783 7.75L19.7785 7.75C19.9534 7.74995 20.1272 7.78521 20.2876 7.85324C20.7239 8.04258 21.0398 8.44961 21.1781 9.05993C21.3181 9.67807 21.2574 10.4555 20.9599 11.2251C20.4542 12.5281 19.5101 13.25 18.7163 13.25C18.5422 13.25 18.3717 13.216 18.2105 13.1475C17.7704 12.9573 17.4544 12.55 17.317 11.9411C17.1777 11.3237 17.2397 10.5464 17.5393 9.77574L17.5395 9.77532C18.039 8.48793 18.9663 7.76619 19.7551 7.75L19.7783 7.75Z" stroke="black" stroke-width="1.5" stroke-linecap="round" stroke-linejoin="round"/>
<path id="Vector_3" d="M8.76323 3.77431C8.77232 3.77309 8.78139 3.7717 8.79044 3.77014L8.87515 3.75557C8.89955 3.75209 8.92862 3.75 9.02628 3.75C9.96689 3.75 10.9654 4.69673 11.2052 6.22921C11.3279 7.02236 11.1997 7.76859 10.9121 8.31426C10.6277 8.85371 10.214 9.16177 9.73839 9.22568C9.72883 9.22697 9.71928 9.22844 9.70977 9.23009L9.62686 9.24451C9.6231 9.24504 9.61933 9.24553 9.61555 9.24598L9.46633 9.24997C8.53091 9.24397 7.53744 8.29721 7.29629 6.77021C7.17371 5.97743 7.30211 5.23144 7.58982 4.68583C7.87437 4.14621 8.28813 3.83819 8.76323 3.77431Z" stroke="black" stroke-width="1.5" stroke-linecap="round" stroke-linejoin="round"/>
<path id="Vector_4" d="M14.9733 3.75L14.9715 3.75001C14.0326 3.75001 13.0356 4.69684 12.7966 6.22812L14.9733 3.75ZM14.9733 3.75C15.0383 3.74985 15.1032 3.75421 15.1675 3.76304L15.1687 3.7632M14.9733 3.75L15.1687 3.7632M15.1687 3.7632C15.6891 3.83378 16.1172 4.15521 16.4047 4.68994C16.6964 5.2324 16.8248 5.97316 16.7036 6.76398L16.666 6.97493C16.3693 8.39571 15.4189 9.25001 14.5255 9.25001C14.4674 9.25001 14.4033 9.24587 14.327 9.23635M15.1687 3.7632L14.327 9.23635M14.327 9.23635C13.8081 9.16485 13.3812 8.84366 13.0943 8.31007C12.8017 7.76591 12.6734 7.02219 12.7966 6.22857L14.327 9.23635Z" stroke="black" stroke-width="1.5" stroke-linecap="round" stroke-linejoin="round"/>
<path id="Vector_5" d="M3.04285 11.2247L3.04271 11.2243C2.74364 10.4547 2.6815 9.67745 2.82108 9.0595C2.95863 8.45055 3.27469 8.04216 3.7162 7.85074C3.87493 7.78399 4.04464 7.75 4.21864 7.75C5.01203 7.75 5.95449 8.47137 6.46043 9.7753L6.46057 9.77566C6.75964 10.5453 6.82178 11.3225 6.6822 11.9405C6.54465 12.5494 6.22859 12.9578 5.7871 13.1492C5.62836 13.216 5.45865 13.25 5.28464 13.25C4.49125 13.25 3.54879 12.5286 3.04285 11.2247Z" stroke="black" stroke-width="1.5" stroke-linecap="round" stroke-linejoin="round"/>
</g>
<defs>
<clipPath id="clip0_85_2011">
<rect width="24" height="24" fill="white"/>
</clipPath>
</defs>
</svg>
