<svg width="48" height="48" viewBox="0 0 48 48" fill="none" xmlns="http://www.w3.org/2000/svg">
<path d="M0 6C0 2.68629 2.68629 0 6 0H42C45.3137 0 48 2.68629 48 6V42C48 45.3137 45.3137 48 42 48H6C2.68629 48 0 45.3137 0 42V6Z" fill="black"/>
<g clip-path="url(#clip0_3765_12505)">
<path d="M16 19C16 18.4696 16.2107 17.9609 16.5858 17.5858C16.9609 17.2107 17.4696 17 18 17H30C30.5304 17 31.0391 17.2107 31.4142 17.5858C31.7893 17.9609 32 18.4696 32 19V31C32 31.5304 31.7893 32.0391 31.4142 32.4142C31.0391 32.7893 30.5304 33 30 33H18C17.4696 33 16.9609 32.7893 16.5858 32.4142C16.2107 32.0391 16 31.5304 16 31V19Z" stroke="white" stroke-width="1.5" stroke-linecap="round" stroke-linejoin="round"/>
<path d="M28 15V19" stroke="white" stroke-width="1.5" stroke-linecap="round" stroke-linejoin="round"/>
<path d="M20 15V19" stroke="white" stroke-width="1.5" stroke-linecap="round" stroke-linejoin="round"/>
<path d="M16 23H32" stroke="white" stroke-width="1.5" stroke-linecap="round" stroke-linejoin="round"/>
<path d="M23 27H24" stroke="white" stroke-width="1.5" stroke-linecap="round" stroke-linejoin="round"/>
<path d="M24 27V30" stroke="white" stroke-width="1.5" stroke-linecap="round" stroke-linejoin="round"/>
</g>
<defs>
<clipPath id="clip0_3765_12505">
<rect width="24" height="24" fill="white" transform="translate(12 12)"/>
</clipPath>
</defs>
</svg>
