<svg width="25" height="24" viewBox="0 0 25 24" fill="none" xmlns="http://www.w3.org/2000/svg">
<g clip-path="url(#clip0_2747_21)">
<path d="M10.5 16V21" stroke="black" stroke-width="1.5" stroke-linecap="round" stroke-linejoin="round"/>
<path d="M14.5 16V21" stroke="black" stroke-width="1.5" stroke-linecap="round" stroke-linejoin="round"/>
<path d="M9.5 9H15.5L14.5 16H10.5L9.5 9Z" stroke="black" stroke-width="1.5" stroke-linecap="round" stroke-linejoin="round"/>
<path d="M5.5 11C6.833 9.667 8.167 9 9.5 9" stroke="black" stroke-width="1.5" stroke-linecap="round" stroke-linejoin="round"/>
<path d="M19.5 11C18.167 9.667 16.833 9 15.5 9" stroke="black" stroke-width="1.5" stroke-linecap="round" stroke-linejoin="round"/>
<path d="M10.5 4C10.5 4.53043 10.7107 5.03914 11.0858 5.41421C11.4609 5.78929 11.9696 6 12.5 6C13.0304 6 13.5391 5.78929 13.9142 5.41421C14.2893 5.03914 14.5 4.53043 14.5 4C14.5 3.46957 14.2893 2.96086 13.9142 2.58579C13.5391 2.21071 13.0304 2 12.5 2C11.9696 2 11.4609 2.21071 11.0858 2.58579C10.7107 2.96086 10.5 3.46957 10.5 4Z" stroke="black" stroke-width="1.5" stroke-linecap="round" stroke-linejoin="round"/>
</g>
<defs>
<clipPath id="clip0_2747_21">
<rect width="24" height="24" fill="white" transform="translate(0.5)"/>
</clipPath>
</defs>
</svg>
