<svg width="32" height="32" viewBox="0 0 32 32" fill="none" xmlns="http://www.w3.org/2000/svg">
<g clip-path="url(#clip0_3749_10608)">
<path d="M4 16C4 17.5759 4.31039 19.1363 4.91345 20.5922C5.5165 22.0481 6.40042 23.371 7.51472 24.4853C8.62902 25.5996 9.95189 26.4835 11.4078 27.0866C12.8637 27.6896 14.4241 28 16 28C17.5759 28 19.1363 27.6896 20.5922 27.0866C22.0481 26.4835 23.371 25.5996 24.4853 24.4853C25.5996 23.371 26.4835 22.0481 27.0866 20.5922C27.6896 19.1363 28 17.5759 28 16C28 14.4241 27.6896 12.8637 27.0866 11.4078C26.4835 9.95189 25.5996 8.62902 24.4853 7.51472C23.371 6.40042 22.0481 5.5165 20.5922 4.91345C19.1363 4.31039 17.5759 4 16 4C14.4241 4 12.8637 4.31039 11.4078 4.91345C9.95189 5.5165 8.62902 6.40042 7.51472 7.51472C6.40042 8.62902 5.5165 9.95189 4.91345 11.4078C4.31039 12.8637 4 14.4241 4 16Z" stroke="black" stroke-width="1.5" stroke-linecap="round" stroke-linejoin="round"/>
<path d="M12 13.334C12 14.3949 12.4214 15.4123 13.1716 16.1624C13.9217 16.9126 14.9391 17.334 16 17.334C17.0609 17.334 18.0783 16.9126 18.8284 16.1624C19.5786 15.4123 20 14.3949 20 13.334C20 12.2731 19.5786 11.2557 18.8284 10.5056C18.0783 9.75541 17.0609 9.33398 16 9.33398C14.9391 9.33398 13.9217 9.75541 13.1716 10.5056C12.4214 11.2557 12 12.2731 12 13.334Z" stroke="black" stroke-width="1.5" stroke-linecap="round" stroke-linejoin="round"/>
<path d="M8.22266 25.1327C8.55267 24.0343 9.22795 23.0716 10.1483 22.3873C11.0687 21.703 12.1851 21.3336 13.332 21.334H18.6653C19.8137 21.3336 20.9315 21.7038 21.8525 22.3897C22.7735 23.0755 23.4486 24.0404 23.7773 25.1407" stroke="black" stroke-width="1.5" stroke-linecap="round" stroke-linejoin="round"/>
</g>
<defs>
<clipPath id="clip0_3749_10608">
<rect width="32" height="32" fill="white"/>
</clipPath>
</defs>
</svg>
