<svg width="20" height="20" viewBox="0 0 20 20" fill="none" xmlns="http://www.w3.org/2000/svg">
<path d="M15 1.34001C16.5083 2.21087 17.7629 3.46054 18.6398 4.96531C19.5167 6.47009 19.9854 8.17779 19.9994 9.91935C20.0135 11.6609 19.5725 13.376 18.72 14.8947C17.8676 16.4135 16.6332 17.6832 15.1392 18.5783C13.6452 19.4734 11.9434 19.9628 10.2021 19.9981C8.46083 20.0333 6.74055 19.6132 5.21155 18.7793C3.68256 17.9453 2.39787 16.7265 1.48467 15.2435C0.571462 13.7605 0.0614093 12.0647 0.00500011 10.324L0 10L0.00500011 9.67601C0.0610032 7.94901 0.563548 6.26598 1.46364 4.79101C2.36373 3.31604 3.63065 2.09947 5.14089 1.2599C6.65113 0.420327 8.35315 -0.0135887 10.081 0.000452316C11.8089 0.0144933 13.5036 0.476012 15 1.34001ZM10.01 13L9.883 13.007C9.63995 13.0359 9.41594 13.153 9.25341 13.336C9.09088 13.519 9.00111 13.7553 9.00111 14C9.00111 14.2448 9.09088 14.481 9.25341 14.6641C9.41594 14.8471 9.63995 14.9641 9.883 14.993L10 15L10.127 14.993C10.37 14.9641 10.5941 14.8471 10.7566 14.6641C10.9191 14.481 11.0089 14.2448 11.0089 14C11.0089 13.7553 10.9191 13.519 10.7566 13.336C10.5941 13.153 10.37 13.0359 10.127 13.007L10.01 13ZM10 5.00001C9.75507 5.00005 9.51866 5.08997 9.33563 5.25273C9.15259 5.41549 9.03566 5.63976 9.007 5.88301L9 6.00001V10L9.007 10.117C9.03591 10.3601 9.15296 10.5841 9.33597 10.7466C9.51897 10.9091 9.75524 10.9989 10 10.9989C10.2448 10.9989 10.481 10.9091 10.664 10.7466C10.847 10.5841 10.9641 10.3601 10.993 10.117L11 10V6.00001L10.993 5.88301C10.9643 5.63976 10.8474 5.41549 10.6644 5.25273C10.4813 5.08997 10.2449 5.00005 10 5.00001Z" fill="#EB5757"/>
</svg>
