<svg width="25" height="26" viewBox="0 0 25 26" fill="none" xmlns="http://www.w3.org/2000/svg">
<g id="close">
<path id="Vector" d="M3.26848 4.16086C9.30447 8.1545 14.2427 13.4141 17.6454 19.3494C18.5993 21.0153 19.4249 22.7308 20.1255 24.4932C20.2662 24.8434 20.6602 25.0779 21.0887 24.9758C21.4765 24.882 21.7736 24.4821 21.636 24.1263C19.0434 17.5843 14.7243 11.5938 9.0918 6.75618C7.51244 5.39646 5.82674 4.13879 4.05973 2.97214C3.72196 2.74874 3.18717 2.92525 2.99014 3.22036C2.75558 3.57339 2.93072 3.94021 3.27161 4.16361L3.26848 4.16086Z" fill="black" stroke="white" stroke-width="2"/>
<path id="Vector_2" d="M22.2697 1.33938C17.7474 7.10369 13.1063 12.9728 6.88263 17.4326C5.16878 18.6627 3.32671 19.7548 1.38769 20.6871C0.502623 21.1118 1.29074 22.3033 2.17581 21.8785C9.3971 18.4034 14.8389 12.8073 19.6239 7.02923C20.9874 5.38543 22.3041 3.7113 23.6176 2.03717C23.8584 1.73102 23.6833 1.27043 23.3362 1.09392C22.9483 0.892579 22.5074 1.03324 22.2666 1.34214L22.2697 1.33938Z" fill="black" stroke="white" stroke-width="2"/>
</g>
</svg>
