<svg width="32" height="33" viewBox="0 0 32 33" fill="none" xmlns="http://www.w3.org/2000/svg">
<rect y="0.5" width="32" height="32" rx="16" fill="white"/>
<path fill-rule="evenodd" clip-rule="evenodd" d="M11.8901 6.5915C8.19458 6.76031 6.25322 8.83976 6.09208 12.3902C5.96931 15.0781 5.96931 17.9218 6.09208 20.6097C6.25322 24.1601 8.19458 26.2395 11.8901 26.4083C14.5788 26.5303 17.4218 26.5303 20.1105 26.4083C23.661 26.2457 25.7397 24.3074 25.9085 20.6097C26.0305 17.921 26.0305 15.0796 25.9085 12.3902C25.7428 8.77146 23.7293 6.75724 20.1105 6.5915C17.4218 6.4695 14.5788 6.4695 11.8901 6.5915ZM20.0284 8.38627C22.7133 8.50827 23.9925 9.78663 24.1137 12.4723C24.2349 15.1042 24.2349 17.8957 24.1137 20.5276C23.9886 23.2907 22.6435 24.4946 20.0284 24.6136C17.3949 24.734 14.6057 24.734 11.9722 24.6136C9.35632 24.4946 8.01195 23.2907 7.88611 20.5276C7.76564 17.8957 7.76564 15.1042 7.88611 12.4723C8.00505 9.85569 9.20976 8.51211 11.9722 8.38627C14.6057 8.2658 17.3949 8.2658 20.0284 8.38627ZM15.9999 19.8224C14.1652 19.8224 12.6773 18.3354 12.6773 16.4999C12.6781 14.6645 14.1652 13.1774 15.9999 13.1774C17.8354 13.1774 19.3232 14.6645 19.3232 16.4999C19.3232 18.3346 17.8354 19.8224 15.9999 19.8224ZM15.9999 11.3811C13.1738 11.3811 10.881 13.6731 10.881 16.4999C10.881 19.3267 13.173 21.6187 15.9999 21.6187C18.8275 21.6187 21.1188 19.3267 21.1188 16.4999C21.1188 13.6731 18.8275 11.3811 15.9999 11.3811ZM22.5176 11.1785C22.5176 11.8392 21.982 12.3756 21.3214 12.3756C20.6599 12.3756 20.1251 11.84 20.1251 11.1793C20.1251 10.5187 20.6599 9.98306 21.3214 9.98306C21.982 9.98306 22.5176 10.5187 22.5176 11.1785Z" fill="black"/>
</svg>
