<svg width="32" height="32" viewBox="0 0 32 32" fill="none" xmlns="http://www.w3.org/2000/svg">
<g id="social media icons">
<path id="Vector" d="M31.9978 16C31.9978 24.0807 26.0078 30.7612 18.2265 31.8453C17.4989 31.9462 16.7545 31.9989 15.9989 31.9989C15.1267 31.9989 14.2702 31.9294 13.4361 31.7948C5.81839 30.5684 0 23.963 0 16C0 7.16367 7.16368 0 16 0C24.8363 0 32 7.16367 32 16H31.9978Z" fill="black"/>
<path id="Vector_2" d="M18.2278 12.8475V16.333H22.5394L21.8567 21.028H18.2278V31.8453C17.5002 31.9462 16.7558 31.9989 16.0002 31.9989C15.128 31.9989 14.2715 31.9294 13.4374 31.7948V21.028H9.46094V16.333H13.4374V12.0684C13.4374 9.42264 15.582 7.2769 18.2289 7.2769V7.27915C18.2367 7.27915 18.2434 7.2769 18.2513 7.2769H22.5405V11.3375H19.7378C18.9049 11.3375 18.2289 12.0135 18.2289 12.8464L18.2278 12.8475Z" fill="white"/>
</g>
</svg>
