<svg width="32" height="32" viewBox="0 0 32 32" fill="none" xmlns="http://www.w3.org/2000/svg">
<path d="M16.0364 0H15.9636C7.14713 0 0 7.14712 0 15.9636V16.0364C0 24.8529 7.14713 32 15.9636 32H16.0364C24.8529 32 32 24.8529 32 16.0364V15.9636C32 7.14712 24.8529 0 16.0364 0Z" fill="black"/>
<path d="M20.9486 6.50945H11.0469C8.31135 6.50945 6.08594 8.73486 6.08594 11.4704V20.529C6.08594 23.2645 8.31135 25.4899 11.0469 25.4899H20.9486C23.6841 25.4899 25.9095 23.2645 25.9095 20.529V11.4704C25.9095 8.73486 23.6841 6.50945 20.9486 6.50945ZM7.836 11.4704C7.836 9.70014 9.27663 8.2595 11.0469 8.2595H20.9486C22.7188 8.2595 24.1594 9.70014 24.1594 11.4704V20.529C24.1594 22.2992 22.7188 23.7399 20.9486 23.7399H11.0469C9.27663 23.7399 7.836 22.2992 7.836 20.529V11.4704Z" fill="white"/>
<path d="M15.9973 20.613C18.5411 20.613 20.6118 18.5435 20.6118 15.9985C20.6118 13.4536 18.5423 11.384 15.9973 11.384C13.4524 11.384 11.3828 13.4536 11.3828 15.9985C11.3828 18.5435 13.4524 20.613 15.9973 20.613ZM15.9973 13.1352C17.577 13.1352 18.8618 14.42 18.8618 15.9996C18.8618 17.5793 17.577 18.8641 15.9973 18.8641C14.4177 18.8641 13.1329 17.5793 13.1329 15.9996C13.1329 14.42 14.4177 13.1352 15.9973 13.1352Z" fill="white"/>
<path d="M21.0402 12.1295C21.7252 12.1295 22.2835 11.5723 22.2835 10.8862C22.2835 10.2001 21.7263 9.64287 21.0402 9.64287C20.3541 9.64287 19.7969 10.2001 19.7969 10.8862C19.7969 11.5723 20.3541 12.1295 21.0402 12.1295Z" fill="white"/>
</svg>
