<svg width="32" height="32" viewBox="0 0 32 32" fill="none" xmlns="http://www.w3.org/2000/svg">
<g id="social media icons">
<path id="Vector" d="M16.0364 0H15.9636C7.14712 0 0 7.14712 0 15.9636V16.0364C0 24.8529 7.14712 32 15.9636 32H16.0364C24.8529 32 32 24.8529 32 16.0364V15.9636C32 7.14712 24.8529 0 16.0364 0Z" fill="black"/>
<path id="Vector_2" d="M6.05991 15.4535C6.10475 15.4311 6.14962 15.4098 6.19334 15.3896C6.95346 15.0376 7.72366 14.708 8.49275 14.3784C8.53423 14.3784 8.60372 14.3302 8.64296 14.3145C8.70238 14.2887 8.76181 14.264 8.82123 14.2382C8.93558 14.1889 9.04994 14.1407 9.16318 14.0914C9.39188 13.9938 9.61945 13.8963 9.84816 13.7988L11.217 13.2124C12.1296 12.8223 13.0434 12.431 13.9559 12.0408C14.8685 11.6507 15.7822 11.2594 16.6948 10.8693C17.6074 10.4791 18.5211 10.0879 19.4337 9.69772C20.3463 9.30757 21.26 8.91629 22.1726 8.52615C22.3755 8.4387 22.5953 8.30865 22.8128 8.27053C22.9955 8.23802 23.1737 8.17524 23.3576 8.14049C23.7063 8.07434 24.0908 8.04743 24.4249 8.19206C24.5404 8.24251 24.6469 8.31314 24.7355 8.4017C25.1592 8.821 25.0998 9.50937 25.0101 10.0991C24.3857 14.2091 23.7612 18.3202 23.1356 22.4302C23.0504 22.9941 22.9338 23.613 22.4887 23.9695C22.112 24.2711 21.5761 24.3047 21.1109 24.1769C20.6456 24.048 20.2353 23.7778 19.8328 23.5121C18.1635 22.4067 16.493 21.3013 14.8237 20.1958C14.4268 19.9335 13.9851 19.5904 13.9896 19.114C13.9918 18.827 14.1633 18.5714 14.3382 18.3438C15.789 16.4513 17.8821 15.1508 19.4393 13.3458C19.6591 13.0913 19.8317 12.6317 19.5301 12.4848C19.3508 12.3974 19.1444 12.5162 18.9808 12.6294C16.9224 14.0588 14.8652 15.4894 12.8068 16.9188C12.1353 17.3852 11.4312 17.865 10.6217 17.9794C9.89751 18.0825 9.16879 17.8807 8.46809 17.6744C7.88062 17.5018 7.29426 17.3247 6.71016 17.1419C6.39961 17.0455 6.07897 16.9412 5.83905 16.7226C5.59913 16.504 5.46125 16.1363 5.60588 15.8448C5.69669 15.6621 5.87271 15.5466 6.05769 15.4524L6.05991 15.4535Z" fill="white"/>
</g>
</svg>
