<svg width="16" height="16" viewBox="0 0 16 16" fill="none" xmlns="http://www.w3.org/2000/svg">
<g clip-path="url(#clip0_287_92880)">
<path d="M9.08203 5.58829L10.3927 4.27696C10.2376 4.12194 10.1232 3.93107 10.0595 3.72127C9.99583 3.51146 9.98487 3.28918 10.0276 3.07413C10.0703 2.85907 10.1655 2.65787 10.3045 2.48836C10.4436 2.31884 10.6223 2.18623 10.8249 2.10228C11.0274 2.01833 11.2475 1.98562 11.4657 2.00706C11.684 2.0285 11.8935 2.10342 12.0758 2.22519C12.2582 2.34696 12.4077 2.51182 12.5111 2.70516C12.6145 2.8985 12.6686 3.11436 12.6687 3.33362C12.888 3.33347 13.104 3.38741 13.2975 3.49068C13.4909 3.59395 13.656 3.74335 13.7779 3.92564C13.8998 4.10794 13.9749 4.3175 13.9965 4.53575C14.0181 4.754 13.9855 4.97421 13.9016 5.17685C13.8178 5.3795 13.6852 5.55833 13.5157 5.69749C13.3462 5.83665 13.145 5.93185 12.9299 5.97465C12.7148 6.01745 12.4924 6.00653 12.2825 5.94286C12.0727 5.87919 11.8818 5.76473 11.7267 5.60962L10.5134 6.82362" stroke="#808080" stroke-linecap="round" stroke-linejoin="round"/>
<path d="M3.93845 12.3976C5.76045 14.2203 7.87178 15.0643 8.65178 14.2836C9.43312 13.5023 8.58912 11.3916 6.76645 9.56959C4.94445 7.74692 2.83312 6.90292 2.05312 7.68359C1.27178 8.46492 2.11578 10.5756 3.93845 12.3976Z" stroke="#808080" stroke-linecap="round" stroke-linejoin="round"/>
<path d="M5 10.6667L5.66667 11.3334" stroke="#808080" stroke-linecap="round" stroke-linejoin="round"/>
<path d="M8.65011 14.2833C11.2534 11.6793 11.8868 8.09131 10.0641 6.26931C8.24211 4.44665 4.65411 5.07998 2.05078 7.68331" stroke="#808080" stroke-linecap="round" stroke-linejoin="round"/>
</g>
<defs>
<clipPath id="clip0_287_92880">
<rect width="16" height="16" fill="white"/>
</clipPath>
</defs>
</svg>
