<svg width="16" height="16" viewBox="0 0 16 16" fill="none" xmlns="http://www.w3.org/2000/svg">
<g clip-path="url(#clip0_287_92340)">
<path d="M6.66797 8.66666C6.66797 9.02028 6.80844 9.35942 7.05849 9.60947C7.30854 9.85952 7.64768 9.99999 8.0013 9.99999C8.35492 9.99999 8.69406 9.85952 8.94411 9.60947C9.19416 9.35942 9.33464 9.02028 9.33464 8.66666C9.33464 8.31304 9.19416 7.9739 8.94411 7.72385C8.69406 7.4738 8.35492 7.33333 8.0013 7.33333C7.64768 7.33333 7.30854 7.4738 7.05849 7.72385C6.80844 7.9739 6.66797 8.31304 6.66797 8.66666Z" stroke="#808080" stroke-linecap="round" stroke-linejoin="round"/>
<path d="M5.33203 14V13.3333C5.33203 12.9797 5.47251 12.6406 5.72256 12.3905C5.9726 12.1405 6.31174 12 6.66536 12H9.33203C9.68565 12 10.0248 12.1405 10.2748 12.3905C10.5249 12.6406 10.6654 12.9797 10.6654 13.3333V14" stroke="#808080" stroke-linecap="round" stroke-linejoin="round"/>
<path d="M10 3.33333C10 3.68696 10.1405 4.02609 10.3905 4.27614C10.6406 4.52619 10.9797 4.66667 11.3333 4.66667C11.687 4.66667 12.0261 4.52619 12.2761 4.27614C12.5262 4.02609 12.6667 3.68696 12.6667 3.33333C12.6667 2.97971 12.5262 2.64057 12.2761 2.39052C12.0261 2.14048 11.687 2 11.3333 2C10.9797 2 10.6406 2.14048 10.3905 2.39052C10.1405 2.64057 10 2.97971 10 3.33333Z" stroke="#808080" stroke-linecap="round" stroke-linejoin="round"/>
<path d="M11.332 6.66667H12.6654C13.019 6.66667 13.3581 6.80715 13.6082 7.0572C13.8582 7.30724 13.9987 7.64638 13.9987 8.00001V8.66667" stroke="#808080" stroke-linecap="round" stroke-linejoin="round"/>
<path d="M3.33203 3.33333C3.33203 3.68696 3.47251 4.02609 3.72256 4.27614C3.9726 4.52619 4.31174 4.66667 4.66536 4.66667C5.01899 4.66667 5.35812 4.52619 5.60817 4.27614C5.85822 4.02609 5.9987 3.68696 5.9987 3.33333C5.9987 2.97971 5.85822 2.64057 5.60817 2.39052C5.35812 2.14048 5.01899 2 4.66536 2C4.31174 2 3.9726 2.14048 3.72256 2.39052C3.47251 2.64057 3.33203 2.97971 3.33203 3.33333Z" stroke="#808080" stroke-linecap="round" stroke-linejoin="round"/>
<path d="M2 8.66667V8.00001C2 7.64638 2.14048 7.30724 2.39052 7.0572C2.64057 6.80715 2.97971 6.66667 3.33333 6.66667H4.66667" stroke="#808080" stroke-linecap="round" stroke-linejoin="round"/>
</g>
<defs>
<clipPath id="clip0_287_92340">
<rect width="16" height="16" fill="white"/>
</clipPath>
</defs>
</svg>
