<svg width="22" height="20" viewBox="0 0 22 20" fill="none" xmlns="http://www.w3.org/2000/svg">
<path d="M5.9801 1.07352C6.86517 0.922722 7.77279 0.972468 8.63607 1.21909C9.49935 1.46572 10.2963 1.90294 10.9681 2.49852L11.0051 2.53152L11.0391 2.50152C11.6803 1.93882 12.4341 1.51932 13.2503 1.27101C14.0664 1.02269 14.9262 0.951278 15.7721 1.06152L16.0181 1.09752C17.0844 1.28163 18.0811 1.75068 18.9026 2.45499C19.7241 3.15931 20.3398 4.07267 20.6845 5.09836C21.0293 6.12405 21.0903 7.22388 20.861 8.28139C20.6317 9.3389 20.1207 10.3147 19.3821 11.1055L19.2021 11.2905L19.1541 11.3315L11.7041 18.7105C11.5322 18.8807 11.3044 18.9828 11.063 18.9978C10.8216 19.0129 10.5829 18.94 10.3911 18.7925L10.2971 18.7105L2.8041 11.2885C2.01032 10.5162 1.4458 9.5392 1.17306 8.46579C0.900322 7.39238 0.930004 6.26442 1.25882 5.20684C1.58764 4.14926 2.20276 3.20332 3.03607 2.4738C3.86937 1.74427 4.88833 1.25962 5.9801 1.07352Z" stroke="white" stroke-width="1.5" stroke-linecap="round" stroke-linejoin="round"/>
</svg>
