<svg width="16" height="16" viewBox="0 0 16 16" fill="none" xmlns="http://www.w3.org/2000/svg">
<g clip-path="url(#clip0_287_92492)">
<path d="M2 4.66669V12M2 9.33335H14M14 12V6.66669C14 6.31307 13.8595 5.97393 13.6095 5.72388C13.3594 5.47383 13.0203 5.33335 12.6667 5.33335H7.33333V9.33335" stroke="#808080" stroke-linecap="round" stroke-linejoin="round"/>
<path d="M4 6.66667C4 6.84348 4.07024 7.01305 4.19526 7.13807C4.32029 7.2631 4.48986 7.33333 4.66667 7.33333C4.84348 7.33333 5.01305 7.2631 5.13807 7.13807C5.2631 7.01305 5.33333 6.84348 5.33333 6.66667C5.33333 6.48986 5.2631 6.32029 5.13807 6.19526C5.01305 6.07024 4.84348 6 4.66667 6C4.48986 6 4.32029 6.07024 4.19526 6.19526C4.07024 6.32029 4 6.48986 4 6.66667Z" stroke="#808080" stroke-linecap="round" stroke-linejoin="round"/>
</g>
<defs>
<clipPath id="clip0_287_92492">
<rect width="16" height="16" fill="white"/>
</clipPath>
</defs>
</svg>
