<svg width="16" height="16" viewBox="0 0 16 16" fill="none" xmlns="http://www.w3.org/2000/svg">
<path d="M11.8876 7.05556C11.5765 7.05556 11.282 7.11667 11.0043 7.21111L9.36536 4H7.44314V4.83333H8.85425L9.34314 5.78889L7.9987 8.79444L7.01536 6.47222C7.16536 6.41667 7.2987 6.26667 7.2987 6.08333C7.2987 5.85556 7.11536 5.66667 6.88759 5.66667H5.77648C5.54314 5.66667 5.35425 5.85556 5.35425 6.08333C5.35425 6.31111 5.54314 6.5 5.77648 6.5H6.11536L7.36536 9.41667H6.84314C6.64314 8.08333 5.4987 7.05556 4.10981 7.05556C2.57648 7.05556 1.33203 8.3 1.33203 9.83333C1.33203 11.3667 2.57648 12.6111 4.10981 12.6111C5.4987 12.6111 6.64314 11.5833 6.84314 10.25H8.27648L9.82648 6.73889L10.2654 7.58889C9.90838 7.84438 9.61738 8.18121 9.41643 8.57151C9.21549 8.9618 9.11038 9.39435 9.10981 9.83333C9.10981 11.3667 10.3543 12.6111 11.8876 12.6111C13.4209 12.6111 14.6654 11.3667 14.6654 9.83333C14.6654 8.3 13.4209 7.05556 11.8876 7.05556ZM4.10981 11.7778C3.03759 11.7778 2.16536 10.9056 2.16536 9.83333C2.16536 8.76111 3.03759 7.88889 4.10981 7.88889C5.03759 7.88889 5.81536 8.54444 6.00425 9.41667H3.55425V10.25H6.00425C5.9099 10.6824 5.67064 11.0697 5.3261 11.3475C4.98156 11.6254 4.55243 11.7772 4.10981 11.7778ZM11.8876 11.7778C10.8154 11.7778 9.94314 10.9056 9.94314 9.83333C9.94314 9.23333 10.2209 8.70556 10.6487 8.35L11.6487 10.3056L12.382 9.90556L11.3876 7.96111C11.5487 7.92222 11.7154 7.88889 11.8876 7.88889C12.9598 7.88889 13.832 8.76111 13.832 9.83333C13.832 10.9056 12.9598 11.7778 11.8876 11.7778Z" fill="#808080"/>
</svg>
