<svg width="16" height="16" viewBox="0 0 16 16" fill="none" xmlns="http://www.w3.org/2000/svg">
<g clip-path="url(#clip0_287_92476)">
<path d="M5.23933 4H3.35C2.99196 4 2.64858 4.14223 2.39541 4.39541C2.14223 4.64858 2 4.99196 2 5.35V7.23933C2 7.59733 2.142 7.94067 2.39533 8.194L6.47267 12.2713C6.59803 12.3967 6.74686 12.4962 6.91066 12.564C7.07447 12.6319 7.25003 12.6668 7.42733 12.6668C7.60464 12.6668 7.7802 12.6319 7.944 12.564C8.10781 12.4962 8.25664 12.3967 8.382 12.2713L10.2713 10.382C10.3967 10.2566 10.4962 10.1078 10.564 9.944C10.6319 9.7802 10.6668 9.60464 10.6668 9.42733C10.6668 9.25003 10.6319 9.07447 10.564 8.91066C10.4962 8.74686 10.3967 8.59803 10.2713 8.47267L6.19333 4.39533C5.94029 4.14233 5.59716 4.00014 5.23933 4Z" stroke="#808080" stroke-linecap="round" stroke-linejoin="round"/>
<path d="M11.7147 12.2712L13.604 10.3818C13.7294 10.2565 13.8289 10.1077 13.8967 9.94385C13.9646 9.78005 13.9995 9.60448 13.9995 9.42718C13.9995 9.24988 13.9646 9.07432 13.8967 8.91051C13.8289 8.74671 13.7294 8.59788 13.604 8.47252L8.85938 3.72852" stroke="#808080" stroke-linecap="round" stroke-linejoin="round"/>
<path d="M3.99885 6H3.99219" stroke="#808080" stroke-linecap="round" stroke-linejoin="round"/>
</g>
<defs>
<clipPath id="clip0_287_92476">
<rect width="16" height="16" fill="white"/>
</clipPath>
</defs>
</svg>
