<svg width="200" height="117" viewBox="0 0 200 117" fill="none" xmlns="http://www.w3.org/2000/svg">
<path d="M14.7665 108.5C15.9583 104.613 17.1146 100.705 17.9206 96.7172C18.3277 94.7043 18.5774 92.6643 18.9822 90.6515C19.3799 88.6729 19.8568 86.7109 20.2675 84.7347C20.4699 83.7625 20.6652 82.7892 20.9102 81.8276C21.1599 80.8519 21.5149 79.9164 21.8085 78.9548C22.3943 77.0365 22.7576 75.0627 23.3766 73.1538C23.9814 71.2898 24.3803 69.3714 24.7602 67.4519C24.9495 66.4987 25.1472 65.5454 25.4253 64.6134C25.6893 63.7299 25.9757 62.7979 26.61 62.1045C26.8905 61.7973 27.1983 61.5174 27.4728 61.2044C27.7924 60.8394 28.0823 60.4495 28.3865 60.0704C28.9049 59.4242 29.4896 58.8561 30.1535 58.3599C31.4862 57.3653 33.052 56.5845 34.7054 56.3164C36.4771 56.0293 38.1779 56.6708 39.7863 57.3582C41.5533 58.1142 43.2304 59.058 44.8944 60.0137C45.659 60.4519 46.4164 60.8878 47.1159 61.4264C47.7929 61.9462 48.4225 62.5273 49.0225 63.1333C50.1978 64.3205 51.2582 65.6127 52.3648 66.8613C53.5862 68.2398 54.9011 69.5333 56.2953 70.7381C57.0007 71.3477 57.7274 71.9336 58.4813 72.4817C59.2672 73.0546 60.053 73.6133 60.7679 74.276C62.0828 75.4962 62.9243 77.0767 64.1031 78.4115C65.302 79.7687 66.6761 80.9535 67.9602 82.2269C68.6893 82.9498 69.4171 83.6739 70.1438 84.398C70.8172 85.069 71.4587 85.8202 72.2091 86.4073C72.5488 86.6719 72.905 86.9129 73.2103 87.2188C73.5275 87.5354 73.8021 87.8909 74.1205 88.2063C74.7276 88.8099 75.4661 89.3297 76.1455 89.8518C76.8095 90.3633 77.503 90.818 78.2924 91.1134C78.5421 91.2067 78.7694 90.8263 78.5587 90.6562C78.4711 90.5853 78.4404 90.5322 78.4179 90.4212C78.3492 90.0762 77.8202 90.2227 77.8888 90.5664C77.9279 90.7625 78.0143 90.9161 78.1705 91.0425C78.2593 90.8901 78.348 90.7377 78.4368 90.5853C77.5858 90.2664 76.8461 89.7219 76.1419 89.1584C75.4614 88.6139 74.7454 88.1024 74.1631 87.4515C73.8684 87.1219 73.5832 86.7888 73.2388 86.5101C72.8943 86.2313 72.5085 85.9797 72.1819 85.669C71.4386 84.9615 70.732 84.2114 70.0042 83.4873C68.6419 82.1347 67.2501 80.8153 65.8784 79.4722C65.218 78.8249 64.5753 78.1587 63.9942 77.4381C63.4368 76.7471 62.9752 75.9852 62.4284 75.2847C61.8733 74.5724 61.2413 73.9358 60.5489 73.3558C59.8246 72.7498 59.0376 72.2301 58.2872 71.6583C56.7309 70.4736 55.2704 69.1423 53.9129 67.7354C51.5766 65.3139 49.6273 62.4683 46.8224 60.5381C46.0696 60.0208 45.2577 59.5872 44.4636 59.136C43.6103 58.6517 42.751 58.1768 41.8752 57.7351C41.0148 57.3004 40.1378 56.8976 39.2383 56.5467C38.3933 56.2183 37.5032 55.8841 36.6026 55.7518C34.9811 55.5131 33.3337 55.9691 31.8803 56.6696C30.3748 57.3949 29.0055 58.4178 27.9628 59.7254C27.6717 60.0904 27.3924 60.4637 27.0846 60.8157C26.8006 61.1406 26.4798 61.43 26.1911 61.7513C25.5946 62.4128 25.2916 63.242 25.0194 64.0783C24.4087 65.9482 24.1447 67.9103 23.7092 69.8227C23.2595 71.7977 22.5766 73.7019 22.0937 75.6663C21.8511 76.6573 21.6238 77.6519 21.3339 78.63C21.0474 79.5951 20.6829 80.5318 20.4273 81.5075C19.9184 83.4495 19.5645 85.4351 19.1254 87.3936C18.6863 89.3521 18.2377 91.4441 17.9336 93.4971C17.3312 97.5629 16.2707 101.548 15.1061 105.484C14.8233 106.442 14.5321 107.398 14.2398 108.352C14.1368 108.69 14.6659 108.834 14.7688 108.498L14.7665 108.5Z" fill="black"/>
<path d="M139.899 61.5446C139.321 60.6173 138.614 59.7892 137.759 59.1041C137.372 58.7934 136.963 58.5206 136.548 58.2489C136.029 57.9087 135.592 57.4716 135.113 57.0806C133.348 55.6419 131.277 54.6083 129.101 53.9539C127.046 53.3361 124.589 52.5955 122.464 53.2782C120.488 53.9137 118.942 55.7069 117.861 57.3996C116.591 59.3876 115.843 61.6036 115.188 63.8539C114.831 65.0836 114.416 66.2896 114.028 67.5086C113.648 68.7029 113.4 69.9361 113.218 71.1752C113.039 72.3942 112.938 73.6204 112.801 74.8441C112.649 76.1955 112.338 77.4972 112.09 78.8308C111.842 80.1574 111.671 81.4969 111.435 82.8258C111.213 84.0826 110.848 85.3087 110.639 86.568C110.603 86.7829 110.571 86.992 110.566 87.2094C110.563 87.3818 110.623 87.6618 110.54 87.8212C110.374 88.1414 109.613 87.8413 109.307 87.8035C108.313 87.683 107.263 87.7823 106.263 87.7929C104.472 87.8118 102.67 87.8555 100.889 88.0445C99.9099 88.1484 98.956 88.3268 97.9689 88.3563C96.6872 88.3941 95.493 88.6091 94.2361 88.8442C93.81 88.9233 93.2052 89.1277 92.8431 88.7922C92.4632 88.439 92.243 87.8165 92.0537 87.3487C91.6572 86.3648 91.2903 85.3135 91.0772 84.274C90.8299 83.0715 90.5447 81.9434 90.0428 80.8165C89.5339 79.6731 88.9351 78.571 88.3812 77.4488C87.2473 75.156 86.1088 72.8762 84.7063 70.7322C82.0954 66.7408 78.8786 62.9951 75.1434 60.0089C74.1883 59.2447 73.1752 58.5548 72.0709 58.0256C70.9561 57.4917 69.7844 57.0948 68.6233 56.6743C67.4658 56.255 66.3379 55.8073 65.1094 55.6384C63.9756 55.4824 62.8666 55.5616 61.7695 55.8923C60.715 56.2101 59.6332 56.581 58.7527 57.2567C57.9467 57.8756 57.3029 58.6659 56.6839 59.4632C55.9903 60.3574 55.1796 61.1772 54.5346 62.1056C53.873 63.0589 53.4587 64.1575 52.8208 65.1261C52.5427 65.549 52.2835 65.9718 52.0598 66.4254C51.829 66.8932 51.6148 67.1755 51.0479 67.1236C50.6964 67.0905 50.6988 67.6386 51.0479 67.6705C51.9793 67.7567 52.3001 67.1413 52.6729 66.4148C52.9368 65.8998 53.2871 65.4391 53.5866 64.9465C53.9002 64.4303 54.1547 63.8799 54.4375 63.346C55.0186 62.2498 55.8589 61.4158 56.6129 60.4448C57.2484 59.625 57.865 58.7805 58.6308 58.0729C59.5019 57.2685 60.5339 56.868 61.6464 56.5042C62.8134 56.1227 63.9827 56.0057 65.1994 56.1994C66.4504 56.3979 67.6055 56.8881 68.789 57.3134C70.0045 57.7504 71.2295 58.1745 72.368 58.7899C74.4889 59.9357 76.3021 61.6402 77.9945 63.333C79.7343 65.0729 81.3415 66.9464 82.7949 68.9309C84.2542 70.9236 85.5336 73.0227 86.6591 75.2198C87.2343 76.3431 87.7823 77.4795 88.3468 78.6076C88.9173 79.7486 89.5351 80.8732 89.9683 82.0757C90.373 83.2002 90.489 84.3886 90.8476 85.5249C91.1483 86.4794 91.4489 87.4492 91.9057 88.3445C92.2986 89.1147 92.7448 89.6014 93.6573 89.4903C94.9427 89.3332 96.1723 88.9564 97.4754 88.9174C99.3915 88.8596 101.276 88.5205 103.193 88.4296C105.059 88.341 106.944 88.2878 108.812 88.3245C109.421 88.3363 110.547 88.8324 110.971 88.1992C111.174 87.898 111.105 87.4976 111.117 87.1586C111.14 86.5254 111.33 85.871 111.473 85.2556C112.067 82.7029 112.356 80.0995 112.924 77.5421C113.473 75.0686 113.487 72.5159 113.967 70.0294C114.206 68.7867 114.588 67.609 114.987 66.4124C115.395 65.191 115.721 63.9437 116.101 62.714C116.773 60.5346 117.683 58.3954 119.103 56.5893C119.771 55.7399 120.554 54.9627 121.462 54.3697C122.48 53.7058 123.63 53.4991 124.83 53.5901C125.982 53.6775 127.115 53.9917 128.228 54.2799C129.381 54.5788 130.507 54.9804 131.58 55.4954C132.652 56.0104 133.677 56.6341 134.609 57.3748C135.035 57.7138 135.425 58.0942 135.855 58.4273C136.289 58.7639 136.773 59.0309 137.211 59.3663C138.1 60.0456 138.836 60.8748 139.427 61.8233C139.613 62.1222 140.087 61.847 139.9 61.5469L139.899 61.5446Z" fill="black"/>
<path d="M14.1949 109.066C12.9474 108.943 11.7367 109.441 10.6644 110.033C9.61107 110.614 8.49027 111.127 7.50557 111.822C6.86646 112.272 5.75513 113.113 5.89952 114.019C6.02497 114.808 7.11737 114.96 7.74346 115.044C9.1992 115.239 10.6774 115.095 12.1391 115.084C13.5676 115.074 14.9677 114.854 16.3738 114.627C17.7751 114.4 19.1468 114.011 20.5635 114.311C21.4854 114.505 22.6015 114.767 23.4962 114.335C24.4218 113.889 24.7567 112.898 24.8005 111.94C24.8253 111.405 24.7839 110.868 24.8171 110.333C24.8644 109.556 25.0372 108.794 25.2301 108.042C25.5793 106.684 25.9225 105.366 26.0456 103.965C26.1095 103.238 26.1545 102.505 26.2846 101.786C26.4101 101.09 26.6279 100.419 26.8338 99.7447C27.2622 98.3437 27.48 96.8825 27.7617 95.4461C28.0599 93.9271 28.3665 92.4092 28.6943 90.8972C29.0079 89.4502 29.1618 87.9724 29.492 86.529C29.8222 85.0855 30.208 83.7968 30.4211 82.3816C30.6661 80.7551 30.9537 79.1344 31.3359 77.5338C31.7218 75.9191 32.2413 74.3409 32.6047 72.7203C32.9692 71.0937 33.0663 69.4364 33.3716 67.8004C33.6841 66.1289 34.1232 64.4858 34.5575 62.8427C34.3906 62.864 34.2238 62.8864 34.0569 62.9077C34.735 64.1078 34.4498 65.5915 35.1398 66.807C35.4901 67.4224 35.9351 67.974 36.2784 68.5942C36.6453 69.2557 37.0701 69.8794 37.5104 70.4936C38.3957 71.728 39.1993 72.9967 39.9781 74.2996C40.7474 75.5883 41.5427 76.87 42.5416 77.9969C43.679 79.2797 44.8862 80.4527 45.8803 81.8572C46.794 83.1483 47.7704 84.3578 48.8202 85.5426C49.9091 86.7723 51.0062 87.9949 51.9542 89.3391C52.746 90.4637 53.7236 91.4028 54.7888 92.2674C55.8977 93.1675 57.0647 93.9956 58.1346 94.9441C59.4057 96.0722 60.6413 97.2393 61.9053 98.3756C63.1646 99.5061 64.4618 100.592 65.7281 101.715C66.9413 102.791 68.2313 103.672 69.6066 104.526C70.9321 105.35 72.2435 106.161 73.6649 106.813C74.9916 107.423 76.3633 107.929 77.7635 108.342C80.6631 109.195 83.674 109.646 86.6884 109.831C88.2803 109.929 89.8733 109.981 91.4616 109.822C93.1991 109.648 94.9057 109.588 96.6514 109.604C100.152 109.636 103.656 109.68 107.156 109.666C108.041 109.662 108.926 109.652 109.81 109.63C110.163 109.622 110.164 109.075 109.81 109.084C106.337 109.163 102.865 109.085 99.3913 109.071C97.6692 109.063 95.9448 109.027 94.224 109.055C92.554 109.084 90.9077 109.402 89.2342 109.379C83.2089 109.295 77.0226 108.256 71.7476 105.208C70.3948 104.426 69.0337 103.59 67.7614 102.682C66.3968 101.709 65.1932 100.497 63.9173 99.4116C61.4935 97.3491 59.2649 95.0587 56.7463 93.1085C55.6362 92.2497 54.5047 91.4051 53.5259 90.3952C52.488 89.3238 51.6962 88.0268 50.7281 86.8892C49.7102 85.6938 48.6309 84.5516 47.6414 83.3325C46.6307 82.0899 45.8117 80.7161 44.7264 79.5301C43.6245 78.3264 42.4895 77.1972 41.5794 75.834C40.7391 74.576 40.0183 73.2436 39.2017 71.9714C38.391 70.7098 37.4299 69.5534 36.7068 68.2363C36.3671 67.6185 35.9115 67.0763 35.573 66.4597C35.2357 65.8419 35.1528 65.1591 35.057 64.4728C34.967 63.8303 34.8522 63.203 34.5291 62.6313C34.4131 62.4269 34.0877 62.4706 34.0285 62.6963C33.6699 64.0535 33.3089 65.4096 33.0177 66.7834C32.7313 68.1323 32.5988 69.4848 32.4011 70.8456C32.0035 73.579 31.0259 76.1884 30.4743 78.8911C30.2033 80.2235 30.0116 81.5666 29.7891 82.9061C29.5713 84.2137 29.1464 85.4647 28.8813 86.7593C28.6103 88.0847 28.4517 89.4277 28.1653 90.7507C27.8658 92.1316 27.5853 93.5172 27.3108 94.904C27.0433 96.26 26.8456 97.6503 26.4847 98.9851C26.1521 100.212 25.7544 101.378 25.6148 102.651C25.4633 104.036 25.3639 105.378 25.01 106.733C24.6928 107.948 24.3271 109.163 24.2644 110.425C24.2135 111.453 24.4786 112.722 23.6761 113.534C22.8855 114.337 21.5458 113.96 20.5812 113.755C19.4083 113.507 18.3076 113.744 17.149 113.949C15.8151 114.187 14.4624 114.424 13.1084 114.508C11.5947 114.602 10.0099 114.663 8.49619 114.57C7.93046 114.536 7.22271 114.505 6.71024 114.223C6.11492 113.895 6.69722 113.275 7.01322 112.946C7.90797 112.013 9.15304 111.497 10.2703 110.886C11.4929 110.219 12.7439 109.472 14.1949 109.615C14.5452 109.649 14.5428 109.102 14.1949 109.068V109.066Z" fill="black"/>
<path d="M45.2997 80.6948C44.4736 83.8901 43.2865 86.9755 42.3586 90.1412C42.1314 90.9173 41.9361 91.7028 41.6769 92.4694C41.4224 93.2195 41.1289 93.9554 40.8378 94.6913C40.6886 95.0693 40.5443 95.4473 40.3691 95.8147C40.1916 96.1856 39.9939 96.5482 39.8199 96.9203C39.5051 97.596 39.369 98.3461 38.9962 98.9946C38.6092 99.6679 38.2861 100.351 38.0008 101.074C37.7144 101.8 37.4008 102.503 37.0682 103.209C36.4019 104.621 35.9072 106.112 35.3131 107.554C35.2065 107.813 35.1012 108.075 34.9544 108.315C34.8018 108.561 34.6313 108.622 34.339 108.59C33.6455 108.514 32.9626 108.281 32.3033 108.067C31.5411 107.817 30.7624 107.772 29.9706 107.676C29.1599 107.576 28.3539 107.37 27.5515 107.217C27.1526 107.142 26.7526 107.065 26.3537 106.988C26.0519 106.93 25.7572 106.898 25.4507 106.946C24.943 107.025 24.5027 107.334 24.2494 107.779C23.9713 108.27 23.9464 108.825 23.9808 109.373C24.0198 109.99 24.1098 110.618 24.3346 111.197C24.5595 111.774 24.9015 112.271 25.4057 112.637C25.9454 113.03 26.5904 113.264 27.226 113.451C27.884 113.643 28.5527 113.805 29.2131 113.989C29.9422 114.192 30.6795 114.366 31.4228 114.504C32.1566 114.64 32.8998 114.745 33.6455 114.789C34.4325 114.835 35.2113 114.776 35.9888 114.94C36.7581 115.103 37.5831 115.198 38.3595 115.033C38.7311 114.954 39.0873 114.809 39.4661 114.763C39.8483 114.717 40.2389 114.735 40.6224 114.75C41.3183 114.779 42.0142 114.84 42.6829 114.602C43.2486 114.4 43.7433 114.057 44.1824 113.651C44.6452 113.225 45.0464 112.738 45.45 112.258C45.9068 111.712 46.3424 111.16 46.7317 110.564C47.1377 109.941 47.507 109.296 47.8857 108.658C48.2739 108.005 48.6905 107.377 49.1201 106.751C50.0007 105.467 50.7463 104.098 51.4221 102.698C52.1215 101.248 52.7725 99.7695 53.4175 98.2953C53.7394 97.5582 54.0507 96.8152 54.3229 96.058C54.5928 95.3091 54.7348 94.5248 54.9975 93.7735C55.2177 93.1451 55.6816 92.6454 55.5727 91.939C55.5195 91.5918 54.9916 91.7394 55.0437 92.0843C55.0946 92.4115 54.8957 92.7293 54.749 93.0057C54.588 93.3081 54.4637 93.6152 54.3655 93.9436C54.1442 94.6842 53.9738 95.4296 53.7039 96.1561C53.1477 97.6539 52.4565 99.0985 51.8067 100.559C51.1854 101.956 50.5309 103.342 49.7722 104.672C49.0302 105.97 48.1319 107.165 47.3697 108.452C46.998 109.079 46.6335 109.712 46.2347 110.323C45.8524 110.906 45.4228 111.44 44.9754 111.974C44.238 112.853 43.4285 113.866 42.2616 114.159C41.581 114.331 40.8508 114.198 40.1584 114.19C39.7785 114.185 39.3974 114.204 39.027 114.29C38.6719 114.373 38.3251 114.51 37.9606 114.547C37.557 114.587 37.144 114.57 36.7428 114.52C36.3557 114.47 35.9806 114.365 35.5935 114.315C34.8586 114.221 34.113 114.281 33.3756 114.222C31.9021 114.105 30.444 113.777 29.0273 113.367C28.3965 113.184 27.7527 113.047 27.1266 112.848C26.5242 112.657 25.891 112.404 25.4353 111.95C25.0152 111.531 24.7938 110.963 24.666 110.394C24.5441 109.85 24.4577 109.226 24.5264 108.67C24.5832 108.22 24.8021 107.772 25.2306 107.574C25.7939 107.312 26.4887 107.57 27.0591 107.678C27.8521 107.829 28.6427 107.996 29.4368 108.143C30.1967 108.284 30.9801 108.271 31.7305 108.466C32.0915 108.56 32.4394 108.695 32.7957 108.805C33.12 108.905 33.4525 108.962 33.7839 109.037C34.3627 109.17 34.9639 109.243 35.3486 108.706C35.6776 108.246 35.8634 107.654 36.0741 107.135C36.3711 106.405 36.6374 105.664 36.9238 104.93C37.2138 104.187 37.5582 103.479 37.892 102.756C38.2044 102.08 38.4506 101.377 38.7394 100.691C38.8873 100.339 39.0483 99.9916 39.2365 99.6584C39.4152 99.3395 39.601 99.0359 39.7395 98.6957C39.8779 98.3555 39.9821 98 40.1063 97.6527C40.2342 97.2948 40.4046 96.9593 40.575 96.6215C40.9277 95.9234 41.2165 95.2063 41.5041 94.4799C41.7893 93.757 42.071 93.0317 42.3089 92.291C42.5527 91.5315 42.7433 90.7554 42.9717 89.9924C43.2013 89.2234 43.4463 88.4579 43.6948 87.6948C44.1931 86.1699 44.7126 84.6508 45.1813 83.1164C45.4109 82.3627 45.6287 81.6044 45.8252 80.8401C45.9127 80.4987 45.3849 80.3534 45.2961 80.6948H45.2997Z" fill="black"/>
<path d="M63.4206 74.5784C64.4017 73.8094 65.1545 72.836 65.7971 71.7765C66.1131 71.2567 66.409 70.7252 66.7203 70.2019C67.0659 69.6207 67.4327 69.0537 67.7381 68.4501C67.9133 68.1052 68.0482 67.7402 68.2352 67.4023C68.4257 67.0574 68.6577 66.7361 68.898 66.4243C69.0873 66.1797 68.6695 65.8584 68.4672 66.0923C68.047 66.579 68.131 67.1862 68.1322 67.7862C68.1334 68.5387 68.1121 69.2923 68.1145 70.0448C68.118 71.4705 68.3547 72.8419 68.6648 74.2311C68.8175 74.9138 68.9678 75.5966 69.1039 76.2817C69.24 76.9668 69.4649 77.6614 69.6945 78.3359C69.9217 79.0021 70.1229 79.6612 70.2602 80.3523C70.3963 81.0386 70.4993 81.7319 70.6508 82.4159C70.8176 83.1742 70.9324 83.9527 71.2153 84.6803C71.471 85.3371 71.9846 85.91 72.0994 86.6152C72.155 86.9625 72.6841 86.8148 72.6284 86.4699C72.5278 85.8474 72.129 85.3371 71.8556 84.7855C71.5621 84.1948 71.4414 83.5286 71.3112 82.8872C71.181 82.2458 71.0402 81.5737 70.9218 80.9134C70.8034 80.2519 70.6815 79.588 70.4803 78.9466C70.2709 78.2804 70.0211 77.6283 69.8318 76.955C69.6507 76.3101 69.543 75.6486 69.3986 74.9953C69.1074 73.6759 68.7642 72.3541 68.6849 71.0004C68.6388 70.2019 68.6672 69.3974 68.6766 68.5989C68.6814 68.1831 68.6849 67.7673 68.6778 67.3515C68.6731 67.048 68.6447 66.7243 68.8565 66.4786C68.7133 66.3676 68.5689 66.2577 68.4257 66.1467C68.2245 66.4077 68.0304 66.6735 67.86 66.9558C67.6813 67.2535 67.5523 67.5712 67.4055 67.8843C67.1215 68.4926 66.77 69.0632 66.4208 69.6349C65.8007 70.6531 65.2586 71.7268 64.5331 72.6777C64.0999 73.2447 63.5946 73.7503 63.0324 74.1909C62.7554 74.4083 63.146 74.7933 63.4206 74.5784Z" fill="black"/>
<path d="M121.874 88.6717C123.093 84.6531 124.358 80.6452 125.39 76.5723C125.912 74.5122 126.352 72.4379 126.75 70.3519C126.945 69.3266 127.144 68.3012 127.384 67.2854C127.523 66.6995 127.678 66.1242 127.782 65.5312C127.896 64.8898 128.011 64.2449 128.188 63.6176C128.264 63.3495 128.348 63.0778 128.479 62.8297C128.529 62.7352 128.577 62.6549 128.638 62.5899C128.698 62.525 128.698 62.5214 128.779 62.5061C128.666 62.4423 128.554 62.3785 128.441 62.3147C128.83 63.7842 129.226 65.2548 129.755 66.6818C130.283 68.1052 130.98 69.4459 131.762 70.7464C132.545 72.0458 133.379 73.3121 134.139 74.6244C134.499 75.2446 134.907 75.8446 135.164 76.5168C135.293 76.8558 135.417 77.1913 135.573 77.5196C135.734 77.8587 135.909 78.1929 136.041 78.545C136.325 79.3057 136.306 80.1148 136.357 80.9133C136.382 81.3091 136.431 81.7 136.521 82.0875C136.612 82.4797 136.708 82.8553 136.706 83.2605C136.705 83.6125 137.253 83.6125 137.254 83.2605C137.256 82.5505 136.989 81.8867 136.925 81.185C136.86 80.4668 136.882 79.7404 136.746 79.0281C136.609 78.3122 136.24 77.6815 135.944 77.0235C135.789 76.6774 135.68 76.3148 135.524 75.9687C135.374 75.6403 135.196 75.3261 135.01 75.0154C134.241 73.7255 133.457 72.4486 132.665 71.1728C131.855 69.8687 131.077 68.5351 130.503 67.107C129.858 65.5052 129.408 63.8338 128.968 62.1671C128.928 62.0147 128.775 61.9497 128.631 61.9757C128.185 62.056 127.962 62.5935 127.821 62.9644C127.613 63.5125 127.492 64.096 127.381 64.6701C127.29 65.1438 127.227 65.6269 127.115 66.097C126.881 67.0739 126.641 68.0449 126.445 69.0301C126.025 71.1421 125.632 73.2565 125.124 75.3509C124.619 77.4381 124.045 79.5077 123.442 81.5689C122.763 83.8924 122.044 86.2053 121.341 88.5217C121.238 88.8595 121.767 89.0037 121.87 88.667L121.874 88.6717Z" fill="black"/>
<path d="M150.089 81.3209C150.757 81.2264 151.43 81.4059 152.101 81.3256C152.733 81.25 153.337 81.0492 153.973 81.0019C155.351 80.8992 156.75 80.9783 158.128 81.0551C159.609 81.1378 161.085 81.3091 162.554 81.5229C163.289 81.6303 164.02 81.7567 164.757 81.8631C165.419 81.9576 166.087 82.0343 166.744 82.1714C168.073 82.449 169.254 83.1435 170.571 83.466C171.963 83.8062 173.306 84.3059 174.697 84.6484C176.042 84.9792 177.411 85.2308 178.701 85.7446C179.91 86.2254 181.044 86.8762 182.176 87.5129C182.794 87.8602 183.413 88.2063 184.047 88.5241C184.709 88.8548 185.38 89.1383 185.995 89.5565C186.61 89.9746 187.19 90.4767 187.771 90.9574C188.303 91.3968 188.885 91.8174 189.285 92.3891L189.328 92.0572C188.89 92.4363 188.44 92.8037 188.032 93.216C187.612 93.64 187.258 94.1255 186.867 94.5767C186.068 95.504 185.209 96.3781 184.325 97.2263C183.456 98.0602 182.55 98.854 181.687 99.6939C180.812 100.544 179.937 101.348 178.901 102.001C177.881 102.645 176.821 103.223 175.805 103.877C174.845 104.493 173.896 105.131 172.902 105.691C171.839 106.29 170.731 106.72 169.589 107.139C168.39 107.581 167.197 108.041 166.015 108.522C164.842 109.001 163.69 109.498 162.472 109.857C161.277 110.21 160.06 110.51 158.908 110.992C158.347 111.228 157.8 111.503 157.216 111.681C156.617 111.864 155.991 111.953 155.377 112.064C154.136 112.288 152.957 112.721 151.745 113.061C149.237 113.765 146.691 114.055 144.108 114.321C143.467 114.387 142.828 114.456 142.19 114.539C141.559 114.62 140.927 114.761 140.295 114.816C139.773 114.862 139.235 114.771 138.721 114.898C138.245 115.015 137.81 115.165 137.315 115.206C136.992 115.233 136.452 115.341 136.166 115.155C135.986 115.038 135.829 114.86 135.663 114.723C135.454 114.552 135.239 114.387 135.018 114.231C134.101 113.585 133.09 113.141 132.043 112.754C131.525 112.562 131.013 112.363 130.537 112.08C130.068 111.802 129.635 111.457 129.18 111.155C128.736 110.861 128.288 110.567 127.9 110.2C127.498 109.819 127.204 109.354 126.881 108.909C126.559 108.465 126.227 108.026 125.854 107.624C125.614 107.364 125.227 107.752 125.466 108.011C126.231 108.839 126.75 109.896 127.587 110.656C127.978 111.011 128.42 111.309 128.86 111.6C129.315 111.901 129.749 112.241 130.214 112.525C131.17 113.107 132.279 113.362 133.282 113.849C133.79 114.096 134.279 114.378 134.741 114.704C135.145 114.989 135.49 115.374 135.903 115.638C136.211 115.836 136.639 115.787 136.986 115.773C137.506 115.753 138.037 115.689 138.533 115.528C139.029 115.368 139.496 115.389 140.018 115.376C140.647 115.359 141.269 115.209 141.891 115.124C144.502 114.763 147.146 114.655 149.73 114.118C150.967 113.86 152.184 113.516 153.389 113.139C154.016 112.943 154.635 112.756 155.281 112.633C155.9 112.516 156.527 112.429 157.137 112.269C157.725 112.116 158.276 111.857 158.829 111.615C159.427 111.353 160.041 111.14 160.665 110.949C161.869 110.58 163.097 110.287 164.272 109.829C165.501 109.351 166.708 108.817 167.938 108.341C169.114 107.886 170.323 107.497 171.483 107.002C173.666 106.069 175.554 104.608 177.591 103.412C178.624 102.806 179.671 102.219 180.596 101.45C181.543 100.662 182.397 99.76 183.304 98.9273C184.207 98.098 185.1 97.2582 185.954 96.3781C186.387 95.9316 186.808 95.4757 187.215 95.0055C187.622 94.5354 187.961 94.0676 188.377 93.64C188.794 93.2124 189.262 92.8332 189.712 92.4411C189.798 92.3678 189.821 92.2036 189.755 92.1091C189.405 91.6095 188.948 91.2173 188.478 90.8322C187.96 90.407 187.452 89.9699 186.922 89.5588C186.401 89.156 185.858 88.7792 185.262 88.4945C184.653 88.2016 184.043 87.9145 183.448 87.5921C182.3 86.9696 181.18 86.2927 180.004 85.7245C178.767 85.128 177.493 84.7417 176.158 84.4287C175.417 84.2551 174.673 84.0885 173.941 83.883C173.208 83.6774 172.556 83.4388 171.857 83.238C171.164 83.0396 170.448 82.9108 169.769 82.6698C169.131 82.4442 168.526 82.1371 167.888 81.9138C166.553 81.4461 165.078 81.361 163.688 81.1437C162.216 80.9133 160.736 80.7113 159.251 80.5849C157.636 80.4491 155.985 80.3558 154.366 80.429C153.634 80.4621 152.957 80.631 152.24 80.7527C151.474 80.8826 150.706 80.6818 149.939 80.7905C149.591 80.8401 149.739 81.3669 150.084 81.3185L150.089 81.3209Z" fill="black"/>
<path d="M45.7399 107.693C44.8202 109.877 43.8675 112.462 41.6377 113.63C40.5252 114.212 38.7914 115.011 37.5025 114.792C36.3781 114.602 35.3508 113.595 34.1779 113.904C33.5625 114.066 33.082 114.943 33.5223 115.512C33.5767 115.583 33.6312 115.652 33.6856 115.723C34.0501 116.195 34.6241 116.436 35.1863 116.115C35.6503 115.852 35.9414 115.085 35.5793 114.618C35.5248 114.547 35.4704 114.477 35.4159 114.406C35.197 114.943 34.9792 115.478 34.7602 116.014C34.5804 116.061 35.0656 116.225 35.1958 116.287C35.5224 116.44 35.8538 116.57 36.1947 116.685C36.9865 116.952 37.7404 117.072 38.5724 116.955C40.1039 116.739 41.8756 116.099 43.1834 115.264C45.6653 113.68 46.7601 110.868 47.8525 108.276C48.0832 107.726 47.6027 107.078 47.0867 106.929C46.4559 106.748 45.9659 107.151 45.7375 107.693H45.7399Z" fill="black"/>
<path d="M34.3493 65.1178C34.4179 65.0635 34.4866 65.0091 34.5552 64.9548C33.9445 64.7942 33.3338 64.6323 32.7231 64.4717C32.8202 64.995 32.7338 65.6293 32.7385 66.1597C32.7444 66.755 32.7302 67.3409 32.6711 67.9339C32.5645 69.0065 32.5539 70.1015 32.3906 71.1658C32.0592 73.3203 31.6189 75.443 31.3041 77.6023C30.9798 79.8243 30.0815 82.0438 29.3927 84.1771C29.0566 85.2166 28.8187 86.288 28.466 87.3216C28.0884 88.4296 27.5523 89.4809 27.1238 90.57C26.8292 91.3189 27.7274 92.2001 28.4731 91.9166C28.937 91.7394 29.3181 91.5292 29.6329 91.1346C30.5028 90.0432 28.9619 88.4851 28.0825 89.5872C28.0328 89.6734 27.9689 89.7467 27.8908 89.8057C28.3405 90.2546 28.7903 90.7035 29.24 91.1523C29.6684 90.0632 30.2034 89.0119 30.5821 87.9039C30.9538 86.8148 31.2106 85.6867 31.5645 84.5894C32.303 82.2954 33.1918 79.9636 33.5043 77.5669C33.7942 75.3462 34.3647 73.188 34.6333 70.9602C34.7671 69.8475 34.8144 68.7005 34.9032 67.5807C34.9967 66.4054 35.0547 65.0481 34.8393 63.8893C34.6724 62.9939 33.5859 62.9479 33.0072 63.4062C32.9385 63.4605 32.8699 63.5149 32.8012 63.5692C31.697 64.4445 33.2569 65.9837 34.3517 65.1166L34.3493 65.1178Z" fill="black"/>
<path d="M127.369 63.2455C126.453 67.5252 125.325 71.7469 124.429 76.0242C123.979 78.1681 123.051 80.1443 122.522 82.2623C122.014 84.2964 121.378 86.288 120.555 88.2169C120.339 88.7261 120.368 89.2671 120.838 89.6285C121.228 89.9286 121.94 89.9723 122.277 89.5435L122.416 89.3675C123.276 88.2713 121.735 86.712 120.865 87.82C120.819 87.8791 120.773 87.937 120.727 87.9961C121.301 88.4378 121.875 88.8796 122.449 89.3226C123.257 87.4255 123.991 85.4824 124.493 83.479C125.049 81.2642 126.027 79.1663 126.486 76.929C127.387 72.5395 128.544 68.215 129.484 63.8279C129.779 62.4541 127.665 61.867 127.369 63.2455Z" fill="black"/>
<path d="M187.781 91.6C187.045 92.4647 186.572 93.5751 185.955 94.5307C185.25 95.6233 184.605 96.6912 183.724 97.6586C182.084 99.4612 180.443 101.297 178.337 102.542C177.354 103.123 176.418 103.715 175.378 104.179C174.316 104.653 173.53 105.49 172.448 105.944C171.297 106.426 170.147 106.899 168.988 107.359C168.37 107.603 167.728 107.75 167.107 107.983C166.555 108.189 166.047 108.494 165.487 108.682C164.156 109.128 164.727 111.243 166.071 110.793C166.632 110.605 167.138 110.318 167.684 110.099C168.299 109.853 168.953 109.714 169.572 109.471C170.826 108.977 172.066 108.458 173.312 107.942C173.854 107.718 174.381 107.494 174.858 107.148C175.313 106.817 175.715 106.432 176.227 106.185C177.34 105.646 178.376 105.067 179.445 104.433C181.629 103.136 183.335 101.325 185.046 99.4588C185.902 98.5256 186.67 97.5523 187.339 96.4762C187.689 95.9116 188.065 95.367 188.42 94.8071C188.754 94.2803 188.926 93.6259 189.333 93.1486C190.243 92.082 188.699 90.5263 187.783 91.6012L187.781 91.6Z" fill="black"/>
<path d="M136.655 80.5271C136.547 80.5046 136.479 80.4302 136.372 80.4066C136.265 80.383 136.144 80.3889 136.036 80.4007C135.802 80.4243 135.584 80.5164 135.362 80.5861C134.919 80.7243 134.474 80.885 134.06 81.0929C133.263 81.4922 132.583 82.0922 131.915 82.6734C131.297 83.212 130.658 83.7129 130.141 84.3543C129.617 85.0028 129.188 85.7198 128.846 86.4793C128.207 87.9016 127.825 89.4596 127.751 91.0177C127.691 92.2698 127.821 93.6613 128.502 94.7492C128.843 95.2949 129.327 95.7273 129.924 95.973C130.818 96.3392 131.848 96.3498 132.796 96.2683C134.662 96.1088 136.453 95.5513 138.039 94.546C138.804 94.0605 139.564 93.5562 140.242 92.9514C140.925 92.3418 141.471 91.6024 141.967 90.8369C142.488 90.0313 142.962 89.1584 143.247 88.2394C143.518 87.3629 143.58 86.4274 143.464 85.5202C143.253 83.8653 142.591 82.0391 141.044 81.2027C140.352 80.8295 139.56 80.6487 138.776 80.6487C138.258 80.6487 137.744 80.7314 137.228 80.7692C136.824 80.7988 136.428 80.8165 136.034 80.9169C135.665 81.0114 135.313 81.1649 135.025 81.4166C134.76 81.6493 135.149 82.0355 135.414 81.804C135.978 81.3091 136.833 81.3575 137.53 81.2902C138.362 81.2087 139.172 81.1307 139.989 81.3622C140.667 81.5548 141.287 81.9209 141.747 82.4608C142.264 83.0679 142.55 83.9066 142.747 84.6661C142.961 85.4907 143.039 86.3577 142.921 87.2034C142.8 88.074 142.451 88.8855 142.035 89.6533C141.622 90.4152 141.138 91.1665 140.577 91.8304C140.038 92.4694 139.376 92.9939 138.688 93.4664C138.006 93.9365 137.304 94.3889 136.551 94.7421C135.773 95.1059 134.947 95.3764 134.105 95.5442C133.215 95.7214 132.271 95.8123 131.366 95.7355C130.668 95.6765 129.946 95.5052 129.421 95.015C128.574 94.2224 128.338 92.9537 128.297 91.8457C128.246 90.5015 128.482 89.1442 128.896 87.8685C129.356 86.4522 130.088 85.0819 131.172 84.0424C131.443 83.7826 131.74 83.5522 132.023 83.3077C132.338 83.036 132.648 82.7584 132.97 82.4938C133.625 81.9528 134.314 81.5335 135.117 81.2465C135.499 81.1094 135.928 80.9098 136.339 80.95L136.145 80.8696C136.26 80.9606 136.368 81.0256 136.513 81.0551C136.858 81.126 137.004 80.5991 136.659 80.5271H136.655Z" fill="black"/>
<path d="M135.39 85.1564C135.126 85.5993 134.655 85.8521 134.324 86.2396C133.949 86.6778 133.552 87.1054 133.149 87.5188C132.963 87.709 132.778 87.8909 132.627 88.113C132.472 88.341 132.35 88.5902 132.198 88.8206C131.949 89.1997 131.528 89.56 131.634 90.0644C131.699 90.3774 131.957 90.6349 132.284 90.6538C132.556 90.6692 132.82 90.5404 133.041 90.3952C133.556 90.0561 133.976 89.5872 134.381 89.1289C134.692 88.7757 135.006 88.4284 135.294 88.0551C135.471 87.8271 135.633 87.611 135.857 87.4255C136.08 87.2401 136.315 87.0747 136.505 86.8526C136.734 86.5868 136.348 86.1982 136.117 86.4652C135.819 86.8113 135.405 87.0286 135.119 87.3865C134.801 87.7858 134.497 88.1898 134.15 88.5666C133.827 88.9174 133.522 89.2801 133.166 89.6014C132.975 89.775 132.763 89.9581 132.521 90.0597C132.441 90.0939 132.374 90.1105 132.312 90.1081C132.281 90.1081 132.245 90.0975 132.207 90.0372C132.101 89.8671 132.236 89.6829 132.336 89.5435C132.467 89.3604 132.614 89.1903 132.733 88.9977C132.852 88.8064 132.955 88.6068 133.079 88.4189C133.23 88.1886 133.435 88.0102 133.625 87.8118C134.029 87.3877 134.419 86.9507 134.808 86.5124C135.152 86.1262 135.592 85.8864 135.863 85.4304C136.042 85.1268 135.569 84.8516 135.389 85.154L135.39 85.1564Z" fill="black"/>
<path d="M137.274 80.2554C135.601 79.4309 133.66 80.8862 134.449 82.7242C135.162 84.3862 137.231 85.7919 139.066 85.3891C140.92 84.9827 141.062 83.0927 140.108 81.7308C139.092 80.2814 137.222 79.8195 135.523 80.1432C133.468 80.5342 133.053 82.8423 134.675 84.0602C136.079 85.1138 138.389 85.4883 139.883 84.4205C141.745 83.0892 140.34 80.7563 138.568 80.2436C137.091 79.8172 134.42 80.0782 134.622 82.1879C134.978 85.9029 143.41 84.6839 141.636 81.2122C140.737 79.4557 138.548 79.034 136.795 79.5537C136.059 79.7723 135.086 80.1137 134.588 80.7303C133.961 81.5075 134.204 82.4679 134.806 83.1837C135.861 84.4394 137.809 84.7772 139.304 84.1972C140.931 83.5652 141.732 81.7839 140.317 80.4645C139.234 79.4533 137.763 79.3329 136.38 79.6187C135.048 79.8939 133.719 80.8567 134.185 82.3793C134.736 84.1771 136.881 84.6012 138.531 84.3555C140.342 84.0862 141.09 81.941 139.402 80.9015C138.287 80.2152 136.106 79.9955 135.388 81.3729C134.377 83.3125 137.356 84.1216 138.658 83.4755C139.318 83.1483 139.327 82.2423 138.879 81.7568C138.447 81.2878 137.931 81.1992 137.326 81.3327C136.292 81.5595 136.268 83.2309 137.326 83.4436C137.65 83.5085 137.896 83.544 138.225 83.5227C139.626 83.4341 139.637 81.2453 138.225 81.3339H137.91C137.91 82.0355 137.91 82.7395 137.91 83.4424C137.717 83.3963 137.523 83.3503 137.33 83.3042C137.403 82.7313 137.478 82.1584 137.551 81.5855C137.764 81.4792 137.171 81.5335 137.208 81.5122C137.234 81.4981 137.189 82.5387 137.225 82.5624C137.25 82.5789 138.208 82.7561 138.226 82.7514C138.551 82.6569 137.896 83.1518 138.251 82.6368C138.205 82.7029 138.27 82.0863 138.367 82.169C138.341 82.1466 137.776 82.2092 137.747 82.208C137.445 82.1985 136.735 82.2127 136.48 82.0237C136.407 81.9694 136.304 81.7237 136.271 81.7119C136.297 81.7213 136.254 81.8454 136.26 81.8465C136.283 81.8501 136.118 81.9375 136.229 81.9706C136.266 81.9812 136.31 81.9032 136.348 81.8985C136.778 81.8465 137.17 81.6552 137.62 81.654C138.059 81.654 138.317 81.8205 138.714 81.9741C139.292 82.1974 138.587 82.0627 138.959 81.8796C138.69 82.0119 138.523 82.1856 138.205 82.2458C137.738 82.3332 137.188 82.2789 136.778 82.0237C136.472 81.8335 136.496 81.5489 136.325 81.9139C136.119 82.3545 136.277 82.0781 136.433 82.0497C136.645 82.0107 136.879 81.8347 137.09 81.7579C137.76 81.5134 138.502 81.3563 139.155 81.7237C139.36 81.8394 139.517 82.1312 139.697 82.2151L139.709 82.0722C139.765 81.9127 139.725 81.882 139.591 81.9812C139.472 81.9517 139.195 82.0792 139.075 82.1029C138.529 82.2068 137.911 82.2753 137.366 82.1478C137.089 82.0828 136.743 81.7461 136.743 82.0769C136.743 82.4277 137.136 82.2411 137.458 82.2659C137.78 82.2907 138.041 82.3651 138.332 82.5234C138.647 82.6947 138.613 82.6888 138.349 82.7679C137.711 82.9604 137.026 82.8258 136.425 82.5612C136.283 82.4986 136.119 82.3568 135.98 82.3155C135.929 82.2694 135.878 82.2222 135.828 82.1761C135.704 82.3356 135.714 82.3793 135.86 82.306C136.209 82.3143 136.569 82.2564 136.93 82.2895C137.537 82.3462 137.99 82.4714 138.33 83.0053C138.37 83.0691 138.431 83.2144 138.489 83.2865C138.225 82.9569 138.889 84.0874 138.635 83.3751C138.665 83.3243 138.696 83.2735 138.725 83.2227C138.6 83.2628 138.472 83.2758 138.343 83.2628C138.105 83.2558 137.892 83.1837 137.679 83.075C137.375 82.9191 137.118 82.6699 136.885 82.423C136.826 82.3604 136.657 82.11 136.567 82.0533C136.524 81.9812 136.481 81.9091 136.439 81.8383C136.433 82.1135 136.343 82.2151 136.169 82.1454C137.431 82.7667 138.542 80.8803 137.276 80.2554H137.274Z" fill="black"/>
<path d="M142.74 85.2946C142.661 84.4204 142.332 83.6467 141.421 83.375C140.499 83.0998 139.5 83.564 139.03 84.3791C138.166 85.8757 139.326 87.8791 140.804 88.4556C142.44 89.0934 144.492 88.0563 144.563 86.2041C144.623 84.6508 143.199 82.7277 141.476 83.1872C138.549 83.968 139.007 90.4046 142.289 89.3887C144.134 88.8182 143.774 85.9336 143.302 84.5527C143.044 83.7979 142.645 83.0467 141.821 82.8021C140.931 82.5375 140.071 82.9805 139.559 83.7093C138.611 85.0619 138.261 87.7137 140.183 88.4201C142.33 89.2092 142.86 86.5384 142.889 85.0595C142.905 84.2279 142.813 83.0006 142.141 82.3934C141.304 81.6363 140.279 82.2092 139.819 83.0573C139.056 84.4582 139.39 87.3653 141.481 87.3109C143.595 87.2554 143.854 84.4712 143.509 82.9368C143.34 82.182 142.876 81.4732 142.032 81.4248C141.125 81.374 140.509 82.2198 140.222 82.9746C139.716 84.3082 139.801 86.7723 141.331 87.4692C143.142 88.2937 143.595 85.7151 143.328 84.5303C143.145 83.7211 142.631 82.9191 141.712 82.8907C140.799 82.8624 140.208 83.6314 139.995 84.4334C139.742 85.3832 139.911 86.4392 140.468 87.2507C140.949 87.95 141.928 88.6753 142.828 88.3859C143.691 88.1095 143.909 87.168 144.072 86.3896C144.271 85.4422 144.456 84.4429 144.204 83.4861C143.675 81.4815 141.085 80.6074 139.874 82.5624C139.13 83.7637 141.026 84.8646 141.768 83.6668C141.844 83.5451 141.922 83.6987 142.019 83.8629C142.199 84.1653 142.143 84.6579 142.108 84.9863C142.076 85.2875 141.996 86.3624 141.761 86.5561C142.019 86.4498 142.278 86.3423 142.536 86.236C142.298 86.2632 142.131 85.7505 142.094 85.571C142.072 85.4623 142.171 84.9284 142.141 84.8882C142.066 84.7914 141.178 84.9189 141.173 84.9319C141.144 84.9839 141.234 85.1186 141.227 85.1871C141.216 85.2887 141.207 85.5214 141.241 85.6064C141.284 85.7104 141.191 85.6324 141.335 85.5592C141.616 85.5225 141.898 85.4859 142.18 85.4493C142.561 85.5485 142.328 85.5473 142.218 85.2036C142.132 84.9378 142.129 84.6472 142.15 84.3708C142.168 84.1393 142.234 83.9444 142.272 83.7212C142.319 83.6302 142.37 83.5416 142.426 83.4554C141.605 83.0301 141.254 83.0219 141.376 83.4329C141.318 83.6337 141.467 84.0448 141.459 84.2681C141.453 84.4204 141.266 85.063 141.305 85.1115C141.867 85.8226 141.612 84.9177 141.623 84.8646C141.66 84.7004 141.569 84.1795 141.762 84.072C141.48 84.1086 141.199 84.1452 140.917 84.1818C140.969 84.196 141.022 84.2102 141.074 84.2244C140.855 84.0566 140.638 83.8889 140.419 83.7212C140.847 84.3271 140.741 85.2993 140.63 86.0009C140.619 86.0789 140.524 86.3116 140.548 86.3754C140.61 86.5396 140.909 86.2171 140.975 86.0978C141.11 85.8557 141.088 85.4729 141.217 85.2048C141.242 85.1528 141.428 84.9236 141.423 84.8752C141.315 84.8847 141.206 84.8941 141.097 84.9036C141.126 84.9815 141.156 85.0595 141.186 85.1375C141.206 85.5958 141.439 86.0411 141.444 86.5242C141.445 86.7061 141.331 87.2212 141.415 87.3665C141.481 87.4822 141.865 87.3653 141.879 87.2542C141.886 87.1952 141.718 86.9637 141.698 86.8892C141.601 86.5313 141.718 86.0612 141.852 85.721C141.904 85.5875 142.103 85.2698 142.093 85.2768C141.973 85.3643 141.916 85.2083 141.961 85.3312C141.98 85.3843 142.156 85.5225 142.197 85.5816C142.498 86.0175 142.353 86.5644 141.739 86.4687C141.455 86.425 141.239 86.1805 141.097 85.9502C141.039 85.8568 141.008 85.7056 140.946 85.6229C140.932 85.5899 140.925 85.5544 140.925 85.519C140.925 85.3619 140.799 85.2875 140.546 85.2969C140.671 86.6884 142.865 86.7014 142.74 85.2969V85.2946Z" fill="black"/>
<path d="M36.1573 55.5403C35.5975 54.1394 35.4685 52.5695 35.4011 51.0764C35.3182 49.2467 35.2768 47.4027 35.4129 45.5742C35.5526 43.7102 36.0106 41.8982 36.2497 40.0483C36.4899 38.1926 36.4627 36.3085 36.774 34.4611C37.303 31.3225 38.6155 28.3765 40.6749 25.9408C42.6727 23.5771 45.5167 22.071 48.4613 21.2241C50.0981 20.754 51.7989 20.5071 53.4736 20.213C55.3577 19.8822 57.2514 19.5869 59.1628 19.4546C60.7712 19.3436 62.3583 19.366 63.9371 19.7157C65.4071 20.0405 66.8202 20.5886 68.1363 21.3139C70.7874 22.7739 72.9876 24.9107 74.6221 27.4445C76.4695 30.309 77.8448 33.5669 78.2614 36.9653C78.3644 37.8063 78.407 38.6521 78.3881 39.4991C78.3679 40.3921 78.3028 41.2851 78.3135 42.1793C78.3194 42.6128 78.3431 43.0463 78.4011 43.4775C78.4602 43.9193 78.5608 44.3528 78.6212 44.7946C78.7431 45.6888 78.768 46.5912 78.768 47.4925C78.768 49.2467 78.9656 51.041 78.6117 52.775C78.4437 53.6007 78.1099 54.378 77.8069 55.1611C77.5193 55.9053 77.2152 56.6459 76.8282 57.3452C76.4518 58.0256 75.9961 58.6493 75.4422 59.1962C75.1913 59.4443 75.5783 59.8306 75.8304 59.5837C77.0116 58.419 77.7028 56.9353 78.2957 55.4115C78.6082 54.6083 78.9561 53.8074 79.1337 52.9605C79.3148 52.0923 79.3645 51.2016 79.3656 50.3169C79.3656 49.4038 79.3183 48.4907 79.3183 47.5776C79.3183 46.6633 79.2946 45.749 79.1775 44.8418C79.1183 44.387 79.0189 43.9405 78.9526 43.4869C78.8863 43.0333 78.8674 42.588 78.8626 42.138C78.8544 41.2308 78.923 40.3259 78.9396 39.4199C79.0047 35.9199 77.9809 32.4707 76.3808 29.3794C74.8966 26.5149 72.9261 23.9598 70.3057 22.0462C67.8381 20.2448 64.8911 19.0636 61.8281 18.8652C59.9936 18.7459 58.1272 18.9608 56.3117 19.2101C54.3908 19.4735 52.4865 19.8385 50.5786 20.1787C47.479 20.7315 44.4255 21.9033 41.9685 23.9043C40.734 24.9096 39.7079 26.1558 38.8463 27.4882C37.9965 28.8029 37.3421 30.2358 36.8757 31.7277C36.3337 33.4617 36.0792 35.2289 35.955 37.0374C35.8887 37.9977 35.8366 38.9604 35.7182 39.9172C35.6023 40.8634 35.4058 41.8001 35.2401 42.7392C34.9087 44.6186 34.7691 46.4944 34.7821 48.4021C34.7939 50.1019 34.8271 51.8206 35.0815 53.5038C35.1939 54.2445 35.3502 54.9863 35.6283 55.6844C35.7573 56.0081 36.2875 55.8663 36.1573 55.5391V55.5403Z" fill="black"/>
<path d="M77.0487 31.0567C77.0085 27.3205 78.5637 23.8016 81.0171 21.0233C82.1995 19.685 83.5475 18.4825 85.1547 17.6804C86.6886 16.9161 88.3893 16.5074 90.0972 16.4023C93.5661 16.1897 96.9451 17.189 99.8826 18.9987C103.078 20.9666 105.93 23.589 108.028 26.7074C109.257 28.5348 110.22 30.511 110.692 32.6691C110.926 33.7417 111.237 34.917 111.285 36.0144C111.321 36.8708 111.08 37.7426 111.435 38.5588C111.518 38.7478 111.82 38.7265 111.908 38.5588C112.335 37.7556 112.478 36.8578 112.826 36.025C113.174 35.1946 113.672 34.4398 114.215 33.7252C115.254 32.3561 116.461 31.1489 117.959 30.2842C119.442 29.4278 121.084 28.9789 122.753 28.6411C123.867 28.4155 124.868 28.412 125.944 28.7935C126.827 29.1065 127.735 29.4798 128.529 29.9818C130.123 30.9906 131.112 32.701 132.606 33.8386C132.675 33.8905 132.814 33.8917 132.883 33.8386C133.474 33.3838 133.572 32.6006 133.605 31.9002C133.65 30.967 133.539 30.0362 133.494 29.1053C133.439 27.9619 133.724 26.8208 134.035 25.7258C134.405 24.417 134.914 23.1495 135.552 21.947C136.842 19.5149 138.67 17.4122 140.698 15.5601C141.764 14.5855 142.954 13.7398 144.311 13.2212C145.731 12.679 147.213 12.2561 148.687 11.8911C150.198 11.5167 151.752 11.1682 153.317 11.1718C154.729 11.1741 156.119 11.447 157.454 11.8959C160.11 12.7877 162.526 14.295 164.957 15.6581C169.523 18.219 174.672 21.1863 176.644 26.3294C176.914 27.0346 177.175 27.754 177.377 28.4816C177.591 29.2577 177.736 30.0551 178.044 30.8016C178.269 31.3462 178.612 31.6887 179.011 32.1069C179.309 32.4199 179.503 32.6609 179.426 33.1038C179.366 33.4523 179.203 33.7913 179.061 34.1103C178.521 35.3198 177.942 36.5424 177.52 37.7969C177.271 38.5364 176.631 39.6621 176.932 40.4547C176.987 40.6024 177.111 40.6744 177.269 40.6461C178.991 40.3318 180.579 39.427 182.373 39.7105C184.043 39.9739 185.638 40.6827 187.1 41.5072C190.037 43.1609 192.268 45.5411 194.335 48.1611C196.532 50.9453 198.353 54.0236 199.073 57.5307C199.81 61.1276 199.382 64.8178 198.51 68.3485C197.739 71.4682 195.807 74.0433 193.507 76.2309C191.159 78.4646 188.485 80.5212 185.313 81.4C183.781 81.8241 182.12 81.967 180.569 81.5512C178.953 81.1189 177.494 80.1255 176.224 79.0659C175.673 78.6064 175.147 78.1185 174.644 77.6082C173.985 76.9385 173.547 76.1848 173.166 75.3344C172.883 74.7036 172.396 72.7096 171.373 72.8892C170.776 72.9931 170.646 74.0811 170.58 74.5417C170.443 75.4938 170.428 76.4613 170.394 77.4216C170.37 78.0855 170.518 82.1111 169.203 81.7898C168.86 81.706 168.714 82.234 169.058 82.3178C170.565 82.6864 170.746 80.4739 170.834 79.4935C170.994 77.6909 170.754 75.7194 171.252 73.9641C171.287 73.8389 171.322 73.6877 171.396 73.5779C171.419 73.5436 171.445 73.4585 171.484 73.4396C171.58 73.3936 171.734 73.6027 171.822 73.7172C172.226 74.2346 172.427 75.0178 172.692 75.6108C173.376 77.1416 174.413 78.2449 175.681 79.3234C176.887 80.3499 178.22 81.2819 179.711 81.8477C181.197 82.4123 182.824 82.4513 184.377 82.1737C187.613 81.5973 190.368 79.7227 192.802 77.6094C195.21 75.5174 197.435 73.0404 198.575 70.0176C199.216 68.319 199.538 66.4502 199.777 64.6571C200.021 62.825 200.085 60.9681 199.877 59.1301C199.47 55.5474 198.009 52.2978 195.936 49.3719C193.99 46.6267 191.723 43.885 188.915 41.9856C187.531 41.0489 186.035 40.2456 184.456 39.6904C182.878 39.1353 181.294 38.9403 179.624 39.4211C178.791 39.6609 177.978 39.9621 177.122 40.118C177.235 40.1818 177.347 40.2456 177.459 40.3094C177.314 39.9255 177.56 39.3585 177.678 38.9947C177.816 38.5718 177.974 38.1572 178.115 37.7355C178.538 36.4656 179.187 35.2478 179.699 34.0098C179.866 33.607 180.05 33.1499 179.992 32.7046C179.925 32.1919 179.497 31.8246 179.157 31.4749C178.173 30.4649 178.106 28.8691 177.669 27.5815C177.212 26.2326 176.717 24.9178 175.927 23.7236C175.218 22.651 174.372 21.673 173.443 20.7859C171.515 18.9467 169.25 17.4973 166.953 16.1649C164.525 14.7556 162.079 13.2791 159.516 12.1286C157.039 11.017 154.39 10.3697 151.666 10.7382C150.082 10.952 148.511 11.3419 146.979 11.7848C145.547 12.1983 144.064 12.6152 142.758 13.3535C141.585 14.0162 140.559 14.9045 139.605 15.8483C138.647 16.7968 137.716 17.7796 136.896 18.851C135.032 21.2855 133.727 24.1288 133.135 27.1374C132.92 28.2348 132.956 29.2152 133.025 30.3244C133.074 31.1087 133.341 32.8014 132.607 33.3673H132.884C131.459 32.2829 130.508 30.6977 129.036 29.6629C128.271 29.1242 127.363 28.7533 126.493 28.4155C125.52 28.0387 124.603 27.8402 123.557 27.9584C120.068 28.3517 116.75 29.8294 114.47 32.5333C113.812 33.3141 113.177 34.1433 112.692 35.0434C112.134 36.0758 111.983 37.2547 111.437 38.2812C111.595 38.2812 111.753 38.2812 111.911 38.2812C111.569 37.4945 111.917 36.5283 111.81 35.7002C111.668 34.604 111.44 33.4925 111.198 32.414C110.764 30.4744 109.931 28.6766 108.874 26.9992C106.818 23.7354 103.959 20.982 100.729 18.8841C97.7321 16.9374 94.3235 15.7585 90.7185 15.8294C87.0957 15.9003 83.8801 17.2977 81.345 19.8692C78.398 22.8566 76.4558 26.8126 76.5008 31.0556C76.5043 31.4076 77.0523 31.4088 77.0487 31.0556V31.0567Z" fill="black"/>
<path d="M164.48 81.302C164.48 79.7498 164.48 78.1989 164.48 76.6467C164.48 75.8789 164.485 75.1099 164.48 74.3421C164.476 73.6912 164.326 73.0026 164.457 72.3576C164.595 71.6855 165.073 71.1055 164.79 70.3956C164.732 70.2491 164.545 70.1168 164.388 70.2326C161.924 72.0363 158.986 73.0049 155.937 73.1065C155.22 73.1302 154.503 73.1384 153.81 72.9258C153.186 72.7344 152.61 72.3931 152.104 71.9832C150.995 71.0843 150.138 69.9148 149.171 68.8765C148.631 68.2977 148.128 67.7094 147.644 67.0846C147.242 66.5648 146.796 65.9636 146.16 65.7202C146.01 65.6624 145.875 65.7864 145.823 65.9116C145.593 66.4585 145.715 67.1023 145.865 67.6539C146.031 68.2634 146.282 68.8446 146.468 69.4471C146.708 70.2314 146.796 71.0642 146.88 71.878C146.972 72.764 147.057 73.6475 147.219 74.5252C147.405 75.5363 147.554 76.5546 147.645 77.5787C147.676 77.9272 148.225 77.9295 148.193 77.5787C148.036 75.8104 147.649 74.0787 147.471 72.3139C147.384 71.4433 147.297 70.5704 147.103 69.7152C146.968 69.1187 146.727 68.5552 146.535 67.9764C146.341 67.387 146.096 66.6652 146.351 66.0581C146.238 66.1219 146.126 66.1856 146.013 66.2494C146.262 66.3439 146.469 66.5577 146.648 66.7467C146.871 66.983 147.075 67.2381 147.273 67.4956C147.705 68.0579 148.153 68.5907 148.637 69.1092C149.636 70.1818 150.529 71.3926 151.665 72.3293C152.176 72.751 152.732 73.1054 153.351 73.3463C154.035 73.6109 154.745 73.6688 155.473 73.6641C157.013 73.6534 158.559 73.4444 160.036 73.0061C161.699 72.5124 163.266 71.7304 164.663 70.7063C164.53 70.6519 164.395 70.5976 164.261 70.5432C164.492 71.1244 164.042 71.6571 163.928 72.2135C163.797 72.8537 163.907 73.5093 163.928 74.1543C163.977 75.6604 163.931 77.1747 163.932 78.6808C163.932 79.5549 163.932 80.4279 163.932 81.302C163.932 81.654 164.48 81.6552 164.48 81.302Z" fill="black"/>
<path d="M115.956 61.9698C115.571 61.9651 115.156 61.7832 114.801 61.5894C114.299 61.3154 113.835 60.974 113.402 60.6031C112.493 59.8247 111.641 58.8998 111.082 57.8355C110.876 57.4433 110.663 56.9247 110.722 56.516C110.542 56.4912 110.364 56.4676 110.184 56.4428C110.242 57.1114 110.082 57.7563 109.854 58.38C109.637 58.9695 109.381 59.5672 109.091 60.1247C108.831 60.6232 108.43 60.9976 108.045 61.3981C107.638 61.8221 107.365 62.3632 106.929 62.7589C106.076 63.5361 104.812 63.7995 103.731 64.0949C103.467 64.1669 103.241 64.3157 102.969 64.3736C102.613 64.4492 102.297 64.3228 101.942 64.3335C101.662 64.3429 101.286 64.3961 101.078 64.5981C100.918 64.7528 100.804 64.9513 100.731 65.1592C100.411 66.0581 100.837 67.0976 101.123 67.9492C101.524 69.1506 101.79 70.4145 102.041 71.6548C102.316 73.0156 102.57 74.4154 102.619 75.8057C102.643 76.5144 102.6 77.2232 102.601 77.9319C102.602 78.6052 102.685 79.2655 102.799 79.9282C102.932 80.7066 103.038 81.4768 103.054 82.2682C103.07 83.0408 103.035 83.8121 103.01 84.5847C102.989 85.2367 102.962 85.8876 103.073 86.5325C103.167 87.0723 103.274 87.585 103.286 88.1366C103.293 88.4886 103.841 88.4898 103.834 88.1366C103.825 87.624 103.751 87.129 103.648 86.6282C103.543 86.1167 103.532 85.6111 103.544 85.0914C103.576 83.7046 103.687 82.3084 103.51 80.9275C103.422 80.2436 103.266 79.5691 103.195 78.8828C103.122 78.1847 103.156 77.4819 103.169 76.7814C103.196 75.3769 103.016 73.9901 102.776 72.6081C102.536 71.226 102.228 69.877 101.867 68.5328C101.629 67.6468 101.176 66.7503 101.178 65.8195C101.178 65.6175 101.204 65.4108 101.294 65.2277C101.427 64.9548 101.641 64.8922 101.943 64.8804C102.119 64.8733 102.269 64.9229 102.439 64.9501C102.589 64.9737 102.744 64.956 102.894 64.9371C103.204 64.8969 103.461 64.7835 103.747 64.6666C104.002 64.5626 104.287 64.5118 104.553 64.4362C104.857 64.35 105.16 64.259 105.458 64.1539C105.994 63.9649 106.53 63.7358 106.994 63.4015C107.543 63.0058 107.85 62.4447 108.285 61.945C108.697 61.4713 109.181 61.0744 109.498 60.524C109.843 59.9274 110.113 59.2459 110.355 58.6021C110.615 57.9146 110.797 57.1822 110.733 56.4428C110.708 56.1616 110.242 56.0423 110.194 56.3695C110.037 57.4622 110.799 58.5442 111.439 59.3545C112.248 60.3787 113.251 61.3248 114.385 61.9828C114.859 62.258 115.398 62.5096 115.957 62.5155C116.31 62.5191 116.31 61.9722 115.957 61.9686L115.956 61.9698Z" fill="black"/>
<path d="M96.3129 88.719C95.6549 87.3582 95.5791 85.8687 95.591 84.3827C95.604 82.7962 95.5732 81.2264 95.4134 79.6459C95.3318 78.8426 95.23 78.0418 95.1152 77.2432C95.0028 76.453 94.8524 75.6686 94.8063 74.8701C94.7601 74.0645 94.7838 73.2565 94.8063 72.4498C94.8264 71.7599 94.8181 71.0689 94.856 70.3802C94.9211 69.2084 95.0998 67.9433 94.7211 66.8046C94.6382 66.5566 94.5293 66.2861 94.3625 66.0805C94.1542 65.8265 93.6796 65.9872 93.3979 66.0404C93.1044 66.0959 92.8191 66.1443 92.5209 66.0935C92.1433 66.0297 91.7658 65.8892 91.4025 65.771C90.6639 65.5289 89.9621 65.2135 89.2532 64.8993C88.5667 64.5945 87.8815 64.2862 87.2151 63.9366C86.5441 63.5846 85.8896 63.1912 85.2931 62.7246C84.7368 62.2899 84.2326 61.7926 83.758 61.2705C82.7958 60.2133 81.9567 59.0521 81.0134 57.9784C80.6146 57.5248 80.1779 57.1078 79.7684 56.6649C79.3873 56.2526 78.9991 55.7801 78.8819 55.2178C78.8263 54.9485 78.8582 54.6662 78.9671 54.4134H78.4937C78.5978 54.6071 78.702 54.802 78.8061 54.9958C78.973 55.3064 79.4464 55.03 79.2796 54.7193C79.1754 54.5256 79.0713 54.3307 78.9671 54.137C78.8772 53.9704 78.5754 53.9468 78.4937 54.137C77.9647 55.3643 78.7695 56.4286 79.5967 57.2815C80.0406 57.7398 80.4832 58.1946 80.8963 58.6812C81.3673 59.2364 81.8171 59.8081 82.2763 60.3728C83.1947 61.5032 84.1581 62.5982 85.3523 63.4475C86.6032 64.3382 88.0199 64.9477 89.4177 65.5679C90.2166 65.9222 91.0178 66.2388 91.8569 66.4857C92.2369 66.5979 92.6144 66.6936 93.0144 66.6534C93.3884 66.6168 93.7494 66.5164 94.1258 66.4928C94.0465 66.4479 93.9684 66.403 93.8891 66.3569C94.585 67.3291 94.4134 68.7312 94.3412 69.8534C94.2997 70.4901 94.2926 71.1244 94.2773 71.7623C94.2583 72.5833 94.2204 73.4042 94.2346 74.2264C94.263 75.8706 94.6252 77.4937 94.8087 79.125C94.9921 80.7562 95.0655 82.3828 95.0454 84.0224C95.0252 85.7316 95.0797 87.4255 95.8395 88.9942C95.9934 89.3108 96.4656 89.0344 96.3129 88.7178V88.719Z" fill="black"/>
<path d="M28.895 58.4414C28.4287 57.8768 28.3459 57.0925 28.1388 56.4156C27.9009 55.6383 27.4369 54.9556 26.9825 54.2905C26.0593 52.9392 25.1444 51.5453 24.0035 50.3641C21.8471 48.1304 18.9688 46.4046 15.9176 45.7644C14.314 45.4277 12.7115 45.4017 11.0936 45.6356C9.64375 45.8459 8.14658 46.0502 6.8376 46.7507C6.1547 47.1157 5.61383 47.6213 5.09899 48.193C4.5309 48.8238 3.99594 49.4841 3.49531 50.1692C2.5047 51.5264 1.59101 52.9971 1.04777 54.5941C0.536486 56.1002 0.35659 57.6866 0.21575 59.2624C0.0595238 61.026 -0.0682974 62.7896 0.0405873 64.5603C0.149472 66.3392 0.478493 68.1063 1.1034 69.779C1.65729 71.2626 2.5473 72.6069 3.61366 73.7739C4.1427 74.3527 4.72263 74.8855 5.357 75.3473C6.02215 75.8305 6.75594 76.1577 7.52168 76.4506C8.34423 76.766 9.12536 77.1381 9.92424 77.5066C10.7125 77.8705 11.4912 78.0866 12.3528 78.187C12.7943 78.239 13.192 78.3252 13.605 78.4871C13.7139 78.5296 13.837 78.5898 13.953 78.6087C14.0346 78.6217 14.0086 78.6607 13.9802 78.5969C14.0855 78.8344 14.0832 79.2088 14.1045 79.4569C14.1435 79.9164 14.1376 80.3794 14.1104 80.8401C14.0571 81.7296 13.9163 82.6096 13.8027 83.4932C13.6855 84.4051 13.6275 85.3217 13.6109 86.2419C13.5778 88.1118 13.6393 89.9888 13.6725 91.8575C13.6891 92.7836 13.7257 93.7109 13.6902 94.6382C13.6547 95.5761 13.4997 96.4927 13.3293 97.4141C13.1624 98.3118 12.9931 99.2119 12.9269 100.123C12.8949 100.566 12.9067 101.009 12.8961 101.453C12.8843 101.944 12.8547 102.436 12.8701 102.928C12.8961 103.796 13.2381 104.594 13.3103 105.451C13.3719 106.185 13.4157 106.922 13.4204 107.659C13.4251 108.359 13.4062 109.075 13.2322 109.758C13.3991 109.737 13.566 109.714 13.7328 109.693C13.6287 109.503 13.5234 109.314 13.4192 109.124C13.2488 108.815 12.7754 109.091 12.9458 109.4C13.0499 109.59 13.1553 109.779 13.2594 109.969C13.3731 110.175 13.7033 110.13 13.7601 109.905C14.1116 108.527 13.9755 107.023 13.8701 105.623C13.8074 104.787 13.4819 104.004 13.4275 103.173C13.3979 102.724 13.4168 102.274 13.4322 101.825C13.4476 101.339 13.4346 100.853 13.4594 100.367C13.5518 98.5575 14.1116 96.8093 14.2205 95.0008C14.2737 94.1161 14.25 93.2278 14.2299 92.3418C14.2098 91.4157 14.2122 90.4897 14.1932 89.5647C14.1554 87.7291 14.0903 85.8852 14.2844 84.0554C14.4643 82.3521 14.8394 80.6582 14.5897 78.9418C14.527 78.506 14.5021 78.226 14.0548 78.0713C13.7565 77.9685 13.4689 77.8374 13.16 77.7665C12.728 77.6673 12.283 77.6496 11.8463 77.5787C10.9681 77.4358 10.1787 77.0318 9.38811 76.6455C8.65787 76.2888 7.89212 76.0325 7.14413 75.7206C5.63395 75.0922 4.41255 73.9582 3.40418 72.6931C2.35439 71.3748 1.63835 69.9018 1.19098 68.2823C0.260724 64.9134 0.491512 61.3591 0.898646 57.9288C1.08801 56.3317 1.44544 54.7524 2.18159 53.3113C2.95325 51.8029 3.94032 50.3842 5.03863 49.0955C5.56294 48.48 6.09316 47.8504 6.78552 47.4181C7.38912 47.0413 8.059 46.7968 8.74545 46.6184C9.46977 46.4318 10.2118 46.3172 10.9515 46.2097C11.7208 46.0975 12.4819 46.0089 13.2606 46.0171C16.5544 46.0538 19.6256 47.4063 22.1702 49.4404C23.3561 50.3889 24.3775 51.5052 25.2356 52.7561C25.7196 53.4625 26.2321 54.1488 26.7055 54.8623C26.9399 55.2155 27.1706 55.5746 27.3659 55.9502C27.5423 56.288 27.6405 56.6554 27.7364 57.0216C27.9056 57.6677 28.0725 58.3068 28.5068 58.8324C28.7317 59.1041 29.1175 58.7155 28.895 58.445V58.4414Z" fill="black"/>
<path d="M29.5988 86.8266C30.9102 86.0931 32.3044 85.4954 33.5352 84.626C34.1483 84.1925 34.7199 83.6975 35.1933 83.114C35.6656 82.5328 36.1201 81.9292 36.5603 81.3244C37.4409 80.1125 38.2942 78.6678 38.0397 77.1109C37.9131 76.3337 37.5001 75.6391 37.3355 74.8701C37.1521 74.0126 37.0894 73.1621 36.7355 72.3482C36.5532 71.9288 36.3295 71.5296 36.1283 71.1185C35.9271 70.7074 35.81 70.2916 35.6455 69.8758C35.3768 69.1978 34.9176 68.7312 34.3779 68.2575C34.1447 68.0532 33.8015 68.3072 33.9471 68.5895C34.1897 69.0572 34.5282 69.46 34.9448 69.7849C35.2194 69.9999 35.61 69.6148 35.333 69.3974C34.9495 69.0986 34.6454 68.7442 34.4217 68.3131C34.2785 68.4241 34.1341 68.534 33.9909 68.645C34.4205 69.0206 34.8359 69.3892 35.0738 69.9184C35.2218 70.2491 35.3058 70.6035 35.4466 70.9378C35.6028 71.3087 35.7922 71.6631 35.9745 72.0222C36.1567 72.3801 36.3295 72.7427 36.4443 73.129C36.5651 73.5318 36.6254 73.9476 36.6905 74.361C36.7544 74.7709 36.8254 75.1784 36.958 75.573C37.0752 75.9203 37.2231 76.2557 37.3415 76.6018C37.5817 77.3035 37.5935 78.0016 37.3758 78.7103C37.1568 79.4226 36.7663 80.0723 36.3461 80.683C35.9354 81.2795 35.4798 81.8442 35.0419 82.4206C34.6063 82.9935 34.1175 83.5062 33.5435 83.9456C32.2523 84.9343 30.7338 85.5663 29.3219 86.3553C29.0141 86.5278 29.2899 87.0003 29.5988 86.8278V86.8266Z" fill="black"/>
<path d="M99.3814 18.3041C99.9791 16.5121 100.565 14.7155 101.248 12.9542C101.882 11.3159 102.629 9.72827 103.654 8.29306C105.681 5.45336 108.631 3.52085 111.863 2.28882C113.703 1.58716 115.63 1.12884 117.583 0.884325C118.643 0.752026 119.713 0.629177 120.782 0.571297C121.851 0.513416 122.903 0.598465 123.969 0.775651C125.973 1.10758 128.012 1.35446 129.972 1.90492C130.901 2.16597 131.719 2.57704 132.448 3.21137C133.174 3.84215 133.826 4.54853 134.559 5.17105C135.951 6.35111 136.878 7.87136 137.711 9.47194C138.182 10.3756 138.617 11.3005 138.953 12.2632C139.089 12.6554 139.221 13.0416 139.387 13.4232C139.558 13.813 139.737 14.1993 139.881 14.6009C140.005 14.9517 140.11 15.3144 140.095 15.6888C140.277 15.6888 140.461 15.6888 140.643 15.6888C140.64 15.6061 140.638 15.5246 140.635 15.4419C140.624 15.0911 140.075 15.0887 140.087 15.4419C140.089 15.5246 140.091 15.6061 140.095 15.6888C140.106 16.0408 140.629 16.0408 140.643 15.6888C140.677 14.8537 140.256 14.0433 139.928 13.2992C139.546 12.4333 139.283 11.5226 138.896 10.6567C138.482 9.72945 138.011 8.82344 137.502 7.9446C137.061 7.1827 136.567 6.45033 135.981 5.7912C135.347 5.07773 134.584 4.5001 133.901 3.83506C133.219 3.17003 132.493 2.4223 131.613 1.95571C130.763 1.50566 129.821 1.28122 128.884 1.08632C127.857 0.872513 126.831 0.676427 125.794 0.513416C124.707 0.342136 123.612 0.107069 122.512 0.0291075C121.413 -0.0488544 120.313 0.0421011 119.22 0.156681C117.169 0.372848 115.144 0.655165 113.167 1.26232C109.718 2.32189 106.406 4.13037 104.047 6.90393C101.621 9.75662 100.455 13.357 99.2879 16.8511C99.1424 17.287 98.9968 17.7241 98.8512 18.16C98.74 18.4943 99.269 18.6384 99.3803 18.3053L99.3814 18.3041Z" fill="black"/>
<path d="M112.321 109.595C112.699 109.595 113.076 109.594 113.454 109.594C113.855 109.594 114.263 109.622 114.662 109.575C115.021 109.532 115.37 109.471 115.733 109.462C116.136 109.452 116.53 109.444 116.929 109.395C117.733 109.3 118.541 109.231 119.347 109.147C120.136 109.066 120.921 108.898 121.717 108.889C122.472 108.879 123.211 108.939 123.962 108.827C124.757 108.709 125.54 108.567 126.341 108.502C127.95 108.374 129.558 108.247 131.158 108.031C131.917 107.928 132.677 107.863 133.438 107.779C134.234 107.692 135.028 107.567 135.824 107.47C136.619 107.373 137.417 107.28 138.216 107.221C139.003 107.163 139.791 107.132 140.576 107.049C141.351 106.968 142.117 106.821 142.885 106.692C143.64 106.564 144.394 106.485 145.133 106.279C145.867 106.076 146.616 105.943 147.352 105.751C147.712 105.658 148.067 105.552 148.418 105.43C148.785 105.304 149.172 105.249 149.535 105.115C149.827 105.007 150.097 104.851 150.373 104.707C150.711 104.532 151.056 104.37 151.392 104.192C151.704 104.025 151.997 103.836 152.295 103.646C152.611 103.444 152.915 103.272 153.194 103.016C153.693 102.558 154.265 102.152 154.716 101.648C154.933 101.404 155.084 101.121 155.287 100.868C155.513 100.587 155.709 100.325 155.849 99.9892C156.118 99.3442 156.334 98.7111 156.427 98.0153C156.52 97.3066 156.533 96.5801 156.524 95.8655C156.519 95.53 156.517 95.1863 156.453 94.8555C156.385 94.5035 156.241 94.1657 156.087 93.8432C155.778 93.1935 155.41 92.5604 155.004 91.9674C154.809 91.6815 154.683 91.3626 154.522 91.0578C154.365 90.759 154.159 90.4814 154.023 90.1719C153.895 89.8813 153.844 89.5647 153.735 89.2671C153.604 88.908 153.42 88.5701 153.283 88.2134C153.038 87.5732 152.661 87.0145 152.352 86.4049C152.032 85.7753 151.605 85.2249 151.246 84.6201C150.885 84.0129 150.58 83.3727 150.337 82.71C150.091 82.0355 149.953 81.3303 149.649 80.6771C149.344 80.0239 148.927 79.373 148.762 78.6406C148.598 77.9118 148.248 77.2621 147.925 76.5924C147.771 76.2746 147.632 75.9498 147.442 75.6509C147.248 75.3438 147.103 75.0579 147.006 74.7059C146.915 74.3775 146.836 74.0598 146.692 73.7479C146.532 73.4007 146.387 73.0557 146.254 72.6966C145.99 71.9808 145.665 71.2969 145.333 70.6106C144.993 69.9018 144.7 69.1754 144.395 68.4501C144.09 67.7236 143.772 67.0019 143.447 66.2837C143.289 65.9364 143.13 65.5891 142.968 65.243C142.809 64.9016 142.617 64.6134 142.421 64.2945C142.246 64.011 142.109 63.7157 141.92 63.4381C141.715 63.1369 141.506 62.8345 141.257 62.5675C140.779 62.056 140.314 61.5327 139.835 61.0224C139.503 60.6704 139.145 60.2275 138.631 60.1743C138.281 60.1377 138.283 60.6858 138.631 60.7212C138.841 60.7425 139.05 60.9953 139.187 61.1335C139.394 61.3437 139.6 61.5587 139.798 61.7772C140.017 62.0182 140.223 62.2698 140.442 62.5108C140.7 62.7955 140.977 63.0518 141.204 63.3637C141.401 63.6342 141.611 63.9129 141.764 64.2106C141.912 64.4988 142.096 64.7504 142.257 65.0304C142.644 65.7049 142.932 66.4585 143.248 67.1684C143.86 68.5434 144.408 69.942 145.06 71.2992C145.397 71.9997 145.655 72.7191 145.949 73.4373C146.061 73.7149 146.217 73.9747 146.316 74.2582C146.442 74.6221 146.498 75.0012 146.651 75.358C146.77 75.6367 146.952 75.8742 147.098 76.1388C147.287 76.4802 147.441 76.8463 147.612 77.1983C147.773 77.5315 147.948 77.8646 148.083 78.2107C148.206 78.5284 148.233 78.8745 148.345 79.1958C148.592 79.8975 149.011 80.52 149.286 81.2075C149.542 81.8453 149.673 82.5281 149.929 83.1707C150.176 83.7932 150.47 84.3956 150.817 84.9685C151.181 85.5722 151.597 86.125 151.916 86.7558C152.055 87.0286 152.201 87.2909 152.362 87.5507C152.554 87.8614 152.682 88.1862 152.818 88.5229C152.951 88.8489 153.123 89.1608 153.236 89.4951C153.335 89.7904 153.397 90.0928 153.52 90.3798C153.654 90.6881 153.85 90.961 154.009 91.2563C154.172 91.5587 154.294 91.8859 154.483 92.1741C154.88 92.7777 155.258 93.392 155.576 94.0428C155.713 94.324 155.836 94.6157 155.906 94.9217C155.988 95.2831 155.975 95.6753 155.975 96.0439C155.975 96.729 155.97 97.4294 155.862 98.1075C155.81 98.4347 155.735 98.7607 155.624 99.0726C155.505 99.408 155.38 99.773 155.198 100.08C155.045 100.339 154.824 100.548 154.658 100.797C154.462 101.092 154.261 101.35 153.996 101.589C153.758 101.802 153.502 101.996 153.262 102.205C152.993 102.439 152.754 102.715 152.456 102.91C151.861 103.299 151.246 103.658 150.611 103.975C150.31 104.125 150.014 104.281 149.716 104.434C149.362 104.615 148.998 104.687 148.618 104.79C148.293 104.876 147.98 105.002 147.657 105.097C147.271 105.21 146.879 105.305 146.486 105.393C146.13 105.474 145.769 105.54 145.415 105.631C145.073 105.719 144.736 105.826 144.39 105.901C144.03 105.98 143.662 106.012 143.299 106.068C142.894 106.13 142.491 106.203 142.088 106.271C141.335 106.401 140.585 106.507 139.823 106.563C139.068 106.618 138.31 106.651 137.558 106.726C135.993 106.879 134.44 107.135 132.876 107.286C131.342 107.433 129.816 107.657 128.28 107.791C127.474 107.862 126.666 107.915 125.86 107.99C125.105 108.061 124.366 108.234 123.614 108.323C122.889 108.408 122.16 108.305 121.433 108.346C120.638 108.391 119.851 108.546 119.059 108.624C118.285 108.701 117.511 108.78 116.738 108.866C116.374 108.906 116.01 108.898 115.645 108.911C115.284 108.924 114.934 108.996 114.577 109.032C114.208 109.068 113.828 109.041 113.456 109.041C113.079 109.041 112.701 109.041 112.324 109.042C111.971 109.042 111.97 109.589 112.324 109.589L112.321 109.595Z" fill="black"/>
<path d="M128.086 98.5162C129.542 98.0779 131.021 97.7307 132.506 97.4094C134 97.0857 135.495 96.7467 136.993 96.4455C138.492 96.1442 139.941 96.0911 141.404 95.8359C142.163 95.7036 142.916 95.6044 143.681 95.5359C144.047 95.5028 144.415 95.478 144.781 95.4402C145.147 95.4024 145.523 95.3398 145.899 95.3398C146.334 95.3398 146.761 95.3575 147.194 95.3197C147.613 95.2831 148.033 95.2489 148.453 95.2347C148.888 95.2205 149.323 95.217 149.758 95.2193C150.192 95.2217 150.596 95.3067 151.019 95.3457C151.371 95.3788 151.368 94.8307 151.019 94.7988C150.657 94.7646 150.303 94.6831 149.938 94.6748C149.546 94.6653 149.154 94.6783 148.762 94.6819C148 94.689 147.241 94.813 146.479 94.8035C146.096 94.7988 145.716 94.7835 145.334 94.8272C144.958 94.8697 144.584 94.9099 144.208 94.9429C143.453 95.0079 142.697 95.0693 141.949 95.191C141.198 95.3127 140.455 95.452 139.699 95.5383C138.958 95.6221 138.216 95.693 137.478 95.8076C136.732 95.9234 135.997 96.1088 135.258 96.2683C134.508 96.4289 133.757 96.5848 133.007 96.7443C131.304 97.1058 129.606 97.4885 127.938 97.9905C127.601 98.0921 127.745 98.6201 128.084 98.5185L128.086 98.5162Z" fill="black"/>
<path d="M143.424 88.6387C143.362 88.5607 143.304 88.4816 143.246 88.4012C143.113 88.2134 142.817 88.2276 142.746 88.4662C142.674 88.7083 142.784 88.9399 142.893 89.1537C143.023 89.4076 143.132 89.6711 143.224 89.9404C143.439 90.57 143.561 91.2232 143.802 91.8481C143.916 92.1458 144.06 92.4328 144.165 92.7328C144.269 93.027 144.347 93.3294 144.447 93.6247C144.548 93.9282 144.684 94.2141 144.809 94.5082C144.909 94.7445 144.958 95.0032 145.116 95.2111C145.328 95.4875 145.804 95.2146 145.59 94.9347C145.444 94.7433 145.4 94.5047 145.307 94.2873C145.19 94.0192 145.068 93.757 144.974 93.4782C144.88 93.1959 144.804 92.9065 144.707 92.6242C144.607 92.3359 144.473 92.0631 144.36 91.7796C144.129 91.1937 143.993 90.5912 143.816 89.99C143.734 89.716 143.626 89.4502 143.514 89.1867C143.457 89.0533 143.231 88.7544 143.274 88.6103C143.107 88.6316 142.94 88.654 142.773 88.6753C142.858 88.7934 142.946 88.9092 143.036 89.0237C143.254 89.3001 143.639 88.9103 143.424 88.6363V88.6387Z" fill="black"/>
<path d="M131.8 92.0808C132.312 92.2226 132.833 92.3832 133.37 92.3868C133.923 92.3915 134.489 92.2745 135.032 92.1836C135.177 92.1588 135.259 91.9792 135.224 91.8469C135.181 91.6922 135.033 91.6307 134.886 91.6555C134.39 91.7394 133.876 91.8434 133.37 91.8398C132.883 91.8363 132.41 91.6815 131.945 91.554C131.604 91.4606 131.459 91.9875 131.8 92.082V92.0808Z" fill="black"/>
<path d="M130.991 84.7016C131.083 85.2367 131.476 85.7211 132.032 85.8085C132.292 85.8498 132.558 85.8321 132.815 85.7825C133.064 85.7341 133.334 85.6337 133.507 85.4376C133.604 85.3265 133.616 85.16 133.507 85.0501C133.408 84.9509 133.217 84.939 133.119 85.0501C133.103 85.0678 133.087 85.0832 133.071 85.0997C133.028 85.1458 133.108 85.082 133.051 85.1151C133.011 85.1387 132.972 85.1623 132.929 85.1812C132.905 85.193 132.954 85.1741 132.909 85.1883C132.883 85.1966 132.857 85.206 132.831 85.2131C132.778 85.2285 132.724 85.2415 132.669 85.2521C132.579 85.2698 132.537 85.2745 132.416 85.2793C132.333 85.2828 132.212 85.2828 132.157 85.2745C132.084 85.2651 131.989 85.2332 131.933 85.2037C131.909 85.1907 131.887 85.1777 131.864 85.1635C131.851 85.1552 131.816 85.1292 131.845 85.1529C131.804 85.121 131.766 85.0832 131.731 85.0454C131.723 85.0383 131.678 84.9804 131.707 85.0194C131.694 85.0017 131.681 84.9828 131.669 84.965C131.642 84.9237 131.619 84.88 131.597 84.8351C131.56 84.763 131.609 84.8764 131.583 84.7997C131.573 84.7737 131.565 84.7477 131.557 84.7205C131.54 84.6662 131.528 84.6106 131.519 84.5551C131.494 84.4098 131.314 84.3271 131.181 84.3637C131.028 84.4063 130.965 84.5539 130.99 84.7004L130.991 84.7016Z" fill="black"/>
<path d="M136.617 88.7249C136.882 89.0462 137.194 89.3156 137.635 89.3026C138.193 89.2872 138.713 89.0155 139.251 88.8974C139.395 88.8655 139.48 88.6977 139.442 88.5607C139.401 88.4119 139.251 88.3374 139.105 88.3693C138.834 88.4284 138.573 88.5194 138.307 88.6021C138.186 88.6399 138.062 88.6765 137.938 88.706C137.888 88.7178 137.84 88.7285 137.79 88.7379C137.718 88.7509 137.757 88.7462 137.688 88.7521C137.649 88.7544 137.61 88.7556 137.572 88.7545C137.556 88.7545 137.54 88.7521 137.524 88.7509C137.492 88.7485 137.565 88.7651 137.516 88.7485C137.484 88.7379 137.451 88.732 137.417 88.7202C137.383 88.7084 137.467 88.7521 137.41 88.7155C137.397 88.7072 137.383 88.7013 137.37 88.693C137.352 88.6824 137.337 88.6718 137.319 88.6611C137.311 88.6564 137.268 88.621 137.304 88.6505C137.272 88.6245 137.241 88.5962 137.213 88.5678C137.138 88.4946 137.072 88.4166 137.006 88.3363C136.911 88.2217 136.716 88.2394 136.617 88.3363C136.504 88.4497 136.523 88.6091 136.617 88.7237V88.7249Z" fill="black"/>
<path d="M110.613 108.012H110.59C110.59 108.742 110.59 109.471 110.59 110.201C111.247 110.189 111.952 110.124 112.605 110.2C112.605 109.47 112.605 108.741 112.605 108.011L112.582 108.013C112.679 108.73 112.776 109.446 112.873 110.163C115.34 109.445 118.038 109.992 120.57 109.723C121.824 109.589 123.1 109.654 124.362 109.653C125.043 109.653 125.726 109.654 126.408 109.653C126.976 109.653 127.496 109.498 128.048 109.466C129.447 109.385 129.469 107.231 128.048 107.277L127.919 107.282C126.512 107.328 126.505 109.517 127.919 109.471L128.048 109.466C128.048 108.736 128.048 108.007 128.048 107.277C127.485 107.311 126.976 107.464 126.408 107.464C125.726 107.464 125.043 107.462 124.362 107.464C122.988 107.465 121.62 107.423 120.253 107.569C117.607 107.852 114.884 107.299 112.291 108.052C111.148 108.385 111.309 110.304 112.582 110.202L112.605 110.2C114.032 110.086 113.995 108.172 112.605 108.011C111.951 107.935 111.247 108.002 110.59 108.012C109.181 108.037 109.176 110.197 110.59 110.201H110.613C112.023 110.205 112.026 108.016 110.613 108.012Z" fill="black"/>
<path d="M136.581 116.426C137.686 116.77 138.779 116.632 139.914 116.66C140.935 116.685 141.807 116.795 142.777 116.388C143.829 115.948 144.797 115.727 145.944 115.704C146.837 115.688 147.755 115.662 148.532 115.169C149.72 114.417 148.622 112.522 147.425 113.279C146.85 113.643 146.043 113.49 145.392 113.53C144.404 113.591 143.435 113.761 142.513 114.124C142.156 114.264 141.811 114.477 141.43 114.531C141.026 114.588 140.581 114.503 140.176 114.482C139.163 114.43 138.149 114.622 137.164 114.315C135.814 113.895 135.236 116.007 136.581 116.426Z" fill="black"/>
</svg>
