<svg width="128" height="119" viewBox="0 0 128 119" fill="none" xmlns="http://www.w3.org/2000/svg">
<g id="Group 111">
<path id="Vector" d="M90.933 3.91904C92.1428 4.11835 93.3513 4.25193 94.4939 4.72412C95.4778 5.1313 96.4567 5.55205 97.4141 6.01852C99.3104 6.94289 101.215 8.05014 102.594 9.67743C102.919 10.061 103.266 10.4325 103.554 10.8447C103.854 11.2733 104.051 11.744 104.198 12.2448C104.553 13.4599 104.788 14.7057 104.97 15.9573C105.062 16.5909 105.15 17.2181 105.294 17.8425C105.435 18.4547 105.597 19.0647 105.674 19.6898C105.753 20.3291 105.737 20.982 105.732 21.6257C105.726 22.3036 105.701 22.9815 105.647 23.6573C105.586 24.4231 105.496 25.191 105.317 25.9389C105.162 26.5847 104.949 27.214 104.755 27.8477C104.429 28.9063 103.626 29.9371 103.664 31.0801C103.665 31.1251 103.696 31.173 103.742 31.183C105.574 31.5966 107.45 31.0008 109.292 31.293C109.764 31.368 110.232 31.4716 110.706 31.5337C111.15 31.5923 111.593 31.5894 112.04 31.5937C113.017 31.6037 113.929 31.9873 114.844 32.2981C116.682 32.9231 118.534 33.621 120.135 34.7369C121.666 35.8027 123.006 37.1621 124.211 38.5786C124.868 39.3509 125.426 40.1988 125.985 41.0417C126.479 41.7861 127.02 42.4804 127.246 43.3605C127.477 44.2534 127.535 45.2078 127.663 46.1208C127.739 46.658 127.8 47.2001 127.784 47.7438C127.769 48.2567 127.665 48.7639 127.613 49.2746C127.511 50.284 127.477 51.3005 127.13 52.2642C126.817 53.1357 126.372 53.9815 125.943 54.8016C125.547 55.5595 125.009 56.2081 124.393 56.7975C123.716 57.4468 123.086 58.1419 122.423 58.8062C121.078 60.1528 119.455 61.1857 117.704 61.9258C116.849 62.2872 115.965 62.5437 115.067 62.773C114.133 63.0116 113.183 63.2209 112.221 63.3102C111.283 63.3966 110.373 63.3066 109.448 63.1437C108.468 62.9716 107.491 62.7937 106.507 62.6437C105.483 62.4873 104.453 62.3337 103.447 62.0794C102.493 61.8386 101.569 61.4965 100.662 61.1186C98.8178 60.3513 96.9758 59.552 95.2111 58.614C94.318 58.1397 93.4385 57.6411 92.5576 57.1439C91.721 56.6717 90.8901 56.1681 90.017 55.7659C89.2462 55.4116 88.4261 55.1052 87.819 54.4887C87.1955 53.8565 86.6921 53.1028 86.3102 52.3027C85.5166 50.6405 85.1154 48.6638 85.4122 46.8344C85.5587 45.9293 85.8247 45.0192 86.2344 44.1977C86.5934 43.4791 87.0739 42.8355 87.5709 42.2061C88.6878 40.7924 89.8182 39.3816 91.1032 38.115C92.4267 36.8106 93.9069 35.5684 95.7166 35.0333C96.584 34.7776 97.4771 34.6304 98.3601 34.4418C99.2353 34.2547 100.075 34.149 100.958 34.3568C101.802 34.5554 102.584 34.9555 103.354 35.3419C103.477 35.4034 103.586 35.219 103.462 35.1569C102.688 34.769 101.902 34.3668 101.057 34.1604C100.24 33.9604 99.4127 33.9932 98.5954 34.1711C97.6651 34.374 96.7205 34.5283 95.8031 34.7854C94.9079 35.0369 94.1013 35.4155 93.3405 35.9505C91.8075 37.0285 90.4832 38.3636 89.2677 39.7823C88.6527 40.5002 88.0635 41.2403 87.4765 41.9811C86.9759 42.6133 86.4819 43.2555 86.1079 43.9734C84.4411 47.1716 84.9367 51.3398 87.2105 54.1272C87.7825 54.8287 88.4389 55.2837 89.2591 55.6588C90.135 56.0588 90.9759 56.5003 91.8161 56.9718C93.6559 58.0047 95.4814 59.0741 97.4091 59.937C99.2382 60.755 101.085 61.6429 103.019 62.1865C104.048 62.4758 105.107 62.6437 106.163 62.8059C107.207 62.9666 108.244 63.1445 109.283 63.3302C110.208 63.4959 111.127 63.6102 112.068 63.5366C113.016 63.4623 113.953 63.2695 114.875 63.0416C116.742 62.5794 118.505 61.9222 120.14 60.8964C120.935 60.3978 121.678 59.8306 122.352 59.177C123.064 58.4862 123.717 57.7375 124.435 57.0532C125.044 56.4724 125.6 55.8531 126.015 55.1166C126.466 54.3179 126.883 53.4621 127.226 52.6114C127.601 51.6784 127.696 50.719 127.785 49.7261C127.832 49.196 127.918 48.6717 127.972 48.1431C128.027 47.6116 127.995 47.0766 127.933 46.5472C127.872 46.0286 127.783 45.5136 127.715 44.9964C127.653 44.5313 127.615 44.0641 127.522 43.6041C127.343 42.719 126.908 42.039 126.413 41.2989C125.861 40.4752 125.327 39.6395 124.714 38.8594C124.113 38.095 123.441 37.3785 122.755 36.692C121.402 35.3391 119.903 34.1797 118.162 33.3696C117.252 32.946 116.315 32.5852 115.368 32.2538C114.864 32.0773 114.357 31.9087 113.849 31.743C113.407 31.598 112.973 31.4423 112.506 31.4001C112.045 31.3587 111.581 31.3944 111.119 31.363C110.577 31.3251 110.046 31.2065 109.512 31.1144C108.562 30.9508 107.631 30.9929 106.673 31.0565C105.718 31.1201 104.741 31.1894 103.799 30.9772C103.825 31.0115 103.851 31.0458 103.877 31.0808C103.842 29.9986 104.607 29.0599 104.914 28.0591C105.285 26.849 105.641 25.6725 105.787 24.4102C105.943 23.0629 105.975 21.6964 105.936 20.3413C105.9 19.0719 105.453 17.8725 105.277 16.6231C105.097 15.3501 104.903 14.0821 104.581 12.8356C104.438 12.2805 104.291 11.7183 104.025 11.2069C103.818 10.8104 103.54 10.4596 103.252 10.1203C102.575 9.32525 101.891 8.58304 101.058 7.94656C100.191 7.28364 99.2482 6.72216 98.2815 6.21711C97.2096 5.65706 96.1028 5.16702 94.988 4.69983C94.3681 4.43981 93.7538 4.20621 93.0953 4.06334C92.3995 3.91262 91.6909 3.82832 90.9888 3.7126C90.8536 3.69045 90.7957 3.8969 90.9316 3.91904" fill="black"/>
<path id="Vector_2" d="M100.573 60.6774C99.7499 61.5004 98.9433 62.3404 98.0774 63.1191C97.2222 63.8877 96.2927 64.5778 95.3996 65.3021C94.9498 65.6672 94.4464 65.9815 94.0188 66.3715C93.6284 66.7273 93.3281 67.168 92.9499 67.5366C92.1547 68.3117 91.2767 68.9982 90.3821 69.654C88.6253 70.9419 86.7783 72.1235 85.1845 73.6193C84.3543 74.398 83.5635 75.2202 82.8363 76.096C82.1034 76.9782 81.4663 77.9204 80.8378 78.8777C80.5153 79.3691 80.1949 79.8685 79.8331 80.3321C79.5271 80.7235 79.1553 81.0571 78.7827 81.3843C78.0748 82.0065 77.3798 82.6151 76.9551 83.4731C76.5303 84.3324 76.2694 85.2618 75.9469 86.1619C75.5708 87.2127 75.1274 88.2399 74.7356 89.2858C74.3273 90.373 73.9476 91.4745 73.6623 92.6011C73.3741 93.7376 73.2476 94.9034 72.998 96.0471C72.4832 98.4023 71.6988 100.686 71.1089 103.022C70.5104 105.392 70.0871 107.806 69.5344 110.187C68.9959 112.508 68.2759 114.806 68.1336 117.198C68.1 117.764 68.1014 118.332 68.1422 118.898C68.2123 118.888 68.2823 118.878 68.3531 118.869C68.2609 118.627 68.1315 118.419 67.9548 118.229C67.8605 118.128 67.7089 118.28 67.8032 118.381C67.9548 118.543 68.0671 118.718 68.1465 118.926C68.1858 119.031 68.3667 119.028 68.3574 118.898C68.1836 116.505 68.7764 114.199 69.3456 111.899C69.9369 109.51 70.4418 107.103 70.9459 104.696C71.4371 102.35 72.1886 100.075 72.8014 97.7601C73.101 96.6279 73.357 95.4863 73.5315 94.3276C73.7009 93.2018 73.9955 92.1017 74.3495 91.0209C74.7113 89.9165 75.1324 88.8336 75.5586 87.7528C75.9319 86.8055 76.2722 85.854 76.6104 84.8939C76.9479 83.9346 77.329 83.053 78.0627 82.3273C78.737 81.6593 79.5249 81.11 80.0948 80.3421C80.7827 79.4163 81.3669 78.419 82.0362 77.4797C82.7019 76.5453 83.4519 75.6709 84.2471 74.8451C85.8116 73.2214 87.5892 71.907 89.4233 70.6069C90.2942 69.9897 91.1615 69.3654 91.9846 68.6853C92.4071 68.336 92.8262 67.9745 93.2101 67.5823C93.5669 67.2187 93.8558 66.7894 94.2455 66.458C94.6753 66.0922 95.1543 65.7779 95.5934 65.4207C96.0689 65.0335 96.5401 64.6414 97.0278 64.2692C97.9187 63.5891 98.7346 62.8226 99.5283 62.0333C99.9294 61.6339 100.326 61.2303 100.726 60.8296C100.824 60.7317 100.672 60.5803 100.574 60.6781" fill="black"/>
<path id="Vector_3" d="M30.3542 118.724C31.5719 117.648 32.8297 116.611 33.9409 115.423C34.4793 114.847 35.0191 114.232 35.4253 113.552C35.6234 113.222 35.7835 112.87 35.9544 112.525C36.1232 112.185 36.3155 111.896 36.5672 111.612C36.7832 111.369 36.9841 111.117 37.1092 110.814C37.2472 110.479 37.3008 110.112 37.4653 109.787C37.6269 109.468 37.9101 109.224 38.1489 108.963C38.357 108.734 38.54 108.488 38.6887 108.216C39.4967 106.741 40.2969 105.227 40.9011 103.656C41.2164 102.836 41.4881 101.996 41.7355 101.154C41.8578 100.738 41.9858 100.32 42.0409 99.8883C42.0952 99.459 42.0916 99.0261 42.1088 98.5939C42.1453 97.6824 42.4534 96.8337 42.6601 95.9529C42.856 95.1164 43.0176 94.2721 43.1663 93.4256C43.4681 91.704 43.7856 89.9781 44.0144 88.2451C44.1288 87.3771 44.2074 86.5028 44.2081 85.627C44.2081 85.2034 44.1931 84.7798 44.1324 84.3604C44.0773 83.979 43.9929 83.6025 43.9293 83.2218C43.7806 82.3367 43.8471 81.4259 43.8442 80.5315C43.8421 79.6193 43.8306 78.7063 43.8513 77.7948C43.8614 77.3448 43.8735 76.894 43.8642 76.444C43.8592 76.194 43.8506 75.9625 43.7841 75.7218C43.6619 75.2789 43.4638 74.8217 43.4688 74.3552C43.4709 74.1459 43.5367 73.9852 43.7591 73.9502C43.895 73.9288 43.837 73.7223 43.7019 73.7437C42.7866 73.888 43.501 75.4203 43.6132 75.9182C43.6912 76.2647 43.6547 76.6554 43.6511 77.0091C43.6468 77.4591 43.6311 77.9098 43.6254 78.3599C43.614 79.2764 43.6297 80.1929 43.6297 81.1094C43.6297 81.5609 43.6089 82.0159 43.629 82.4674C43.6454 82.8553 43.7112 83.2382 43.7834 83.6189C43.8614 84.0304 43.9443 84.4419 43.9722 84.8605C44.0015 85.3005 43.9986 85.7441 43.9822 86.1842C43.9157 87.9929 43.561 89.7745 43.2643 91.5561C42.9761 93.2863 42.698 95.0214 42.2468 96.7187C42.1352 97.1388 41.9951 97.5509 41.94 97.9838C41.8857 98.4124 41.8893 98.8446 41.8721 99.2754C41.8356 100.186 41.5539 101.046 41.2772 101.908C41.004 102.759 40.7123 103.604 40.3519 104.424C40.0051 105.212 39.6133 105.98 39.2143 106.743C38.8575 107.427 38.5522 108.188 38.0338 108.768C37.8107 109.018 37.5475 109.246 37.3645 109.528C37.1857 109.803 37.1078 110.125 37.0134 110.435C36.8947 110.824 36.7038 111.134 36.4342 111.437C36.2118 111.687 36.0138 111.935 35.8593 112.234C35.6756 112.591 35.5132 112.959 35.3166 113.309C35.1085 113.679 34.8525 114.019 34.5873 114.35C33.569 115.62 32.3435 116.701 31.12 117.768C30.814 118.035 30.5072 118.301 30.2026 118.571C30.0989 118.662 30.2512 118.814 30.3542 118.722" fill="black"/>
<path id="Vector_4" d="M95.0544 58.6093C93.7995 59.8815 92.4731 61.0802 91.1123 62.2374C89.7516 63.3954 88.3573 64.5126 86.9594 65.6263C86.2758 66.1707 85.5886 66.7093 84.9237 67.2758C84.2694 67.833 83.6259 68.403 82.9444 68.9259C82.6041 69.1874 82.2537 69.4374 81.8919 69.6688C81.5408 69.8931 81.1854 70.106 80.8458 70.3482C80.1736 70.8289 79.5451 71.3668 78.9173 71.9033C78.3152 72.4177 77.7082 72.9206 77.0704 73.3906C76.8001 73.5899 76.5398 73.8028 76.2788 74.0128C75.5523 74.5986 74.823 75.1829 74.0464 75.7015C73.6603 75.9594 73.2627 76.203 72.8452 76.4052C72.5055 76.5695 72.1416 76.7159 71.7647 76.7659C71.4759 76.8038 71.167 76.7766 70.926 76.5995C70.6435 76.3909 70.5177 76.0337 70.4519 75.703C70.3961 75.4236 70.389 75.14 70.3776 74.8565C70.3611 74.4607 70.3397 74.065 70.3239 73.6692C70.2903 72.8591 70.271 72.0419 70.3575 71.234C70.4011 70.8247 70.5048 70.4275 70.5613 70.021C70.6214 69.586 70.6471 69.1474 70.6979 68.7109C70.7408 68.3437 70.8345 67.988 70.8874 67.6229C70.9324 67.3129 70.9675 67.0007 71.0425 66.6964C71.1055 66.4414 71.1948 66.1699 71.4051 65.9985C71.5116 65.9113 71.3593 65.7599 71.2535 65.8471C71.0368 66.0242 70.9274 66.3 70.8559 66.5621C70.7715 66.8707 70.7344 67.1893 70.6893 67.5058C70.6393 67.8594 70.5499 68.2037 70.5027 68.558C70.4419 69.0116 70.419 69.4695 70.3597 69.9239C70.3068 70.3303 70.2031 70.7268 70.1545 71.1347C70.1058 71.5419 70.0872 71.9526 70.083 72.3634C70.0744 73.1892 70.1273 74.0135 70.1623 74.8379C70.1938 75.5958 70.2553 76.6666 71.1305 76.9388C71.4558 77.0402 71.8134 76.9959 72.1366 76.9088C72.5456 76.7988 72.9345 76.6138 73.3042 76.4102C74.163 75.938 74.9503 75.3415 75.7182 74.7364C76.0528 74.4721 76.3832 74.2028 76.7164 73.9371C77.0725 73.6521 77.445 73.3892 77.804 73.1077C78.469 72.5855 79.0996 72.0226 79.7482 71.4811C80.4103 70.9275 81.0939 70.416 81.829 69.9639C83.3091 69.0538 84.5511 67.8287 85.8997 66.7457C87.3198 65.6056 88.7527 64.4819 90.1563 63.3211C91.56 62.1596 92.9393 60.9666 94.2528 59.7044C94.5746 59.395 94.8928 59.0814 95.206 58.7635C95.3032 58.665 95.1516 58.5135 95.0544 58.6121" fill="black"/>
<path id="Vector_5" d="M62.283 70.3262C61.9104 70.6919 61.8511 71.2563 61.8068 71.7492C61.7825 72.0128 61.7689 72.2792 61.7224 72.54C61.6702 72.835 61.5637 73.1215 61.4778 73.4079C61.2791 74.0673 61.0767 74.743 60.717 75.3359C60.3845 75.8838 59.9641 76.3775 59.751 76.9904C59.5637 77.5297 59.4786 78.1683 58.9223 78.4612C58.9745 78.4827 59.0274 78.5041 59.0796 78.5255C59.0574 78.4505 59.0353 78.3748 59.0124 78.2998C58.9731 78.1676 58.7664 78.2241 58.8057 78.3569C58.8279 78.4319 58.8501 78.5077 58.8729 78.5827C58.893 78.6512 58.9688 78.6791 59.0303 78.647C59.5279 78.3855 59.7053 77.8733 59.8568 77.3676C59.9391 77.0925 60.0313 76.8282 60.1707 76.5753C60.3316 76.2839 60.5283 76.0139 60.7135 75.7374C60.9015 75.4567 61.0674 75.1681 61.2011 74.8566C61.3398 74.5337 61.455 74.2008 61.5608 73.8658C61.6666 73.5322 61.7653 73.1957 61.8668 72.8607C61.9405 72.6171 61.9669 72.3614 61.9898 72.1092C62.017 71.8106 62.0327 71.5092 62.0914 71.2148C62.145 70.9455 62.2344 70.6748 62.4339 70.4776C62.5325 70.3805 62.3809 70.229 62.2823 70.3262" fill="black"/>
<path id="Vector_6" d="M58.8013 71.7792C58.7984 72.1992 58.807 72.6193 58.8656 73.0364C58.9271 73.4701 59.0451 73.9244 59.3318 74.2673C59.4834 74.4487 59.6865 74.578 59.9146 74.6394C60.0483 74.6752 60.1048 74.4687 59.9718 74.433C59.5899 74.3308 59.3583 74.0065 59.2296 73.6494C59.0866 73.2522 59.0415 72.825 59.0236 72.4057C59.0151 72.1971 59.0143 71.9885 59.0158 71.7792C59.0165 71.6413 58.802 71.6413 58.8013 71.7792Z" fill="black"/>
<path id="Vector_7" d="M1.57387 32.4172C1.00326 32.8594 0.929614 33.7888 0.881707 34.4488C0.810917 35.4182 0.85668 36.3983 0.854535 37.3691C0.85239 38.6635 0.795902 39.9615 0.817353 41.2552C0.825933 41.7795 0.853105 42.3074 1.00469 42.8132C1.15986 43.3289 1.45088 43.7447 1.73118 44.1969C2.03936 44.6941 2.27246 45.232 2.56563 45.737C2.80017 46.1399 3.10477 46.4985 3.43655 46.8243C4.15445 47.5308 4.99606 48.1101 5.85125 48.6366C6.31174 48.9202 6.72718 49.2331 7.1226 49.6024C7.49656 49.9517 7.85909 50.316 8.26809 50.6253C8.73931 50.9818 9.28488 51.2118 9.77969 51.5297C10.1994 51.7997 10.6299 52.0476 11.0775 52.2683C12.928 53.1813 14.9873 53.7599 17.0445 53.9313C17.5858 53.9763 18.1292 53.9721 18.6712 54.0013C19.3069 54.0356 19.9404 54.0956 20.574 54.1578C21.8146 54.2799 23.058 54.4114 24.3065 54.3792C25.5185 54.3485 26.6897 54.1171 27.8495 53.7749C28.97 53.4442 30.0704 53.0434 31.2059 52.7612C31.783 52.6184 32.345 52.4791 32.8956 52.2498C33.4297 52.0276 33.9438 51.7611 34.4515 51.4847C34.9578 51.2082 35.4569 50.9175 35.9717 50.6568C36.5151 50.3817 37.0957 50.1574 37.6091 49.8267C38.0467 49.5438 38.4307 49.1895 38.819 48.8437C39.2273 48.4794 39.6592 48.143 40.0846 47.7986C40.9913 47.065 41.8865 46.3092 42.6659 45.4384C42.9698 45.0991 43.2437 44.7355 43.5583 44.4055C43.8565 44.0933 44.1675 43.794 44.4721 43.4882C45.0813 42.876 45.7327 42.2153 46.0774 41.4095C46.2118 41.0952 46.2869 40.7616 46.2561 40.4187C46.244 40.2822 46.0295 40.2808 46.0416 40.4187C46.116 41.2323 45.5654 41.9645 45.062 42.5467C44.5014 43.1954 43.8565 43.7618 43.2766 44.3919C42.9569 44.7391 42.6738 45.1177 42.352 45.4641C41.973 45.872 41.5683 46.2564 41.1515 46.625C40.3256 47.355 39.4339 48.0058 38.6123 48.7401C38.2191 49.0916 37.8272 49.4466 37.3732 49.7202C36.8684 50.0246 36.3106 50.2417 35.7865 50.5103C34.7533 51.0396 33.7715 51.6718 32.6896 52.1033C32.1612 52.3133 31.6192 52.4348 31.0701 52.5741C30.5159 52.7141 29.9696 52.882 29.4255 53.0548C28.3393 53.3999 27.256 53.7685 26.1334 53.9785C23.7123 54.4321 21.2697 53.9428 18.845 53.7956C17.786 53.7313 16.7449 53.7242 15.696 53.5384C14.6734 53.357 13.6667 53.0834 12.6921 52.7248C11.7546 52.3798 10.8401 51.9547 9.9985 51.4147C9.53014 51.1139 9.01603 50.8868 8.5584 50.5703C8.12008 50.2674 7.74182 49.8888 7.3557 49.5245C6.98674 49.1766 6.60491 48.8437 6.17087 48.5773C5.7726 48.333 5.37718 48.0851 4.99463 47.8172C4.18949 47.2529 3.36505 46.6014 2.83306 45.7606C2.54275 45.3013 2.32752 44.7976 2.05938 44.3262C1.79124 43.854 1.44945 43.4354 1.2664 42.9182C1.0812 42.3953 1.04402 41.8474 1.03401 41.2966C1.02185 40.6787 1.04617 40.0608 1.05975 39.4436C1.08621 38.2199 1.07548 36.9934 1.06905 35.7697C1.06547 34.9996 1.05403 34.2095 1.24352 33.4573C1.32646 33.1287 1.45017 32.7815 1.72689 32.5665C1.83557 32.4822 1.68327 32.3315 1.5753 32.4151" fill="black"/>
<path id="Vector_8" d="M25.3565 53.1179C25.0561 53.6308 24.547 54.0423 24.3511 54.6145C24.2574 54.8881 24.2939 55.1588 24.3247 55.4403C24.3676 55.8346 24.2725 56.1132 24.1116 56.4647C23.8534 57.0283 23.8756 57.6848 23.9135 58.2906C23.9536 58.9206 24.0401 59.5321 24.2517 60.1293C24.7008 61.3951 25.5123 62.4466 26.1938 63.5882C26.542 64.1711 26.8838 64.759 27.2764 65.3141C27.6746 65.8755 28.1351 66.3784 28.6128 66.8721C30.5098 68.8308 32.6392 70.4752 35.0245 71.7961C37.3034 73.0576 39.7681 74.4477 42.4224 74.632C43.1703 74.6842 43.9275 74.6463 44.6769 74.6578C45.4563 74.6699 46.2357 74.6899 47.0151 74.7056C48.6096 74.7392 50.2092 74.7642 51.8016 74.6635C53.3332 74.567 54.8183 74.1427 56.3435 74.0034C57.0493 73.9391 57.7279 73.907 58.42 73.7362C59.1694 73.5519 59.8966 73.2926 60.6395 73.0869C62.0202 72.7033 63.4553 72.5326 64.8454 72.1768C66.1968 71.8304 67.5268 71.3675 68.7424 70.676C69.3816 70.3124 70.0187 69.9759 70.6908 69.6759C71.3208 69.3951 71.9915 69.1344 72.5428 68.7122C72.7588 68.5472 72.9582 68.3629 73.1692 68.1922C73.4659 67.9522 73.792 67.785 74.1145 67.585C74.743 67.1957 75.32 66.7249 75.9014 66.2699C77.1134 65.3205 78.2603 64.2897 79.36 63.2131C80.3303 62.2631 81.1162 61.1472 82.0908 60.2064C82.5906 59.7235 83.1812 59.3514 83.686 58.8727C84.1637 58.4198 84.5913 57.9177 85.001 57.4033C85.41 56.8897 85.8483 56.3775 86.1686 55.8025C86.4768 55.2496 86.6821 54.6438 86.8008 54.023C86.9194 53.4022 86.9559 52.77 86.9559 52.1386C86.9559 52.0007 86.7414 52.0007 86.7414 52.1386C86.7421 53.4873 86.5476 54.8531 85.7968 56.0046C85.4379 56.5547 85.0046 57.0704 84.587 57.5769C84.168 58.0848 83.7225 58.5727 83.2234 59.0035C82.7236 59.4357 82.1844 59.7943 81.7232 60.2722C81.2785 60.7322 80.8795 61.2337 80.4662 61.7223C79.5424 62.816 78.4769 63.7968 77.4037 64.7419C76.3104 65.7055 75.1627 66.7092 73.9093 67.46C73.659 67.61 73.4052 67.7407 73.1728 67.9186C72.8939 68.1322 72.6401 68.3779 72.3569 68.5865C71.8106 68.988 71.147 69.2387 70.5321 69.5137C69.2436 70.0895 68.0709 70.8717 66.7445 71.3668C65.4439 71.8525 64.0853 72.1604 62.7253 72.4297C62.0467 72.564 61.3617 72.6712 60.6938 72.8512C59.9867 73.0419 59.2945 73.2855 58.5866 73.4741C57.8394 73.6727 57.1086 73.7205 56.3435 73.7905C55.6492 73.8541 54.9628 73.977 54.2771 74.1006C53.5341 74.2349 52.7898 74.3727 52.0361 74.4335C51.2674 74.4963 50.4923 74.5106 49.7215 74.5178C48.2035 74.5313 46.6855 74.4813 45.1681 74.4527C43.7352 74.4256 42.3051 74.5178 40.9022 74.1692C39.5937 73.8441 38.3495 73.2955 37.1489 72.6904C34.7714 71.4918 32.494 70.1402 30.4905 68.375C29.4865 67.49 28.4626 66.5413 27.6532 65.4712C26.838 64.3933 26.2145 63.1767 25.4651 62.0538C24.7365 60.9601 24.2396 59.7693 24.1373 58.4541C24.083 57.7562 24.0658 57.0654 24.3683 56.4211C24.4691 56.2061 24.552 55.9903 24.5578 55.7489C24.5663 55.4003 24.4362 55.0588 24.542 54.7138C24.7165 54.1445 25.2428 53.7323 25.5388 53.2272C25.6089 53.1079 25.4237 53.0001 25.3536 53.1187" fill="black"/>
<path id="Vector_9" d="M86.884 42.9372C86.721 41.5685 85.6656 40.5419 84.5894 39.7862C83.3016 38.8818 81.7822 38.1517 80.2584 37.7567C79.4297 37.5417 78.5716 37.5753 77.725 37.6188C76.8176 37.6645 75.9067 37.6395 75.0029 37.7446C73.1466 37.9596 71.2768 38.3696 69.4913 38.9175C67.4878 39.5333 65.5557 40.3619 63.7152 41.362L63.8618 41.5085C64.7062 40.3462 65.4506 38.9118 65.0995 37.4345C64.9243 36.6966 64.4824 36.1094 64.0105 35.5336C63.5014 34.9129 62.9665 34.3128 62.4009 33.7428C61.3205 32.6534 60.1214 31.6569 58.7757 30.9104C58.0692 30.5182 57.3148 30.2817 56.5848 29.946C55.8912 29.6267 55.2412 29.2138 54.5047 28.9923C52.9381 28.5223 51.257 28.2723 49.621 28.3773C47.9671 28.4837 46.3847 28.9988 44.8367 29.5581C41.6118 30.7218 38.4385 31.9719 35.5104 33.7778C34.1217 34.6343 32.8032 35.6044 31.6148 36.723C30.4107 37.8567 29.3546 39.1318 28.3871 40.4712C28.3063 40.5834 28.4922 40.6905 28.5723 40.5791C30.2591 38.2439 32.2448 36.2058 34.6394 34.5921C37.3423 32.7712 40.3319 31.4197 43.3887 30.3103C44.9024 29.761 46.4133 29.1581 47.9928 28.8216C49.5881 28.4823 51.2341 28.5044 52.833 28.8109C53.6224 28.9623 54.4347 29.138 55.1676 29.4752C55.8469 29.7874 56.4833 30.1581 57.1883 30.4146C58.6362 30.9404 59.9398 31.8183 61.1003 32.8198C61.7431 33.3749 62.348 33.9735 62.9208 34.6007C63.4921 35.2265 64.1321 35.888 64.5504 36.6287C65.4749 38.2682 64.6834 40.0155 63.6766 41.4006C63.6101 41.4928 63.7359 41.5942 63.8232 41.547C66.9944 39.824 70.3844 38.7196 73.9382 38.1146C74.8656 37.9567 75.7751 37.8903 76.7132 37.876C77.5291 37.8631 78.3435 37.7703 79.1601 37.811C79.9938 37.8524 80.7854 38.1103 81.5548 38.4196C82.3077 38.7218 83.0421 39.0818 83.74 39.4954C85.0106 40.2484 86.4814 41.3606 86.6688 42.9379C86.6845 43.0729 86.8997 43.075 86.8833 42.9379" fill="black"/>
<path id="Vector_10" d="M45.1874 13.2713C45.8553 12.4933 46.5532 11.739 47.309 11.0446C48.0683 10.3467 48.9078 9.74523 49.7001 9.08517C50.5188 8.40296 51.3146 7.69147 52.1369 7.01284C52.8677 6.40921 53.6593 5.87987 54.4794 5.40555C56.1469 4.43974 57.9381 3.68753 59.7714 3.09891C60.7868 2.77316 61.8165 2.49457 62.8347 2.18025C63.8558 1.86451 64.8389 1.46947 65.8986 1.2966C66.8611 1.13944 67.8793 1.10229 68.7803 0.702258C69.2686 0.48581 69.7177 0.477952 70.2432 0.520813C70.7295 0.560102 71.2 0.559388 71.6869 0.51867C72.7652 0.428662 73.8342 0.234358 74.9175 0.210785C75.9764 0.187925 77.0404 0.260789 78.0937 0.363656C80.256 0.575104 82.3854 0.989427 84.5333 1.29803C86.6663 1.60448 88.8229 1.78379 90.9237 2.28026C92.9601 2.76102 94.7949 3.74111 96.5754 4.81192C97.3912 5.30268 98.215 5.78772 98.9136 6.44135C99.6086 7.09141 100.26 7.85077 100.692 8.70228C100.8 8.91515 100.893 9.13517 100.964 9.36305C100.999 9.47878 101.033 9.59807 101.055 9.71737C101.085 9.88096 101.084 9.90667 100.939 10.0017C100.824 10.0767 100.931 10.2624 101.047 10.1867C101.117 10.1417 101.186 10.096 101.255 10.051C101.284 10.0324 101.313 9.99597 101.308 9.95882C101.19 9.05445 100.746 8.25081 100.195 7.53717C99.625 6.79996 98.9629 6.13061 98.2035 5.58913C97.4034 5.01908 96.5368 4.52618 95.683 4.03971C94.7949 3.53323 93.884 3.0639 92.9337 2.68601C90.9265 1.88808 88.7507 1.62806 86.6213 1.35875C84.4003 1.07801 82.2002 0.677256 79.9835 0.374371C77.8313 0.0807726 75.6418 -0.139247 73.4738 0.105061C72.4305 0.222214 71.3859 0.400088 70.334 0.314365C69.8972 0.278648 69.4438 0.232215 69.0198 0.372942C68.8117 0.442234 68.6194 0.550101 68.4142 0.627251C68.1667 0.720831 67.9 0.767978 67.6405 0.81584C66.5822 1.01229 65.4939 1.06801 64.4664 1.40947C63.4053 1.76236 62.3456 2.10667 61.2716 2.42242C59.3825 2.97675 57.5298 3.60752 55.7601 4.47903C54.8813 4.91193 54.0261 5.39483 53.2145 5.94345C52.3986 6.49565 51.6557 7.13428 50.9092 7.77505C50.0626 8.50154 49.2174 9.22947 48.3322 9.90882C47.5213 10.5317 46.7741 11.2246 46.0712 11.9661C45.7159 12.3412 45.3719 12.7276 45.0351 13.1198C44.9458 13.2241 45.0966 13.3763 45.1867 13.2713" fill="black"/>
<path id="Vector_11" d="M57.4985 29.9571C57.4992 29.1585 57.61 28.3684 57.6923 27.5755C57.7338 27.1783 57.7666 26.779 57.7709 26.3797C57.7752 25.9732 57.7545 25.5682 57.7373 25.1624C57.7202 24.7574 57.7051 24.3516 57.7223 23.9459C57.7388 23.5451 57.8002 23.1494 57.8503 22.7522C57.8953 22.3915 57.9361 22.03 57.9626 21.6671C57.9919 21.2728 57.9969 20.8799 57.9997 20.4849C58.0055 19.6383 58.2693 18.8176 58.2479 17.9689C58.2443 17.831 58.0326 17.8303 58.0334 17.9689C58.0369 18.769 58.0205 19.5698 57.9425 20.367C57.8625 21.1835 57.693 21.9814 57.545 22.7872C57.3955 23.5987 57.279 24.4188 57.2826 25.246C57.2861 26.0825 57.2382 26.9162 57.1767 27.7498C57.1081 28.6806 57.0352 29.6114 57.0352 30.5451C57.0352 30.6829 57.2497 30.6829 57.2497 30.5451C57.249 28.8799 57.4863 27.2255 57.4971 25.5603C57.4999 25.1396 57.5006 24.7217 57.5393 24.3023C57.5772 23.8909 57.6379 23.483 57.7094 23.0765C57.851 22.2693 58.0312 21.4707 58.1263 20.6556C58.23 19.7641 58.2522 18.8654 58.2479 17.9689H58.0334C58.0527 18.724 57.8439 19.454 57.7952 20.2041C57.7702 20.5963 57.7874 20.9913 57.7659 21.3842C57.7459 21.7528 57.7109 22.12 57.668 22.4865C57.6229 22.8715 57.5593 23.2551 57.5264 23.6409C57.4921 24.0495 57.4971 24.4602 57.5114 24.8703C57.5257 25.271 57.5493 25.6718 57.5557 26.0725C57.5621 26.4811 57.5428 26.8876 57.5057 27.294C57.4249 28.182 57.2854 29.0642 57.2847 29.9571C57.2847 30.095 57.4992 30.0957 57.4992 29.9571" fill="black"/>
<path id="Vector_12" d="M58.4679 18.3343C58.7732 17.985 59.1408 17.7121 59.529 17.4614C59.9323 17.2006 60.3335 16.9434 60.7153 16.6513C61.499 16.0505 62.2533 15.4054 63.0006 14.7604C63.7514 14.1125 64.4929 13.4503 65.2801 12.8459C66.0331 12.268 66.8432 11.7694 67.6305 11.2394C68.4234 10.705 69.2064 10.1521 69.9465 9.54563C70.3147 9.24417 70.668 8.927 71.0112 8.59697C71.137 8.47624 71.2657 8.37195 71.4302 8.3098C71.5889 8.24979 71.7541 8.20122 71.9021 8.11835C72.2368 7.93048 72.4656 7.60616 72.6937 7.30828C72.9547 6.96896 73.2485 6.69251 73.6032 6.45106C74.349 5.94315 75.1999 5.61884 75.9528 5.12308C76.3211 4.88091 76.5756 4.53159 76.8781 4.21942C77.0283 4.06369 77.1913 3.93154 77.3808 3.82724C77.5731 3.72152 77.7769 3.63937 77.9778 3.55293C78.1652 3.47221 78.3532 3.38863 78.5241 3.27576C78.6757 3.17576 78.8173 3.05932 78.9553 2.94002C79.2563 2.68142 79.5423 2.39497 79.8863 2.19138C80.03 2.10637 80.1873 2.03565 80.3554 2.01779C80.4912 2.00279 80.4926 1.78848 80.3554 1.80349C79.9892 1.84278 79.6804 2.04994 79.3993 2.27496C79.0897 2.52284 78.8116 2.81144 78.4877 3.04146C78.1452 3.28505 77.7383 3.40435 77.3665 3.59294C76.9682 3.79438 76.69 4.1037 76.399 4.4323C76.2489 4.60089 76.0923 4.76733 75.9056 4.89734C75.7255 5.02307 75.5338 5.13308 75.3422 5.24023C74.9411 5.46382 74.5263 5.66241 74.1245 5.88457C73.7276 6.10317 73.3429 6.34747 73.0011 6.64607C72.703 6.90681 72.4942 7.24327 72.2389 7.54187C72.1166 7.68474 71.9829 7.8219 71.8199 7.91905C71.6712 8.00763 71.5024 8.05263 71.3422 8.11549C70.9719 8.26194 70.7087 8.59768 70.4191 8.85913C69.6969 9.50991 68.9175 10.0928 68.1195 10.6472C67.3373 11.1908 66.5257 11.6915 65.7463 12.2394C64.934 12.8095 64.1797 13.4567 63.431 14.106C62.6731 14.7625 61.9101 15.4126 61.1343 16.0476C60.741 16.3691 60.3406 16.6834 59.9152 16.9613C59.5419 17.2056 59.1572 17.4313 58.809 17.7121C58.6317 17.855 58.4672 18.0121 58.317 18.1836C58.2262 18.2871 58.3778 18.4393 58.4686 18.335" fill="black"/>
<path id="Vector_13" d="M80.2787 1.9868C80.7378 2.569 81.4242 2.89617 82.0706 3.22478C82.3974 3.3905 82.7242 3.56052 83.0252 3.76983C83.3963 4.02842 83.7288 4.35059 84.0656 4.65133C85.4678 5.90502 86.8135 7.21586 88.1299 8.55812C88.767 9.20747 89.407 9.85467 90.0755 10.4719C90.4094 10.7798 90.7498 11.0798 91.1009 11.3669C91.4656 11.6655 91.8431 11.9477 92.2128 12.2406C92.5817 12.5328 92.95 12.8271 93.3275 13.1085C93.6815 13.3721 94.0426 13.6243 94.3808 13.9093C95.0165 14.4444 95.5563 15.0587 96.0862 15.6952C97.143 16.9646 98.5237 17.9276 99.532 19.2412C99.6564 19.4034 99.7736 19.5706 99.8838 19.742C99.9581 19.8577 100.135 19.7556 100.069 19.6334C99.9774 19.7077 99.9631 19.747 100.027 19.7527C100.048 19.7577 100.07 19.7634 100.09 19.7706C100.223 19.8106 100.279 19.6034 100.148 19.5641C100.078 19.5434 99.9853 19.512 99.9174 19.5548C99.8487 19.5984 99.8494 19.6777 99.8845 19.7427C99.946 19.7063 100.008 19.6706 100.07 19.6341C99.1659 18.2269 97.7987 17.2289 96.6654 16.0245C96.3808 15.7223 96.1248 15.3966 95.8552 15.0816C95.5899 14.7708 95.3111 14.4722 95.0158 14.1901C94.3722 13.5772 93.635 13.0878 92.9371 12.5413C92.2042 11.9677 91.457 11.4062 90.7548 10.794C90.0662 10.1933 89.4134 9.5525 88.7706 8.90315C88.1278 8.25452 87.4949 7.59589 86.8428 6.95655C86.1614 6.2872 85.4614 5.63571 84.757 4.98994C84.3945 4.65705 84.0284 4.32916 83.6559 4.00699C83.3598 3.75125 83.0602 3.52052 82.7199 3.32693C82.0799 2.96261 81.3649 2.69687 80.7986 2.21611C80.6634 2.10182 80.5404 1.97466 80.4303 1.83608C80.3452 1.7275 80.1944 1.88037 80.2787 1.98752" fill="black"/>
<path id="Vector_14" d="M100.199 20.17V20.0057C100.199 19.8679 99.9844 19.8679 99.9844 20.0057V34.8878C99.9844 35.0257 100.199 35.0257 100.199 34.8878V20.0057C100.199 19.8679 99.9844 19.8679 99.9844 20.0057V20.17C99.9844 20.3079 100.199 20.3079 100.199 20.17Z" fill="black"/>
<path id="Vector_15" d="M63.6434 41.2251C62.9262 41.9394 62.106 42.5495 61.4418 43.3174C61.2623 43.5246 61.0957 43.7425 60.952 43.976C60.9105 44.0425 60.9634 44.1425 61.0449 44.1375C61.371 44.1175 61.6391 43.8189 61.8551 43.6032C61.9637 43.4946 62.0696 43.3896 62.194 43.3003C62.377 43.1688 62.5722 43.0552 62.7653 42.9395C63.1471 42.7116 63.4961 42.4602 63.7964 42.1295C64.086 41.8101 64.3327 41.4537 64.5622 41.0901C64.8182 40.6836 65.0534 40.265 65.3109 39.8592C65.3852 39.7421 65.1993 39.6349 65.1257 39.7514C64.6816 40.4514 64.3034 41.2008 63.7671 41.8387C63.4918 42.1666 63.1793 42.4359 62.8146 42.6602C62.4843 42.8638 62.1232 43.0438 61.8415 43.316C61.7135 43.4396 61.5919 43.5696 61.4575 43.6875C61.3467 43.7846 61.2001 43.9153 61.0449 43.9246L61.1372 44.0861C61.6598 43.241 62.46 42.6002 63.1908 41.9444C63.396 41.7601 63.5998 41.5737 63.7957 41.3787C63.8936 41.2808 63.7421 41.1294 63.6441 41.2272" fill="black"/>
<path id="Vector_16" d="M78.0376 19.3803C77.4248 19.766 76.9043 20.2668 76.3201 20.6911C76.2092 20.7711 76.3165 20.9575 76.428 20.8761C77.0122 20.4518 77.5328 19.951 78.1456 19.5653C78.2621 19.4917 78.1542 19.3067 78.0376 19.3803Z" fill="black"/>
<path id="Vector_17" d="M74.697 23.282C74.5132 23.6921 74.4152 24.1378 74.328 24.5764C74.2393 25.0272 74.1714 25.4822 74.0892 25.9337C74.0441 26.1794 74.0084 26.423 74.0298 26.6731C74.0499 26.9045 74.1085 27.1274 74.1972 27.341C74.2873 27.5567 74.3995 27.7617 74.5146 27.9646C74.6362 28.1789 74.7535 28.3954 74.8807 28.6061C75.2955 29.2947 75.8046 29.9212 76.4674 30.3841C77.1431 30.8563 77.9447 31.1606 78.7341 31.3813C79.6265 31.6307 80.5825 31.6585 81.4956 31.5264C82.4108 31.3935 83.3211 31.077 84.0383 30.4798C84.4387 30.147 84.7784 29.7391 85.0508 29.2962C85.1888 29.0719 85.3082 28.8368 85.409 28.5939C85.512 28.3468 85.5935 28.0946 85.7136 27.8539C85.9575 27.366 86.2635 26.9045 86.4244 26.3787C86.5974 25.8123 86.6117 25.2136 86.5123 24.6322C86.4137 24.0557 86.2099 23.4942 85.9525 22.9706C85.8209 22.7027 85.675 22.4434 85.5964 22.1548C85.5613 22.0262 85.5027 21.9248 85.4276 21.8155C85.3525 21.7062 85.3053 21.579 85.2417 21.4626C85.1781 21.3454 85.1073 21.2197 85.0165 21.1218C84.985 21.0883 84.9464 21.0661 84.9214 21.0275C84.8835 20.9704 84.8627 20.9004 84.8334 20.8382C84.7798 20.7232 84.7069 20.6118 84.6368 20.5061C84.5696 20.4046 84.4938 20.3139 84.3944 20.2425C84.2893 20.1667 84.1691 20.1189 84.059 20.0517C83.9446 19.9824 83.8402 19.9032 83.7144 19.8553C83.6593 19.8346 83.6021 19.8231 83.5456 19.806C83.4827 19.7867 83.4362 19.7496 83.384 19.7096C83.3354 19.6724 83.2875 19.6396 83.2296 19.6196C83.1795 19.6017 83.1266 19.5967 83.0794 19.571C82.9586 19.506 82.7455 19.3374 82.6425 19.5231C82.699 19.516 82.7548 19.5088 82.8113 19.5017C82.7991 19.4874 82.7862 19.4731 82.7741 19.4588C82.684 19.3545 82.5324 19.5067 82.6225 19.6103C82.6347 19.6246 82.6475 19.6388 82.6597 19.6531C82.7047 19.7053 82.7963 19.6881 82.8284 19.6317C82.8084 19.6674 82.7705 19.6317 82.7977 19.6574C82.8063 19.6653 82.8277 19.671 82.8384 19.6767C82.8763 19.6967 82.9121 19.7203 82.9486 19.7424C83.0387 19.796 83.1466 19.8024 83.2317 19.8617C83.3318 19.9317 83.4105 19.9917 83.5306 20.0239C83.66 20.0582 83.763 20.1139 83.8738 20.1868C83.9754 20.2532 84.0833 20.3053 84.1884 20.3653C84.2993 20.4282 84.3815 20.5075 84.4523 20.6139C84.5174 20.7111 84.5839 20.8132 84.6361 20.9182C84.689 21.0254 84.7212 21.1461 84.8141 21.2268C85.005 21.3926 85.0822 21.6519 85.2052 21.8648C85.2674 21.9726 85.3461 22.0569 85.3811 22.1798C85.419 22.3098 85.4576 22.4327 85.5127 22.5563C85.6271 22.8134 85.7665 23.0592 85.8795 23.3178C85.9946 23.5799 86.0948 23.8499 86.1748 24.1257C86.3321 24.665 86.4072 25.2315 86.3336 25.7916C86.2614 26.343 86.0268 26.8231 85.763 27.3053C85.6357 27.5374 85.5084 27.7703 85.404 28.0139C85.3053 28.2439 85.2317 28.4832 85.1244 28.7104C84.9114 29.1611 84.6303 29.5805 84.2907 29.9448C83.6622 30.6191 82.8463 31.0206 81.9539 31.2235C81.0802 31.4221 80.1513 31.4471 79.2697 31.2842C78.8478 31.2063 78.4381 31.0742 78.0355 30.9277C77.6751 30.797 77.3212 30.6449 76.9865 30.4563C76.343 30.0941 75.811 29.5898 75.3856 28.9883C75.1246 28.619 74.9079 28.2239 74.6855 27.831C74.4689 27.4481 74.2615 27.0524 74.2386 26.6045C74.2265 26.3723 74.2658 26.1502 74.3066 25.923C74.3444 25.7137 74.3781 25.5037 74.4138 25.2936C74.491 24.8386 74.5711 24.3821 74.6927 23.9364C74.7434 23.7499 74.8014 23.5642 74.88 23.3878C74.9358 23.2627 74.7513 23.1535 74.6948 23.2792" fill="black"/>
<path id="Vector_18" d="M79.4544 36.894C79.7275 37.0454 80.0486 37.0869 80.3453 36.979C80.6278 36.8761 80.8616 36.6704 81.0203 36.4175C81.1791 36.1646 81.2835 35.846 81.2155 35.5474C81.1583 35.296 80.9724 35.0874 80.7415 34.9774C80.4976 34.8617 80.2131 34.8367 79.9528 34.9124C79.6996 34.986 79.4444 35.096 79.2141 35.2246C78.9882 35.3517 78.7594 35.5217 78.6407 35.7589C78.5155 36.0089 78.5284 36.3297 78.67 36.5718C78.8108 36.8133 79.0904 36.9447 79.3436 37.0376C79.4615 37.0811 79.5974 37.1183 79.7232 37.0904C79.867 37.0583 79.9349 36.9404 79.9471 36.8018C79.9592 36.6647 79.7447 36.6654 79.7325 36.8018C79.7175 36.9704 79.4394 36.8476 79.35 36.8118C79.1762 36.7411 78.9767 36.6511 78.8709 36.4897C78.7551 36.3132 78.7322 36.0582 78.8259 35.8682C78.921 35.6753 79.1019 35.5396 79.2835 35.4331C79.4744 35.3217 79.6789 35.2367 79.8863 35.1624C80.0901 35.0888 80.2931 35.0588 80.5055 35.1181C80.7 35.1724 80.8759 35.296 80.9653 35.4803C81.0682 35.6924 81.0175 35.9389 80.9238 36.1453C80.6878 36.6668 80.1044 37.0119 79.5624 36.7111C79.4415 36.644 79.3335 36.829 79.4544 36.8961" fill="black"/>
<path id="Vector_19" d="M75.4939 23.7634C75.0985 23.5241 74.7553 23.2134 74.3863 22.9377C74.2047 22.8019 74.0152 22.6748 73.8136 22.5705C73.642 22.4819 73.4682 22.399 73.298 22.3083C72.9398 22.1162 72.6073 21.9011 72.3921 21.5482C72.1475 21.1489 71.8987 20.7432 71.7485 20.2974C71.6713 20.0681 71.6413 19.8388 71.6091 19.6009C71.5762 19.358 71.5297 19.1173 71.5061 18.8737C71.4825 18.6294 71.484 18.388 71.5412 18.1479C71.602 17.8936 71.6656 17.6407 71.7357 17.3886C71.873 16.8914 72.0467 16.4135 72.2476 15.9384C72.3456 15.7063 72.4629 15.4691 72.5229 15.2234C72.5794 14.9905 72.5716 14.7505 72.578 14.5126C72.5844 14.2833 72.6195 14.0733 72.7167 13.864C72.7875 13.7125 72.8633 13.5632 72.9477 13.4189C73.0378 13.2632 73.1357 13.1089 73.2573 12.9753C73.3424 12.8817 73.4561 12.766 73.5905 12.7682C73.5597 12.7503 73.529 12.7324 73.4975 12.7153C73.702 13.1296 73.6427 13.6111 73.6413 14.0576C73.6405 14.2769 73.5733 14.4819 73.5397 14.6969C73.5097 14.8891 73.5454 15.1077 73.4453 15.282C73.5068 15.3184 73.569 15.3541 73.6305 15.3898C73.7521 15.1534 73.8079 14.8998 73.8736 14.644C73.9044 14.524 73.9344 14.4012 73.9916 14.2904C74.0481 14.1811 74.1232 14.0826 74.1961 13.9833C74.3062 13.8333 74.3921 13.679 74.4657 13.5089C74.5329 13.3532 74.5987 13.196 74.6824 13.0482C74.7574 12.9153 74.849 12.7746 74.9841 12.696C75.0721 12.6453 75.2215 12.6074 75.3002 12.6931C75.3802 12.7803 75.3688 12.9403 75.3602 13.0482C75.3488 13.1918 75.3152 13.3339 75.2744 13.4718C75.1321 13.9597 74.8375 14.3883 74.8039 14.9069C74.7961 15.0276 74.987 15.0526 75.0149 14.9355C75.1021 14.5619 75.3616 14.2576 75.6112 13.9783C75.737 13.8382 75.8665 13.7011 75.9887 13.5582C76.0459 13.4918 76.1031 13.4239 76.1532 13.3518C76.189 13.3003 76.2125 13.2289 76.2569 13.1846C76.3012 13.1403 76.3906 13.1332 76.4499 13.136C76.4542 13.136 76.4964 13.1439 76.4821 13.136C76.47 13.1289 76.4857 13.1432 76.4836 13.1389C76.4843 13.141 76.49 13.1668 76.4914 13.176C76.5229 13.3496 76.5372 13.5254 76.4993 13.6997C76.4514 13.9197 76.3513 14.124 76.2454 14.3219C76.141 14.5176 76.0302 14.6969 75.8893 14.8691C75.7535 15.0355 75.6355 15.2091 75.5204 15.3898C75.4224 15.5441 75.3044 15.7141 75.2694 15.897C75.2594 15.9484 75.2773 15.9884 75.3187 16.0177C75.7349 16.3185 76.332 16.0749 76.7538 15.9127C76.8711 15.8677 76.9869 15.8206 77.1106 15.7956C77.2494 15.767 77.3931 15.7613 77.5275 15.717C77.6491 15.677 77.7799 15.5984 77.9122 15.6141C78.0073 15.6256 78.1196 15.6906 78.1632 15.7784C78.2397 15.9327 78.1374 16.1235 78.0538 16.252C77.948 16.4142 77.8071 16.5571 77.6398 16.6564C77.1471 16.95 76.5379 16.9743 75.9794 16.9778C75.7506 16.9793 75.5225 16.9564 75.2944 16.9578C75.1107 16.9592 74.9269 16.9943 74.7875 17.1221C74.5951 17.2986 74.5315 17.5915 74.4643 17.8322C74.4214 17.9865 74.4149 18.1501 74.3649 18.3015C74.3191 18.4408 74.2054 18.5465 74.1711 18.6908C74.1339 18.8459 74.164 19.008 74.1303 19.163C74.1025 19.293 74.0374 19.4138 74.0331 19.5481C74.0238 19.8302 74.2655 20.0238 74.5093 20.106C74.6244 20.1445 74.7446 20.166 74.8611 20.2017C75.0141 20.2488 75.1536 20.3267 75.2916 20.4053C75.5697 20.5646 75.8457 20.6874 76.1546 20.7767C76.3062 20.8203 76.4585 20.8603 76.608 20.911C76.7638 20.9639 76.9054 21.0418 77.0563 21.1053C77.3387 21.2246 77.6405 21.2846 77.9322 21.3747C78.1589 21.4447 78.3562 21.5468 78.5529 21.6761C78.7202 21.7861 78.8918 21.8926 79.0791 21.9669C79.2264 22.0254 79.4295 22.0704 79.5504 21.9347C79.6855 21.784 79.5611 21.5482 79.4803 21.4025C79.436 21.3232 79.3866 21.2468 79.3409 21.1682C79.2844 21.0703 79.2565 20.9568 79.2307 20.8475C79.1599 20.5446 79.1156 20.2381 79.0334 19.9374C78.8668 19.3245 78.6637 18.703 78.653 18.0622C78.643 17.4607 78.894 16.9057 79.2093 16.4056C79.5039 15.9384 79.8578 15.4591 80.3348 15.1655C80.5657 15.0234 80.8196 14.9262 81.087 14.8791C81.3659 14.8298 81.6147 14.8576 81.8657 14.9919C82.1009 15.1184 82.3069 15.292 82.5249 15.4448C82.6193 15.5113 82.7194 15.5663 82.8024 15.6484C82.8839 15.7291 82.9511 15.822 83.0119 15.9192C83.2893 16.3621 83.4588 16.8907 83.4409 17.4157C83.4295 17.7415 83.3522 18.0636 83.2293 18.3651C83.1077 18.6637 82.9018 18.8994 82.738 19.173C82.575 19.4452 82.5071 19.7602 82.3576 20.0388C82.2818 20.181 82.1846 20.3103 82.0888 20.4396C81.9951 20.566 81.9129 20.701 81.8185 20.826C81.6633 21.0339 81.4509 21.2054 81.3759 21.4632C81.3544 21.5375 81.4131 21.5904 81.4796 21.599C81.7448 21.634 81.9658 21.8018 82.2253 21.8576C82.3691 21.8883 82.5156 21.874 82.6594 21.8983C82.7945 21.9218 82.9239 21.9683 83.0519 22.0169C83.3544 22.1312 83.6626 22.2219 83.9607 22.3469C84.1931 22.4448 84.4277 22.5305 84.6651 22.6148C84.7773 22.6548 84.8882 22.6983 84.9918 22.7569C85.0669 22.7998 85.1592 22.8541 85.1749 22.9462C85.1999 22.9027 85.2249 22.8584 85.25 22.8141C85.1241 22.8441 85.1656 22.9834 85.2478 23.0319C85.3165 23.0734 85.3937 23.1034 85.4666 23.1355C85.5617 23.1784 85.6575 23.2198 85.7526 23.2634C85.7898 23.2805 85.8277 23.2977 85.8649 23.3163C85.8763 23.322 85.8871 23.3291 85.8985 23.3341C85.9028 23.3363 85.9071 23.3413 85.9114 23.342C85.8785 23.3363 85.8763 23.2191 85.8728 23.2327C85.8892 23.2113 85.9057 23.1898 85.9221 23.1684L85.9443 23.1591C85.8098 23.1912 85.8671 23.3977 86.0015 23.3656C86.1273 23.3355 86.0851 23.1962 86.0036 23.1477C85.935 23.1062 85.8578 23.0762 85.7848 23.0441C85.6897 23.0012 85.5939 22.9598 85.4988 22.9162C85.4609 22.8991 85.4237 22.8819 85.3865 22.8634C85.3751 22.8576 85.3644 22.8512 85.3529 22.8455C85.3494 22.8434 85.3444 22.8384 85.3401 22.8376C85.373 22.8434 85.3751 22.9605 85.3787 22.9469C85.3622 22.9684 85.3458 22.9898 85.3293 23.0112C85.3222 23.0141 85.3143 23.0177 85.3072 23.0205C85.368 23.0062 85.3915 22.9441 85.3822 22.8891C85.3472 22.6791 85.1027 22.5626 84.9282 22.4876C84.7094 22.394 84.4806 22.3297 84.2604 22.2404C84.0937 22.1726 83.9293 22.0997 83.7613 22.0347C83.6018 21.9733 83.4373 21.929 83.2772 21.8718C83.1385 21.8226 83.0026 21.764 82.861 21.724C82.7044 21.6797 82.5514 21.6747 82.3905 21.6647C82.2368 21.6554 82.0959 21.5932 81.9572 21.5311C81.8013 21.4611 81.6497 21.4061 81.4796 21.3832C81.5139 21.4282 81.5482 21.4739 81.5832 21.519C81.6583 21.2632 81.9064 21.0896 82.0473 20.871C82.2232 20.5996 82.447 20.3553 82.585 20.061C82.7244 19.7645 82.806 19.4502 82.9897 19.1752C83.0762 19.0459 83.1713 18.923 83.2543 18.7916C83.3387 18.6565 83.403 18.5101 83.4595 18.3622C83.6762 17.7965 83.7226 17.1714 83.5453 16.5892C83.4709 16.3449 83.3701 16.1056 83.2421 15.8842C83.1277 15.6863 82.9861 15.4927 82.7931 15.3648C82.3612 15.0798 81.94 14.6505 81.3902 14.6355C80.836 14.6205 80.2776 14.8855 79.87 15.2448C79.6641 15.427 79.4903 15.6427 79.3251 15.862C79.1406 16.1063 78.9712 16.3635 78.8275 16.6335C78.6895 16.8942 78.5715 17.17 78.5021 17.4579C78.4328 17.7472 78.4256 18.0436 78.4542 18.3387C78.5178 18.9794 78.7259 19.5916 78.8839 20.2131C78.9605 20.5131 78.9812 20.8282 79.0856 21.1218C79.1492 21.2996 79.2722 21.4461 79.3494 21.6175C79.3666 21.6561 79.3838 21.6975 79.3902 21.739C79.3938 21.7618 79.3931 21.7854 79.3895 21.7911C79.383 21.8011 79.3659 21.8061 79.3466 21.8076C79.313 21.8111 79.2787 21.804 79.2465 21.7954C79.057 21.7468 78.8832 21.6325 78.7209 21.5282C78.535 21.4082 78.3562 21.2968 78.146 21.2189C77.8543 21.1118 77.5468 21.0575 77.2544 20.9525C77.1064 20.8996 76.9705 20.8225 76.8253 20.7625C76.6752 20.7003 76.5186 20.6546 76.362 20.6103C76.2104 20.5674 76.0574 20.5253 75.9087 20.4717C75.7535 20.4153 75.6098 20.3388 75.4668 20.2567C75.3266 20.1767 75.1872 20.096 75.0377 20.0352C74.9183 19.9867 74.7939 19.9602 74.6695 19.9274C74.5579 19.8974 74.44 19.8617 74.3542 19.7802C74.2426 19.6738 74.2305 19.5552 74.2755 19.4152C74.3234 19.2652 74.3563 19.1266 74.3599 18.968C74.3613 18.8937 74.3584 18.8173 74.3756 18.7451C74.3928 18.673 74.4371 18.6123 74.4757 18.5501C74.5622 18.4108 74.5944 18.2665 74.6201 18.1072C74.6459 17.9451 74.6952 17.7886 74.7453 17.6329C74.8061 17.4443 74.8819 17.2464 75.0921 17.1914C75.2823 17.1414 75.4946 17.1793 75.6884 17.1871C76.6165 17.225 77.9387 17.1607 78.3455 16.1477C78.417 15.9706 78.4277 15.7641 78.304 15.607C78.1353 15.3927 77.8636 15.3627 77.6205 15.4513C77.4789 15.5027 77.3473 15.5398 77.1972 15.562C77.062 15.582 76.934 15.612 76.806 15.6606C76.5722 15.7499 76.3391 15.8449 76.0946 15.9006C75.8708 15.9513 75.6198 15.9727 75.4246 15.8313C75.441 15.872 75.4575 15.912 75.4739 15.9527C75.5089 15.7727 75.6326 15.607 75.7299 15.4548C75.8493 15.2691 75.978 15.0984 76.1153 14.9248C76.2612 14.7412 76.3727 14.5405 76.4793 14.3319C76.5915 14.1118 76.6916 13.8811 76.7245 13.6347C76.7395 13.5239 76.7395 13.4154 76.7224 13.3046C76.7116 13.2311 76.7095 13.1496 76.6873 13.0789C76.6359 12.916 76.4657 12.9103 76.322 12.9332C76.2376 12.9467 76.1568 12.9753 76.0974 13.0389C76.0445 13.0953 76.0152 13.1696 75.9723 13.2332C75.8579 13.4039 75.7056 13.5525 75.5676 13.704C75.2558 14.0461 74.9133 14.4147 74.8046 14.8783C74.8747 14.8876 74.9448 14.8976 75.0156 14.9069C75.0477 14.4162 75.3395 13.9983 75.4761 13.5361C75.5569 13.2632 75.6591 12.8703 75.4989 12.6074C75.4096 12.461 75.2444 12.4138 75.0814 12.4374C74.9105 12.4617 74.7653 12.5688 74.658 12.6996C74.4307 12.9746 74.3398 13.3168 74.1732 13.6254C74.0367 13.879 73.8243 14.0783 73.7299 14.3562C73.6262 14.6633 73.5919 14.9905 73.4425 15.2812C73.3795 15.4034 73.5583 15.5098 73.6277 15.3891C73.7392 15.1941 73.7149 14.9784 73.7421 14.7648C73.7721 14.5262 73.8515 14.3004 73.8522 14.0568C73.8536 13.5654 73.9037 13.061 73.6792 12.6067C73.6627 12.5731 73.6227 12.5546 73.5869 12.5538C73.2752 12.5488 73.0428 12.8717 72.8883 13.1018C72.7181 13.3561 72.5623 13.6389 72.4536 13.9261C72.3642 14.1626 72.3613 14.419 72.3578 14.6676C72.3563 14.7819 72.3549 14.8962 72.3413 15.0098C72.3241 15.1512 72.2798 15.282 72.2298 15.4141C72.0381 15.9127 71.8107 16.3935 71.6513 16.905C71.5698 17.165 71.4983 17.4286 71.4303 17.6929C71.3681 17.9372 71.2945 18.1829 71.278 18.4358C71.2609 18.6944 71.2945 18.9537 71.3331 19.2095C71.3703 19.4602 71.3967 19.7138 71.4396 19.9631C71.5233 20.4467 71.755 20.896 72.001 21.3154C72.1139 21.5082 72.2226 21.7154 72.3663 21.8876C72.4929 22.039 72.6524 22.1626 72.8161 22.2712C73.2201 22.5405 73.6813 22.7069 74.0824 22.9812C74.5293 23.2863 74.9205 23.6663 75.3852 23.947C75.5039 24.0185 75.6119 23.8335 75.4932 23.762" fill="black"/>
<path id="Vector_20" d="M86.334 25.8626C86.1574 25.6612 85.8943 25.5755 85.6397 25.5226C85.3423 25.4612 85.0405 25.4069 84.7395 25.3683C84.4699 25.3333 84.2068 25.2954 83.9422 25.2347C83.8035 25.2033 83.6369 25.1747 83.5282 25.2919C83.373 25.4583 83.4124 25.7512 83.3945 25.9576C83.3652 26.2991 83.2865 26.6348 83.2815 26.9784C83.2758 27.3499 83.2865 27.7221 83.2858 28.0928C83.2858 28.4643 83.2844 28.8365 83.2844 29.2079C83.2844 29.5365 83.2937 29.8644 83.2679 30.1923C83.25 30.4188 83.2064 30.7245 83.3652 30.9124C83.4138 30.9702 83.5332 30.9431 83.5446 30.8652C83.5825 30.5981 83.5096 30.3666 83.338 30.1594C83.25 30.053 83.0992 30.2059 83.1864 30.3109C83.3037 30.4523 83.3644 30.6245 83.338 30.8081C83.3981 30.7924 83.4574 30.7766 83.5175 30.7609C83.4717 30.7066 83.4724 30.6066 83.4696 30.5402C83.4653 30.4316 83.4731 30.3223 83.481 30.2137C83.501 29.9537 83.4996 29.6951 83.4996 29.4337C83.4996 28.75 83.5039 28.0657 83.4996 27.382C83.4989 27.2149 83.491 27.0463 83.4996 26.8791C83.5082 26.7156 83.5311 26.5534 83.5547 26.392C83.5768 26.2369 83.5997 26.0812 83.6118 25.9248C83.6211 25.7998 83.614 25.6712 83.6412 25.5483C83.6476 25.5176 83.6562 25.4862 83.6698 25.4597C83.6826 25.4354 83.6855 25.4333 83.7027 25.4254C83.707 25.4233 83.7263 25.4204 83.7398 25.4197C83.7713 25.4197 83.792 25.4226 83.8192 25.4276C84.0251 25.4654 84.2239 25.5162 84.4327 25.5433C84.7724 25.5883 85.1077 25.6426 85.4452 25.7026C85.7076 25.749 85.9994 25.8033 86.1831 26.0134C86.274 26.1176 86.4255 25.9655 86.3347 25.8619" fill="black"/>
<path id="Vector_21" d="M74.7136 23.4112C75.0261 23.6869 75.4029 23.8541 75.7862 24.0062C76.163 24.1562 76.5563 24.2955 76.8795 24.5477V24.3963C76.7601 24.5506 76.7579 24.7149 76.7651 24.902C76.7722 25.0892 76.7586 25.2756 76.7265 25.4599C76.6921 25.6557 76.6421 25.8471 76.6357 26.0471C76.6285 26.2614 76.6521 26.4757 76.6421 26.6908C76.6321 26.8986 76.5749 27.0987 76.5384 27.303C76.5027 27.5016 76.5019 27.6994 76.4905 27.9002C76.4655 28.3323 76.409 28.7617 76.3568 29.191C76.2989 29.6682 76.2474 30.1461 76.246 30.6268C76.246 30.7647 76.4598 30.7647 76.4605 30.6268C76.4626 29.7975 76.6185 28.981 76.6871 28.1559C76.7043 27.9459 76.7036 27.7344 76.7222 27.5251C76.7393 27.3301 76.7951 27.1401 76.8273 26.9472C76.8938 26.5465 76.8073 26.1407 76.8902 25.7421C76.9302 25.5478 76.9667 25.3521 76.9782 25.1535C76.9846 25.0456 76.981 24.9392 76.9774 24.8313C76.9739 24.7349 76.9696 24.6284 77.0325 24.5477C77.0647 24.5063 77.0826 24.4356 77.0325 24.3963C76.3797 23.8884 75.4894 23.8098 74.8659 23.2604C74.763 23.1697 74.6107 23.3205 74.7143 23.4119" fill="black"/>
<path id="Vector_22" d="M78.3856 17.385C78.1804 17.5057 78.0596 17.7493 78.1718 17.9764C78.2919 18.2207 78.5851 18.2493 78.8204 18.1779C79.1185 18.0872 79.3659 17.87 79.5847 17.6578C79.805 17.4442 80.0295 17.2328 80.2383 17.0078C80.4836 16.7435 80.7009 16.4499 80.8139 16.1034C80.8432 16.0134 80.7345 15.9362 80.6566 15.9827C80.4585 16.0998 80.3348 16.3249 80.2504 16.5313C80.1561 16.7613 80.1024 17.0242 80.1518 17.2721C80.1961 17.4928 80.3706 17.715 80.6108 17.725C80.8525 17.735 81.087 17.5571 81.2637 17.4128C81.4667 17.2464 81.6891 17.0371 81.8064 16.7978C81.85 16.7092 81.7556 16.587 81.6598 16.6513C81.2486 16.9256 81.4689 17.5178 81.6698 17.8557C81.7721 18.0279 81.9093 18.1993 82.1239 18.2179C82.3327 18.2357 82.5221 18.1036 82.673 17.975C82.8525 17.8214 82.9976 17.6364 83.1628 17.4692C83.2601 17.3714 83.1092 17.2199 83.0112 17.3178L82.9254 17.4035C82.8275 17.5014 82.979 17.6528 83.077 17.555C83.1056 17.5264 83.1342 17.4978 83.1628 17.4692C83.112 17.4185 83.062 17.3685 83.0112 17.3178C82.8918 17.4385 82.7831 17.57 82.663 17.6907C82.5472 17.8071 82.4135 17.9386 82.2526 17.9893C82.0967 18.0386 81.988 17.9507 81.9036 17.825C81.8042 17.6771 81.7249 17.5128 81.6777 17.3414C81.6319 17.1756 81.6019 16.9471 81.7678 16.8363L81.6212 16.6899C81.5375 16.8599 81.3924 17.0056 81.2565 17.1342C81.1035 17.2792 80.9204 17.4385 80.7131 17.4971C80.5551 17.5421 80.4228 17.4371 80.3749 17.2814C80.3134 17.0835 80.3584 16.862 80.4256 16.6713C80.4893 16.4913 80.5944 16.2698 80.7646 16.1691C80.7124 16.1291 80.6595 16.0884 80.6073 16.0484C80.4421 16.5549 80.0274 16.9271 79.6562 17.2885C79.4768 17.4635 79.3037 17.65 79.0985 17.7964C78.9362 17.9121 78.6702 18.0743 78.4636 17.98C78.3906 17.9464 78.342 17.8743 78.3427 17.7936C78.3427 17.6936 78.4128 17.6207 78.4936 17.5728C78.6123 17.5028 78.5043 17.3178 78.3856 17.3878" fill="black"/>
<path id="Vector_23" d="M78.5069 19.0922C78.3732 19.2258 78.1822 19.2672 78.0185 19.3522C77.9384 19.3937 77.8648 19.4451 77.7868 19.4901C77.7153 19.5315 77.6374 19.5737 77.553 19.5751C77.415 19.5772 77.4143 19.7915 77.553 19.7894C77.7675 19.7865 77.9341 19.6408 78.1143 19.5437C78.3002 19.4437 78.5047 19.3972 78.6585 19.2436C78.7564 19.1458 78.6041 18.9943 78.5069 19.0922Z" fill="black"/>
<path id="Vector_24" d="M58.4215 18.73C58.734 18.4121 59.0172 18.0671 59.3325 17.7514C59.6729 17.4106 60.0397 17.2413 60.448 17.002C60.6696 16.872 60.8512 16.697 61.05 16.5377C61.2195 16.402 61.4097 16.3048 61.597 16.1962C62.0618 15.9262 62.5187 15.6426 62.9828 15.3704C63.8551 14.8582 64.7897 14.4761 65.6049 13.871C65.9881 13.5867 66.3571 13.2824 66.7439 13.0031C67.1822 12.6866 67.6599 12.4387 68.0753 12.0901C68.4064 11.813 68.7074 11.5072 69.0599 11.2558C69.5168 10.93 69.9902 10.625 70.3992 10.2371C71.1143 9.55918 71.9566 9.08486 72.7238 8.47194C73.0534 8.20906 73.3323 7.88975 73.6684 7.63544C74.1089 7.30112 74.5329 6.9618 74.9569 6.60749C75.3151 6.30817 75.697 6.04315 76.0738 5.76812C76.4742 5.47667 76.8203 5.11592 77.2221 4.82947C77.4116 4.69445 77.6233 4.59873 77.8142 4.46586C78.0502 4.30085 78.2597 4.1044 78.4871 3.92867C78.7795 3.70293 79.077 3.58507 79.3594 3.46648C80.1388 3.13931 81.0634 2.75713 81.3115 1.86134C81.5574 0.974112 80.1781 0.594792 79.9322 1.4813C79.885 1.65203 80.0058 1.40844 79.9 1.55417C79.9793 1.44487 79.8342 1.61846 79.8278 1.62417C79.7677 1.68061 79.6476 1.75633 79.5146 1.83062C79.1635 2.02564 78.856 2.13708 78.5028 2.2878C78.2168 2.40996 77.9594 2.54568 77.7098 2.73427C77.511 2.88429 77.3287 3.05502 77.1299 3.20432C76.9311 3.3529 76.7037 3.45363 76.5007 3.59507C76.1346 3.84866 75.8214 4.16226 75.4746 4.43943C75.0706 4.76232 74.6337 5.04591 74.2275 5.36737C73.4646 5.97171 72.7081 6.5882 71.983 7.2354C71.2887 7.85474 70.4378 8.27121 69.7392 8.88984C69.3767 9.21058 69.0456 9.5299 68.6459 9.80778C68.2176 10.1057 67.8043 10.4135 67.4175 10.765C67.0693 11.0815 66.7039 11.3065 66.3142 11.5658C65.8994 11.8415 65.5126 12.1559 65.1179 12.4587C64.7604 12.7338 64.3943 13.0016 63.9981 13.2195C63.5563 13.4631 63.0915 13.6624 62.651 13.911C62.1269 14.206 61.6171 14.5254 61.0987 14.8311C60.8484 14.979 60.5824 15.1097 60.3464 15.2797C60.1619 15.4126 60.0054 15.5812 59.8194 15.7112C59.6106 15.8576 59.3611 15.9398 59.1437 16.0719C58.9071 16.2169 58.6861 16.3962 58.4823 16.5841C58.0998 16.9377 57.7751 17.3478 57.4105 17.7185C56.7648 18.375 57.7751 19.3858 58.4215 18.7286" fill="black"/>
<path id="Vector_25" d="M8.1146 50.8151C8.44138 51.2123 8.89257 51.5045 9.33304 51.7609C9.80353 52.0352 10.2805 52.3002 10.8039 52.461C11.3816 52.6389 11.9694 52.7553 12.5393 52.9624C13.1035 53.1668 13.6598 53.3803 14.2439 53.5232C15.4617 53.8218 16.6458 54.169 17.9035 54.2533C18.5163 54.294 19.1313 54.2947 19.7448 54.294C20.2553 54.294 20.7794 54.269 21.2821 54.3719C21.8556 54.4897 22.394 54.5576 22.9818 54.534C23.5495 54.5112 24.1072 54.4983 24.6757 54.5204C25.3014 54.5447 25.9134 54.5369 26.5284 54.404C27.0289 54.2961 27.5244 54.1311 28.0378 54.0976C28.6478 54.0583 29.2219 54.0368 29.8204 53.8854C30.3975 53.739 30.9752 53.5961 31.5537 53.4539C32.1515 53.3068 32.7235 53.111 33.2791 52.8453C33.786 52.6024 34.273 52.3153 34.795 52.1038C35.3863 51.8638 35.9962 51.6645 36.5647 51.3716C37.1274 51.0809 37.5994 50.6458 38.1385 50.3143C38.7191 49.9579 39.239 49.5193 39.7659 49.09C39.9998 48.8992 40.2429 48.7171 40.4524 48.4992C40.5296 48.4192 40.6025 48.3363 40.6826 48.2584C40.7348 48.2077 40.8528 48.157 40.7391 48.162C41.6558 48.1213 41.6608 46.6919 40.7391 46.7333C40.1943 46.7576 39.831 47.0791 39.4728 47.4548C39.1031 47.8427 38.6548 48.1613 38.24 48.4985C37.7974 48.8585 37.2905 49.1107 36.8357 49.4493C36.3888 49.7822 35.9834 50.0922 35.4664 50.3143C34.9737 50.5258 34.4632 50.6937 33.972 50.9094C33.4514 51.138 32.9595 51.4252 32.4439 51.6638C31.942 51.8959 31.3978 52.0238 30.8615 52.1495C30.2816 52.2852 29.7089 52.4567 29.1268 52.581C28.5727 52.6996 28.0021 52.651 27.4415 52.7374C26.9209 52.8174 26.419 52.9996 25.8984 53.0746C25.3493 53.1539 24.7779 53.0889 24.2267 53.0732C23.6904 53.0575 23.1577 53.111 22.6221 53.1132C22.0751 53.1153 21.5638 52.9532 21.0218 52.8974C20.4677 52.841 19.9057 52.8646 19.3493 52.8632C18.1738 52.8596 17.0362 52.7946 15.9036 52.461C15.25 52.2688 14.5757 52.1595 13.9279 51.9466C13.2922 51.7381 12.6787 51.4666 12.0302 51.2994C11.4403 51.1473 10.9147 51.0037 10.3799 50.7072C9.92724 50.4558 9.46246 50.2079 9.12853 49.8029C8.88328 49.505 8.37202 49.5486 8.11746 49.8029C7.82215 50.0979 7.87149 50.5144 8.11746 50.813" fill="black"/>
<path id="Vector_26" d="M35.6178 72.1297C36.2971 73.382 37.6793 73.9156 38.9692 74.3113C39.607 74.5071 40.2377 74.7028 40.8626 74.9364C41.7 75.25 42.5358 75.5015 43.4339 75.5536C44.3857 75.6086 45.3417 75.56 46.2948 75.5507C46.7067 75.5465 47.1143 75.5507 47.5247 75.5029C47.9737 75.4507 48.4185 75.3536 48.8704 75.33C49.3152 75.3071 49.7399 75.2607 50.1796 75.1907C50.6101 75.1221 51.0513 75.1664 51.4846 75.1228C51.8979 75.0814 52.3062 74.995 52.7202 74.9564C53.2007 74.9121 53.6626 74.8535 54.1324 74.74C54.6222 74.6214 55.0884 74.5149 55.5925 74.4849C56.0866 74.4556 56.5492 74.3864 57.0276 74.2599C57.5153 74.1313 58.0237 74.0642 58.5192 73.9677C58.989 73.8763 59.4237 73.8413 59.852 73.6006C60.4434 73.2677 60.2138 72.2111 59.4909 72.269C59.4445 72.2726 59.398 72.2762 59.3515 72.2804C58.9668 72.3119 58.6365 72.5862 58.6365 72.9948C58.6365 73.357 58.9647 73.7406 59.3515 73.7091C59.398 73.7056 59.4445 73.702 59.4909 73.6977C59.3708 73.2541 59.25 72.8105 59.1298 72.3662C58.8352 72.5319 58.4641 72.5262 58.1388 72.5898C57.7276 72.6698 57.3108 72.7333 56.901 72.8212C56.5407 72.8984 56.2053 73.0155 55.8349 73.0412C55.3887 73.0727 54.9483 73.0969 54.5078 73.1827C54.1052 73.262 53.712 73.3827 53.3094 73.4605C52.8618 73.547 52.3963 73.5613 51.9444 73.6284C51.574 73.6834 51.2115 73.7156 50.8368 73.7213C50.3949 73.7284 49.9816 73.7999 49.5468 73.8642C49.1671 73.9199 48.7774 73.8949 48.3956 73.9449C48.0052 73.9963 47.6176 74.072 47.2244 74.102C46.3413 74.1692 45.4339 74.1435 44.548 74.1463C43.7071 74.1492 42.9134 74.1127 42.1061 73.8606C41.4318 73.6498 40.7826 73.3677 40.1068 73.1605C38.9664 72.8105 37.4612 72.5305 36.8513 71.4068C36.4122 70.5981 35.1773 71.3189 35.6164 72.1276" fill="black"/>
<path id="Vector_27" d="M95.8895 57.0408C96.1333 58.3916 96.9807 59.6153 97.9696 60.5382C98.4708 61.0061 99.0578 61.4976 99.7092 61.7355C99.9853 61.8362 100.206 61.8848 100.444 62.0598C100.745 62.2805 101.113 62.4013 101.468 62.5091C102.915 62.9513 104.317 63.6999 105.862 63.7078C106.605 63.7114 107.337 63.8914 108.084 63.8993C108.883 63.9078 109.681 63.8993 110.48 63.8993C111.357 63.9 112.235 63.9207 113.113 63.9043C114.03 63.8864 114.896 63.6207 115.793 63.4656C116.175 63.3999 116.388 62.9327 116.293 62.587C116.182 62.1848 115.795 62.0219 115.413 62.0884C114.737 62.2048 114.071 62.4313 113.384 62.4684C112.652 62.5084 111.913 62.4756 111.18 62.472C110.429 62.4684 109.678 62.4691 108.928 62.4698C108.221 62.4698 107.516 62.4841 106.816 62.3713C106.128 62.2605 105.451 62.2977 104.773 62.1205C104.082 61.9398 103.415 61.6819 102.748 61.4319C102.159 61.2112 101.568 61.0911 101.048 60.734C100.788 60.5554 100.492 60.4989 100.2 60.3939C99.9409 60.3011 99.7028 60.1218 99.4833 59.956C98.4215 59.1545 97.5091 57.9894 97.2688 56.66C97.2002 56.28 96.7375 56.0657 96.3893 56.1614C95.9889 56.2714 95.8209 56.6593 95.8902 57.0401" fill="black"/>
<path id="Vector_28" d="M3.54206 40.2575C4.1763 40.979 4.40869 41.9598 4.87418 42.7842C5.44264 43.7914 6.36933 44.6272 7.15087 45.4687C7.93098 46.3088 8.66819 47.231 9.5334 47.9847C10.3006 48.6526 11.1673 49.1933 12.0954 49.6098C13.0278 50.0277 13.9974 50.347 14.992 50.5828C15.5312 50.7106 16.0732 50.8235 16.6252 50.8749C17.1808 50.9264 17.7285 51.0485 18.2834 51.0857C18.869 51.1257 19.4625 51.0649 20.0488 51.0699C20.6487 51.0749 21.2208 51.0285 21.8085 50.9064C22.392 50.7849 22.9898 50.8649 23.5711 50.6935C24.0437 50.5542 24.4728 50.3942 24.9604 50.3113C25.2372 50.2642 25.4967 50.1434 25.772 50.097C26.0473 50.0506 26.3247 50.1363 26.6022 50.1263C27.2479 50.1027 27.7913 49.747 28.3998 49.5834C29.29 49.3441 30.3797 49.2576 31.0097 48.4961C31.3422 48.094 31.2507 47.4539 30.6944 47.3025C30.6371 47.2867 30.5799 47.271 30.5235 47.256C29.6347 47.0131 29.255 48.3911 30.1431 48.634C30.2003 48.6497 30.2575 48.6654 30.314 48.6812C30.2088 48.2833 30.1037 47.8854 29.9986 47.4875C29.5846 47.9889 28.6915 48.0325 28.058 48.1975C27.5832 48.3211 27.1377 48.6204 26.6515 48.6919C26.4334 48.724 26.2096 48.6633 25.9908 48.6562C25.7155 48.6476 25.4402 48.7012 25.1771 48.7776C24.7066 48.914 24.2189 48.9555 23.757 49.1183C23.2794 49.2869 22.8603 49.4055 22.3512 49.4269C21.7935 49.4512 21.2601 49.6105 20.7059 49.6355C20.1382 49.6612 19.5676 49.6412 18.9991 49.6598C18.4392 49.6784 17.9409 49.5834 17.3903 49.5155C16.8948 49.4541 16.4064 49.4298 15.9159 49.3269C14.9799 49.1312 14.0546 48.8755 13.1644 48.5233C12.3285 48.1925 11.5083 47.7496 10.8019 47.191C9.97315 46.536 9.30244 45.688 8.58596 44.9172C8.12834 44.4251 7.66999 43.9336 7.21809 43.4364C6.83411 43.0149 6.42153 42.6077 6.13408 42.1113C5.5785 41.1512 5.29748 40.0968 4.55098 39.2474C4.29643 38.9574 3.80019 38.9874 3.53991 39.2474C3.25175 39.5353 3.28464 39.9668 3.53991 40.2575" fill="black"/>
<path id="Vector_29" d="M123.636 56.5921C122.616 57.6357 121.376 58.3994 120.178 59.2173C119.667 59.5659 119.151 59.981 118.573 60.2138C118.3 60.3239 117.944 60.3324 117.651 60.4782C117.361 60.6232 117.13 60.7925 116.818 60.896C115.432 61.3561 113.944 61.5661 112.492 61.3968C112.134 61.3554 111.782 61.2811 111.426 61.2282C111.019 61.1682 110.626 61.2039 110.219 61.2089C109.876 61.2132 109.57 61.1325 109.238 61.0596C108.875 60.9803 108.519 60.9803 108.153 60.9368C107.355 60.841 106.602 60.4817 105.816 60.316C104.908 60.1245 104.041 59.8295 103.171 59.5102C102.419 59.2338 101.878 60.486 102.619 60.816C102.718 60.8596 102.815 60.9039 102.897 60.9746C103.187 61.2289 103.623 61.2597 103.908 60.9746C104.168 60.7153 104.199 60.2203 103.908 59.9645C103.733 59.8117 103.554 59.6767 103.342 59.5824C103.158 60.0174 102.974 60.4532 102.79 60.8882C103.573 61.1754 104.358 61.4611 105.174 61.6404C105.933 61.8068 106.66 62.0762 107.416 62.2469C107.803 62.3348 108.189 62.3455 108.581 62.3883C108.936 62.4269 109.279 62.5483 109.633 62.5983C110.023 62.6534 110.401 62.6241 110.792 62.6162C111.178 62.6083 111.546 62.6962 111.926 62.7512C112.744 62.8705 113.581 62.9491 114.406 62.8569C115.183 62.7705 115.991 62.6191 116.745 62.4105C117.092 62.3148 117.44 62.2055 117.768 62.0562C117.927 61.984 118.067 61.8911 118.217 61.8011C118.4 61.6904 118.561 61.6983 118.766 61.649C119.376 61.5032 119.959 61.1004 120.468 60.7482C121.9 59.7588 123.421 58.853 124.646 57.6015C125.289 56.9435 124.279 55.932 123.635 56.5914" fill="black"/>
<path id="Vector_30" d="M83.1885 18.8936C83.1635 18.8865 83.1384 18.88 83.1134 18.8736C83.28 19.1665 83.4466 19.4594 83.6125 19.7523C83.6161 19.7408 83.6204 19.7294 83.6239 19.7173C83.5625 19.8223 83.5017 19.9273 83.4402 20.0323C83.408 20.0573 83.3758 20.0816 83.3437 20.1066C83.2235 20.1394 83.1034 20.1716 82.9826 20.2044C83.0877 20.1902 82.8438 20.2044 82.8488 20.1566C82.8481 20.1644 82.9826 20.2259 82.9933 20.2323C83.0991 20.2923 83.1999 20.3609 83.2993 20.4309C83.5474 20.6052 83.8056 20.7631 84.0544 20.9359C84.3805 21.1624 84.5807 21.4624 84.7845 21.796C84.9711 22.1018 85.2507 22.4425 85.2657 22.8125C85.3043 23.7283 86.7344 23.7333 86.6958 22.8125C86.6664 22.1146 86.3182 21.5546 85.96 20.9781C85.5917 20.3859 85.162 19.9523 84.5778 19.5722C83.9414 19.1579 82.6479 18.1221 82.2332 19.3737C82.1116 19.7394 82.3748 20.1552 82.7323 20.2523C82.7573 20.2594 82.7823 20.2659 82.8074 20.273C83.6969 20.5145 84.0759 19.1365 83.1878 18.895" fill="black"/>
<path id="Vector_31" d="M80.6568 18.5601C80.6211 18.7744 80.5403 18.978 80.5117 19.1938C80.4981 19.2938 80.4931 19.3974 80.4602 19.4931C80.4309 19.5795 80.393 19.6531 80.4044 19.7481C80.4116 19.806 80.4488 19.8553 80.5117 19.8553C80.5646 19.8553 80.6261 19.806 80.6189 19.7481C80.6089 19.6624 80.6561 19.596 80.6776 19.5159C80.7033 19.4174 80.7098 19.3152 80.7233 19.2152C80.7512 19.0123 80.8292 18.8195 80.8635 18.618C80.8728 18.5609 80.8485 18.503 80.7884 18.4858C80.7369 18.4716 80.6661 18.503 80.6568 18.5609" fill="black"/>
<path id="Vector_32" d="M56.7646 23.7457C56.7567 24.3465 56.6659 24.9444 56.7639 25.543C56.8025 25.7802 56.9334 25.9988 56.9512 26.2324C56.9698 26.4745 56.9133 26.7203 56.9248 26.9639C56.9498 27.5068 57.0649 28.0397 57.09 28.584C57.1057 28.9226 57.2237 29.4898 57.0907 29.7313C57.5261 29.9149 57.9616 30.0984 58.3978 30.282C58.4121 30.247 58.4414 30.1963 58.4657 30.1663C58.7102 29.8684 58.7574 29.4477 58.4657 29.1562C58.2133 28.9041 57.7006 28.8562 57.4546 29.1562C57.2558 29.3977 57.1343 29.612 57.0184 29.902C56.7174 30.6599 57.9409 31.1507 58.3255 30.4528C58.5965 29.9606 58.5801 29.4112 58.5401 28.8683C58.4986 28.3033 58.4414 27.7504 58.3735 27.1867C58.3391 26.9017 58.372 26.6288 58.3799 26.3445C58.3878 26.0474 58.3241 25.7823 58.2297 25.503C58.0417 24.9508 58.189 24.3186 58.1961 23.7464C58.2076 22.8271 56.7782 22.8264 56.766 23.7464" fill="black"/>
<path id="Vector_33" d="M42.7302 75.4592C42.7245 76.3979 43.067 77.2708 43.1707 78.1931C43.2193 78.6245 43.3573 79.0431 43.401 79.4725C43.4474 79.9325 43.3266 80.3925 43.3723 80.854C43.456 81.6884 43.9587 82.4856 43.7778 83.33C43.682 83.7757 43.6291 84.2358 43.5561 84.6851C43.5003 85.0308 43.4946 85.3916 43.3673 85.7223C43.8028 85.6652 44.2383 85.6087 44.6744 85.5516C44.5186 85.268 44.5457 84.878 44.6158 84.5708C44.7216 84.1043 44.894 83.715 44.7302 83.2299C44.5843 82.7963 44.5886 82.4356 44.6051 81.9791C44.6222 81.5091 44.5529 81.059 44.4556 80.6011C44.3634 80.1668 44.3834 79.7418 44.367 79.3003C44.3491 78.8031 44.2998 78.3095 44.2325 77.8166C44.1689 77.3515 44.0824 76.8944 43.9859 76.435C43.9451 76.2393 43.9136 76.0464 43.8457 75.8578C43.815 75.7714 43.7864 75.6693 43.747 75.5864C43.6662 75.4157 43.8264 75.5407 43.6391 75.7285C44.0352 75.3314 43.7771 74.427 43.1335 74.5092C43.0906 74.5149 43.047 74.5199 43.0041 74.5256C42.6208 74.5742 42.2891 74.8192 42.2891 75.2399C42.2891 75.5878 42.618 76.0036 43.0041 75.9543C43.047 75.9486 43.0906 75.9436 43.1335 75.9379L42.628 74.7185C42.2412 75.1063 42.2383 75.6142 42.4163 76.1036C42.5765 76.5443 42.6602 77.013 42.7438 77.4744C42.8368 77.9916 42.8968 78.5145 42.9262 79.0389C42.9562 79.5753 42.9219 80.1111 43.0113 80.6426C43.0878 81.0998 43.1936 81.5112 43.1764 81.9798C43.1571 82.5049 43.1378 83.0164 43.3166 83.52C43.3909 83.7286 43.3695 83.7593 43.3044 83.9736C43.2301 84.2165 43.1886 84.4536 43.1636 84.7079C43.1092 85.253 43.175 85.7902 43.4417 86.2745C43.762 86.8581 44.5414 86.6438 44.7488 86.1038C44.8754 85.7738 44.8854 85.413 44.9376 85.0666C45.0055 84.6165 45.0691 84.1579 45.1592 83.7114C45.2615 83.2042 45.2808 82.7578 45.1807 82.2477C45.0913 81.7905 44.9061 81.3562 44.8189 80.8983C44.7374 80.469 44.8496 80.0304 44.8389 79.5975C44.8275 79.1267 44.6709 78.6867 44.6065 78.2245C44.5407 77.7509 44.4699 77.2901 44.362 76.8237C44.2561 76.37 44.1596 75.9286 44.1625 75.4607C44.1682 74.5413 42.7381 74.5399 42.7324 75.4607" fill="black"/>
<path id="Vector_34" d="M61.3401 72.4545C60.8624 73.186 60.3676 73.9389 60.2225 74.8169C60.1545 75.2262 60.0838 75.5919 59.9036 75.9698C59.7012 76.3949 59.4846 76.8142 59.333 77.2614C59.1928 77.675 59.102 78.1036 58.9726 78.5201C58.8539 78.9037 58.678 79.2266 58.4763 79.5716C58.1782 80.0823 57.7077 80.7588 57.7356 81.3703C57.7484 81.6568 57.9465 82.0082 58.2604 82.059C58.3269 82.0697 58.3934 82.0804 58.4606 82.0918C58.841 82.154 59.23 81.9932 59.3401 81.5925C59.4338 81.2517 59.2243 80.776 58.841 80.7138C58.7745 80.7031 58.708 80.6924 58.6408 80.681C58.816 80.9103 58.9912 81.1403 59.1656 81.3696C59.1592 81.2239 59.1335 81.4546 59.1699 81.3489C59.1735 81.3382 59.2264 81.1946 59.205 81.2467C59.2615 81.1089 59.3387 80.9767 59.4088 80.846C59.5553 80.5738 59.7062 80.3052 59.8621 80.038C60.299 79.2865 60.4377 78.4529 60.7116 77.6407C60.9733 76.8649 61.4473 76.2063 61.5732 75.3826C61.7026 74.5325 62.1109 73.8846 62.5743 73.1753C63.0784 72.4031 61.8406 71.6859 61.3394 72.4538" fill="black"/>
<path id="Vector_35" d="M1.64045 43.9902C1.35014 43.318 1.12276 42.6237 0.901812 41.9265C0.6873 41.25 0.435605 40.5835 0.324773 39.8799C0.210367 39.1548 0.210367 38.4162 0.217517 37.6839C0.224667 36.9753 0.211082 36.2645 0.284731 35.5588C0.357665 34.8594 0.52713 34.1751 0.604355 33.4764C0.642967 33.125 0.637247 32.7728 0.693735 32.4228C0.746648 32.0913 0.820298 31.7634 0.839604 31.4277C0.921834 29.9904 1.34657 28.6431 1.97152 27.348C2.58073 26.0857 3.25502 24.8463 3.91929 23.6119C4.27109 22.9583 4.62933 22.3083 4.97684 21.6525C5.30004 21.0431 5.60751 20.4459 6.03796 19.903C6.43266 19.4044 6.88028 18.9451 7.36937 18.5386C7.92138 18.0793 8.54347 17.7014 9.13481 17.2964C10.3354 16.4734 11.5016 15.5655 12.7651 14.8411C13.3664 14.4968 13.9864 14.1875 14.5942 13.8539C15.1934 13.5253 15.764 13.1538 16.3903 12.8781C17.6631 12.3173 19.0188 12.0787 20.3653 11.7716C21.0681 11.6108 21.7739 11.4487 22.4961 11.4058C23.1582 11.3665 23.7824 11.268 24.4281 11.1094C25.1174 10.9408 25.7967 10.7779 26.5096 10.7658C27.2526 10.7529 27.9955 10.7601 28.7377 10.7658C29.4935 10.7715 30.2493 10.7722 31.0058 10.7722C31.7623 10.7722 32.4867 10.6979 33.1996 10.8272C33.5185 10.8851 33.8331 10.9658 34.1577 10.9886C34.5288 11.0144 34.9028 10.9929 35.2739 10.9815C35.6564 10.9694 36.034 10.9615 36.4101 11.0465C36.7447 11.1222 37.0672 11.243 37.3876 11.3644C38.0547 11.6166 38.7326 11.8373 39.4025 12.0809C39.7157 12.1952 40.0032 12.2116 40.3343 12.2102C40.6789 12.2088 40.9885 12.2881 41.3174 12.3773C42.4737 12.6917 43.6742 13.0474 44.6889 13.7039C45.2001 14.0354 45.6606 14.4561 46.0925 14.884C46.5537 15.3412 47.0278 15.8198 47.2516 16.4406C47.3345 16.6692 47.4403 16.9028 47.4954 17.1385C47.539 17.3257 47.6184 17.4528 47.8215 17.4921C48.0395 17.535 48.3284 17.4571 48.5408 17.4107C48.9326 17.3257 49.303 17.2078 49.7063 17.1778C51.0728 17.0763 52.427 17.5414 53.7284 17.89C54.0659 17.9807 54.3391 18.13 54.5772 18.3872C54.806 18.6343 55.0055 18.8887 55.265 19.1065C55.7069 19.478 56.1746 19.8259 56.6415 20.1645C57.0476 20.4588 57.6097 20.8131 57.7298 21.336C57.782 21.296 57.8349 21.2553 57.8871 21.2153C57.8256 21.1703 57.7641 21.1246 57.7026 21.0796C57.5911 20.9974 57.4845 21.1839 57.5947 21.2646C57.6562 21.3096 57.7176 21.3553 57.7791 21.4003C57.8599 21.4596 57.9557 21.3617 57.9364 21.2796C57.8299 20.816 57.4216 20.4859 57.0612 20.2102C56.5822 19.8437 56.0902 19.4951 55.6183 19.1201C55.3594 18.9144 55.127 18.7001 54.9125 18.4486C54.703 18.2036 54.4957 17.9721 54.2003 17.8307C53.9401 17.7064 53.6569 17.6521 53.3773 17.5885C53.0255 17.5085 52.6823 17.3978 52.3355 17.2999C51.6741 17.1135 50.9877 16.9856 50.2998 16.9556C49.9923 16.942 49.6841 16.9549 49.3788 16.9992C49.0249 17.0506 48.6881 17.1685 48.337 17.2328C48.1661 17.2642 47.8694 17.3628 47.7492 17.2021C47.692 17.1256 47.6906 16.9906 47.6477 16.8942C47.5054 16.5742 47.4303 16.2256 47.2559 15.9191C46.9584 15.3962 46.4707 14.9426 46.0381 14.5325C45.632 14.1475 45.2023 13.771 44.7268 13.4732C44.2148 13.1531 43.6542 12.9131 43.0886 12.7045C42.5266 12.4981 41.9524 12.3266 41.3746 12.1695C41.1029 12.0952 40.8326 12.0109 40.5502 11.9959C40.3707 11.9866 40.1905 12.0059 40.0111 11.9959C39.7794 11.9823 39.5856 11.9194 39.3711 11.8394C38.7004 11.5908 38.0189 11.3708 37.3482 11.1194C36.6504 10.8579 36.0197 10.7422 35.2746 10.7665C34.9035 10.7786 34.5288 10.8015 34.1584 10.7736C33.783 10.7458 33.4219 10.6386 33.0501 10.585C32.3301 10.4807 31.5643 10.5565 30.8378 10.5572C29.2954 10.5572 27.7309 10.4657 26.1914 10.5608C25.5221 10.6022 24.8722 10.7815 24.2229 10.9379C23.9126 11.0129 23.6008 11.0844 23.2841 11.1301C22.8822 11.1887 22.4754 11.1815 22.0721 11.228C21.3713 11.3094 20.687 11.4808 19.9999 11.6344C19.3335 11.783 18.6635 11.9073 18.0049 12.088C17.3528 12.2666 16.7121 12.4895 16.0993 12.7752C15.4787 13.0646 14.9052 13.4417 14.3038 13.7668C13.6639 14.1125 13.0132 14.4382 12.389 14.8119C11.769 15.1826 11.187 15.6155 10.5942 16.0277C9.94996 16.4756 9.30427 16.9213 8.65573 17.3635C8.1173 17.7314 7.56601 18.0807 7.07263 18.5093C6.5721 18.9444 6.11733 19.4344 5.72048 19.9652C5.30647 20.5188 5.01116 21.1331 4.68725 21.7403C3.98293 23.0605 3.2829 24.3834 2.58002 25.7043C1.91717 26.9494 1.29294 28.1859 0.912538 29.5496C0.727342 30.214 0.675144 30.8505 0.617941 31.5334C0.589339 31.8741 0.504964 32.207 0.459916 32.5449C0.406288 32.9499 0.412008 33.3571 0.35266 33.7622C0.254699 34.4301 0.108115 35.0887 0.0509121 35.7623C-0.0127267 36.5053 0.00300428 37.2582 0.000144112 38.0033C-0.00200102 38.684 0.0187352 39.367 0.134572 40.0399C0.26042 40.7721 0.532851 41.475 0.758089 42.1815C0.964736 42.8301 1.18497 43.4723 1.45526 44.0974C1.5096 44.2238 1.69479 44.1145 1.64045 43.9895" fill="black"/>
<path id="Vector_36" d="M76.6567 24.3711C76.2077 24.8776 76.1219 25.4355 76.1505 26.0884C76.1748 26.6542 76.0239 27.1507 75.9252 27.7021C75.7744 28.5479 75.5484 29.7352 76.2384 30.4124L76.744 29.193C76.6868 29.1858 76.6296 29.1787 76.5716 29.1723C76.1877 29.1251 75.8566 29.5345 75.8566 29.8866C75.8566 30.3117 76.1862 30.5538 76.5716 30.601C76.6288 30.6081 76.686 30.6153 76.744 30.6217C77.3811 30.6996 77.6571 29.8016 77.2495 29.4023C77.1515 29.3066 77.2516 29.4044 77.2624 29.4473C77.2431 29.3737 77.2187 29.303 77.208 29.228C77.2195 29.3101 77.2066 29.0751 77.2066 29.0816C77.2052 28.9915 77.208 28.9015 77.2123 28.8115C77.2288 28.5051 77.2659 28.2708 77.3267 27.955C77.4247 27.4421 77.5806 26.9414 77.5891 26.4149C77.5941 26.1191 77.4533 25.622 77.6671 25.3812C78.2756 24.6954 77.2681 23.6811 76.656 24.3711" fill="black"/>
<path id="Vector_37" d="M42.6207 75.7015C43.5645 75.8979 44.4433 76.3244 45.4222 76.3451C45.952 76.3565 46.489 76.2751 47.0175 76.2358C47.6045 76.1929 48.1923 76.1615 48.7807 76.1529C49.7003 76.1394 49.7032 74.7107 48.7807 74.7242C47.6989 74.7399 46.6228 74.9028 45.5438 74.9171C44.665 74.9285 43.8491 74.5006 43.0003 74.3242C42.6228 74.2456 42.2274 74.4342 42.1208 74.8228C42.0236 75.1771 42.2403 75.6229 42.6199 75.7015" fill="black"/>
<path id="Vector_38" d="M38.8931 106.46C37.7562 107.723 36.9089 109.206 35.9014 110.566C36.3133 110.806 36.7244 111.047 37.1363 111.287C37.4974 110.758 37.8671 110.234 38.2167 109.697C38.5428 109.196 38.8145 108.665 39.1305 108.159C39.7126 107.23 40.5721 106.509 40.941 105.449C41.0676 105.085 40.7966 104.668 40.4419 104.571C40.0479 104.463 39.6897 104.704 39.5624 105.069C39.2371 106.004 38.339 106.685 37.8427 107.525C37.2285 108.566 36.5836 109.567 35.9014 110.566C35.684 110.884 35.8413 111.358 36.1581 111.543C36.5221 111.755 36.906 111.598 37.1363 111.286C38.0708 110.024 38.8502 108.64 39.9042 107.468C40.5177 106.786 39.5102 105.772 38.8931 106.458" fill="black"/>
</g>
</svg>
