<svg width="160" height="53" viewBox="0 0 160 53" fill="none" xmlns="http://www.w3.org/2000/svg">
<rect width="160" height="53" fill="black"/>
<path d="M42.3075 25.7283C42.6554 24.0563 43.4056 22.6939 44.2366 21.236C45.2838 19.3976 46.8142 17.8671 48.0774 16.1757C48.7662 15.2538 49.476 14.355 50.344 13.596C51.1522 12.8882 52.0553 12.2938 52.9812 11.7541C54.8542 10.6624 56.8536 9.81315 58.7828 8.8294C60.9422 7.7271 63.0927 6.57881 65.4365 5.92769C67.675 5.30489 69.9872 5.00941 72.2273 4.39545C73.3799 4.08051 74.5097 3.72487 75.6851 3.50017C76.8693 3.27369 78.0658 3.12507 79.2641 2.99414C81.7028 2.7252 84.1327 2.38372 86.5732 2.12894C91.5666 1.60875 96.6091 1.20534 101.627 1.02133C106.656 0.837324 111.691 0.931098 116.716 1.14165C121.557 1.34512 126.383 1.56983 131.167 2.38549C133.362 2.76059 135.546 3.20469 137.735 3.61518C140.091 4.05751 142.483 4.33175 144.768 5.08018C145.919 5.45705 147.049 5.89231 148.198 6.27271C149.347 6.65312 150.443 7.0353 151.498 7.6351C153.29 8.656 154.702 10.0325 155.888 11.7223C158.424 15.3388 159.585 19.6648 158.919 24.0757C158.58 26.321 157.869 28.4849 156.762 30.4613C155.697 32.3633 154.483 34.2565 152.968 35.8259C151.468 37.3811 149.73 38.7824 147.985 40.0493C146.234 41.3196 144.347 42.3919 142.393 43.3119C138.473 45.1556 134.295 46.3658 130.141 47.5495C127.979 48.1652 125.826 48.8676 123.614 49.2905C121.195 49.7558 118.735 49.954 116.284 50.1521C113.833 50.3503 111.407 50.6617 108.964 50.9483C106.475 51.2403 103.967 51.2261 101.465 51.3217C99.0022 51.4155 96.5564 51.7286 94.0931 51.7994C92.8843 51.8348 91.6755 51.7711 90.4684 51.7994C89.2614 51.8277 88.0508 52.0312 86.8367 52.0719C85.5945 52.1126 84.3471 51.9445 83.1102 51.8472C81.8645 51.7499 80.6152 51.6667 79.366 51.6667C78.1185 51.6667 76.908 51.8472 75.6675 51.9374C74.5272 52.0206 73.4151 51.8082 72.3099 51.5552C71.2294 51.3075 70.1594 51.0846 69.056 50.9696C67.8612 50.8457 66.6577 50.775 65.4734 50.5679C63.1349 50.161 60.8139 49.3736 58.5948 48.5403C57.4405 48.1068 56.3019 47.6309 55.1845 47.1071C54.1847 46.6365 53.3713 46.0261 52.5543 45.2847C51.8005 44.6018 51.0397 43.986 50.1665 43.4623C49.2195 42.8943 48.5009 42.2149 47.7664 41.3922C45.1784 38.4976 43.7306 34.4918 44.6935 30.6453C45.1222 28.9308 45.8162 27.2888 46.4382 25.6381C46.6472 25.0825 45.7617 24.8419 45.5544 25.3921C44.2911 28.7432 42.8416 32.0873 43.7517 35.7268C44.2788 37.8358 45.3313 39.936 46.7263 41.5939C47.4151 42.4113 48.1337 43.2464 49.0262 43.8427C49.9258 44.4443 50.8201 44.9592 51.6318 45.6881C52.3979 46.3764 53.1516 47.0965 54.0653 47.5849C55.1107 48.144 56.2299 48.5951 57.3298 49.0339C59.6139 49.9487 61.977 50.7307 64.3736 51.2845C66.7174 51.8242 69.1403 51.7729 71.4859 52.309C72.5928 52.562 73.7015 52.8345 74.8417 52.8734C76.0875 52.9158 77.3296 52.6363 78.5754 52.5991C81.1599 52.5231 83.7075 52.9618 86.2851 52.999C87.5764 53.0167 88.8538 52.7938 90.1399 52.7318C91.3838 52.6735 92.6366 52.7548 93.8823 52.7248C96.4176 52.6628 98.9354 52.339 101.469 52.2417C104.047 52.1426 106.626 52.1515 109.191 51.8419C111.703 51.5393 114.204 51.2421 116.727 51.0368C119.223 50.8351 121.727 50.6104 124.187 50.1132C126.441 49.6585 128.646 48.9331 130.858 48.3014C133.021 47.6839 135.18 47.0523 137.308 46.3233C141.481 44.8937 145.566 43.0677 149.091 40.366C150.812 39.0461 152.557 37.6624 154.019 36.0488C155.481 34.4352 156.751 32.4411 157.797 30.4843C159.984 26.3865 160.566 21.5102 159.438 17.0072C158.949 15.0574 158.011 13.2191 156.895 11.563C155.804 9.94408 154.506 8.4543 152.866 7.38562C150.827 6.05685 148.539 5.41812 146.267 4.61485C145.097 4.20082 143.918 3.80096 142.702 3.54971C141.449 3.29139 140.176 3.1233 138.916 2.89329C134.325 2.05462 129.764 1.05672 125.106 0.669237C119.97 0.242828 114.784 0.076511 109.63 0.0110458C104.401 -0.0561889 99.213 0.189748 94 0.579001C88.8573 0.964716 83.7532 1.54506 78.6316 2.13778C77.4579 2.27402 76.286 2.43326 75.1281 2.66681C73.9246 2.91098 72.7685 3.302 71.5808 3.60633C69.265 4.20082 66.879 4.49984 64.5914 5.20757C62.2581 5.92946 60.1006 7.12376 57.9289 8.22606C55.9277 9.24165 53.8544 10.1122 51.9428 11.2994C51.052 11.8532 50.1929 12.4707 49.4233 13.1873C48.5905 13.964 47.9035 14.8805 47.2253 15.7917C45.9444 17.5115 44.4598 19.0455 43.3687 20.8998C42.5095 22.3612 41.7751 23.7962 41.4255 25.477C41.3042 26.0574 42.188 26.3051 42.3092 25.723L42.3075 25.7283Z" fill="white"/>
<path d="M81.3153 12.6955L68.874 39.6194H64.7715L67.9376 32.7473L58 12.6955H62.3134L70.0161 28.2408L77.1794 12.6955H81.3153Z" fill="white"/>
<path d="M103.705 12.6952V39.6191H99.7462V16.3559H89.4801L89.3729 20.0538C89.206 25.2238 88.8775 29.2207 88.3925 32.0446C87.9058 34.8685 87.1626 36.8908 86.1647 38.1116C85.1667 39.3307 83.7874 39.9429 82.0287 39.9429C81.672 39.9429 81.303 39.9022 80.9218 39.8173C80.544 39.7341 80.1979 39.6191 79.8887 39.4776L80.5317 36.1017C80.9112 36.1955 81.2328 36.245 81.4928 36.245C82.3959 36.245 83.1092 35.7956 83.6328 34.8968C84.1547 33.9997 84.5711 32.3135 84.8803 29.8347C85.1895 27.3594 85.4162 23.6916 85.5567 18.8312L85.699 12.6934H103.703L103.705 12.6952Z" fill="white"/>
<path d="M111.262 39.6194V12.6955H115.218V39.6212H111.262V39.6194Z" fill="white"/>
<path d="M120.922 26.1585C120.922 23.5735 121.475 21.2344 122.579 19.1395C123.684 17.0464 125.235 15.3938 127.233 14.1854C129.229 12.9769 131.487 12.3718 134.006 12.3718C136.002 12.3718 137.814 12.7434 139.442 13.4847C141.069 14.2261 142.424 15.2665 143.506 16.6076C144.587 17.9488 145.33 19.527 145.734 21.3459L141.813 22.4216C141.361 20.4347 140.463 18.8741 139.121 17.7364C137.777 16.6005 136.072 16.0326 134.004 16.0326C132.174 16.0326 130.582 16.4873 129.227 17.395C127.873 18.3044 126.832 19.527 126.107 21.0575C125.383 22.5897 125.021 24.2883 125.021 26.1549C125.021 28.0216 125.378 29.7272 126.089 31.2701C126.803 32.8147 127.83 34.0338 129.173 34.9326C130.515 35.8296 132.114 36.2773 133.968 36.2773C135.419 36.2773 136.708 36.0083 137.836 35.4687C138.964 34.9308 139.892 34.1824 140.618 33.2252C141.343 32.268 141.835 31.1568 142.097 29.8864L146.019 30.9286C145.543 32.7952 144.754 34.4053 143.649 35.7571C142.543 37.1106 141.171 38.1439 139.53 38.8623C137.891 39.5788 136.037 39.938 133.969 39.938C131.38 39.938 129.09 39.34 127.108 38.1421C125.123 36.9461 123.596 35.3006 122.528 33.2057C121.458 31.1126 120.924 28.7611 120.924 26.1514L120.922 26.1585Z" fill="white"/>
<path d="M43.8591 34.0175C43.5059 34.7676 42.7205 35.1604 41.9088 35.4506C41.9035 35.4524 41.8983 35.4541 41.8948 35.4559C41.3448 35.6806 40.7527 35.8505 40.1237 36.0699L40.0341 36.1017C38.3614 36.7599 36.7345 37.5614 35.104 38.3116C31.5425 39.9518 27.8054 41.507 24.0086 42.6076C23.998 42.6129 23.9875 42.6146 23.9769 42.6182C23.3954 42.804 22.8033 42.9685 22.1936 43.0994C20.1291 43.5435 19.2418 40.4384 21.3151 39.9217C22.1707 39.7094 23.0264 39.4688 23.8768 39.2034H23.8785C26.4051 38.3488 28.8385 37.1545 31.3194 36.2167C32.5194 35.7638 33.7019 35.2719 34.8791 34.7641C34.1974 34.7376 33.5174 34.704 32.8357 34.6526C29.2971 34.3837 25.7831 34.0511 22.2955 33.3734C15.1533 31.9863 8.10248 29.718 1.15356 27.5895C-0.872252 26.9684 -0.00781048 23.7872 2.0303 24.4117C8.78946 26.4819 15.6347 28.6617 22.5661 30.0771C25.9658 30.7707 29.3814 31.0945 32.8357 31.3581C33.9725 31.4431 35.104 31.4873 36.239 31.5262C34.5189 30.4806 32.8515 29.3553 31.3036 28.0212C29.5167 26.4836 27.8406 24.824 26.247 23.0883C24.9556 21.6834 23.2267 20.4378 22.2059 18.8295C21.2202 17.2778 23.5834 15.3775 24.7992 16.8337C24.9819 17.0531 25.1647 17.2725 25.3474 17.4919C25.4177 17.575 25.4774 17.6617 25.5284 17.7484C25.9412 18.1713 26.4385 18.5287 26.8672 18.925C27.5524 19.5602 28.148 20.2892 28.7823 20.9739C30.3162 22.6336 31.9256 24.2189 33.6386 25.6927C36.5394 28.1875 39.9656 29.8666 43.267 31.7651C43.5744 31.9403 43.787 32.1862 43.9118 32.4675C43.9135 32.4711 43.9153 32.4728 43.9153 32.4746C44.1947 32.9435 44.2456 33.5132 43.8591 34.0175Z" fill="white"/>
</svg>
